<svg width="934" height="594" viewBox="0 0 934 594" fill="none" xmlns="http://www.w3.org/2000/svg">
<g clip-path="url(#clip0)">
<rect width="934" height="594" fill="white"/>
<path d="M829.771 21L776.771 51.5L829.771 82L882.271 51.5L829.771 21Z" stroke="#0047B2" stroke-opacity="0.15"/>
<path d="M354.472 571.18C353.536 571.18 352.72 571.03 352.024 570.73C351.34 570.418 350.812 570.016 350.44 569.524C350.08 569.032 349.888 568.504 349.864 567.94C349.864 567.844 349.9 567.76 349.972 567.688C350.044 567.616 350.134 567.58 350.242 567.58H350.602C350.818 567.58 350.95 567.7 350.998 567.94C351.082 568.516 351.412 569.02 351.988 569.452C352.564 569.884 353.392 570.1 354.472 570.1C355.612 570.1 356.458 569.896 357.01 569.488C357.574 569.068 357.856 568.486 357.856 567.742C357.856 567.286 357.718 566.914 357.442 566.626C357.178 566.326 356.788 566.068 356.272 565.852C355.756 565.624 354.976 565.342 353.932 565.006C353.008 564.706 352.282 564.412 351.754 564.124C351.238 563.836 350.854 563.482 350.602 563.062C350.35 562.642 350.224 562.108 350.224 561.46C350.224 560.848 350.386 560.296 350.71 559.804C351.046 559.312 351.526 558.928 352.15 558.652C352.774 558.364 353.518 558.22 354.382 558.22C355.27 558.22 356.032 558.382 356.668 558.706C357.304 559.018 357.784 559.42 358.108 559.912C358.432 560.392 358.606 560.878 358.63 561.37C358.63 561.466 358.594 561.55 358.522 561.622C358.462 561.694 358.372 561.73 358.252 561.73H357.892C357.808 561.73 357.724 561.706 357.64 561.658C357.556 561.598 357.508 561.502 357.496 561.37C357.424 560.77 357.1 560.278 356.524 559.894C355.96 559.498 355.246 559.3 354.382 559.3C353.458 559.3 352.72 559.48 352.168 559.84C351.628 560.2 351.358 560.74 351.358 561.46C351.358 561.928 351.478 562.318 351.718 562.63C351.97 562.93 352.342 563.194 352.834 563.422C353.326 563.638 354.052 563.902 355.012 564.214C355.996 564.526 356.764 564.826 357.316 565.114C357.868 565.402 358.282 565.75 358.558 566.158C358.846 566.566 358.99 567.094 358.99 567.742C358.99 568.822 358.588 569.668 357.784 570.28C356.98 570.88 355.876 571.18 354.472 571.18ZM364.83 571.18C363.69 571.18 362.772 570.808 362.076 570.064C361.38 569.308 360.984 568.3 360.888 567.04L360.87 566.32L360.888 565.6C360.984 564.352 361.374 563.35 362.058 562.594C362.754 561.838 363.678 561.46 364.83 561.46C366.078 561.46 367.05 561.874 367.746 562.702C368.454 563.53 368.808 564.664 368.808 566.104V566.374C368.808 566.494 368.766 566.59 368.682 566.662C368.61 566.734 368.514 566.77 368.394 566.77H361.986V566.95C362.01 567.514 362.136 568.042 362.364 568.534C362.604 569.014 362.934 569.404 363.354 569.704C363.774 569.992 364.266 570.136 364.83 570.136C365.49 570.136 366.024 570.01 366.432 569.758C366.852 569.494 367.152 569.23 367.332 568.966C367.44 568.822 367.518 568.732 367.566 568.696C367.626 568.66 367.728 568.642 367.872 568.642H368.16C368.268 568.642 368.358 568.672 368.43 568.732C368.502 568.792 368.538 568.87 368.538 568.966C368.538 569.218 368.376 569.524 368.052 569.884C367.74 570.232 367.302 570.538 366.738 570.802C366.174 571.054 365.538 571.18 364.83 571.18ZM367.71 565.762V565.69C367.71 564.766 367.446 564.004 366.918 563.404C366.402 562.804 365.706 562.504 364.83 562.504C363.954 562.504 363.258 562.804 362.742 563.404C362.238 564.004 361.986 564.766 361.986 565.69V565.762H367.71ZM371.597 571C371.477 571 371.381 570.964 371.309 570.892C371.237 570.82 371.201 570.724 371.201 570.604V558.616C371.201 558.496 371.237 558.4 371.309 558.328C371.381 558.256 371.477 558.22 371.597 558.22H371.903C372.023 558.22 372.119 558.256 372.191 558.328C372.263 558.4 372.299 558.496 372.299 558.616V570.604C372.299 570.724 372.263 570.82 372.191 570.892C372.119 570.964 372.023 571 371.903 571H371.597ZM375.64 571C375.52 571 375.424 570.964 375.352 570.892C375.28 570.82 375.244 570.724 375.244 570.604V558.616C375.244 558.496 375.28 558.4 375.352 558.328C375.424 558.256 375.52 558.22 375.64 558.22H375.946C376.066 558.22 376.162 558.256 376.234 558.328C376.306 558.4 376.342 558.496 376.342 558.616V570.604C376.342 570.724 376.306 570.82 376.234 570.892C376.162 570.964 376.066 571 375.946 571H375.64ZM382.743 571.18C381.603 571.18 380.685 570.808 379.989 570.064C379.293 569.308 378.897 568.3 378.801 567.04L378.783 566.32L378.801 565.6C378.897 564.352 379.287 563.35 379.971 562.594C380.667 561.838 381.591 561.46 382.743 561.46C383.991 561.46 384.963 561.874 385.659 562.702C386.367 563.53 386.721 564.664 386.721 566.104V566.374C386.721 566.494 386.679 566.59 386.595 566.662C386.523 566.734 386.427 566.77 386.307 566.77H379.899V566.95C379.923 567.514 380.049 568.042 380.277 568.534C380.517 569.014 380.847 569.404 381.267 569.704C381.687 569.992 382.179 570.136 382.743 570.136C383.403 570.136 383.937 570.01 384.345 569.758C384.765 569.494 385.065 569.23 385.245 568.966C385.353 568.822 385.431 568.732 385.479 568.696C385.539 568.66 385.641 568.642 385.785 568.642H386.073C386.181 568.642 386.271 568.672 386.343 568.732C386.415 568.792 386.451 568.87 386.451 568.966C386.451 569.218 386.289 569.524 385.965 569.884C385.653 570.232 385.215 570.538 384.651 570.802C384.087 571.054 383.451 571.18 382.743 571.18ZM385.623 565.762V565.69C385.623 564.766 385.359 564.004 384.831 563.404C384.315 562.804 383.619 562.504 382.743 562.504C381.867 562.504 381.171 562.804 380.655 563.404C380.151 564.004 379.899 564.766 379.899 565.69V565.762H385.623ZM389.491 571C389.371 571 389.275 570.964 389.203 570.892C389.131 570.82 389.095 570.724 389.095 570.604V562.054C389.095 561.934 389.131 561.838 389.203 561.766C389.275 561.682 389.371 561.64 389.491 561.64H389.779C389.899 561.64 389.995 561.682 390.067 561.766C390.151 561.838 390.193 561.934 390.193 562.054V562.882C390.625 562.054 391.441 561.64 392.641 561.64H393.307C393.427 561.64 393.523 561.676 393.595 561.748C393.667 561.82 393.703 561.916 393.703 562.036V562.288C393.703 562.408 393.667 562.504 393.595 562.576C393.523 562.648 393.427 562.684 393.307 562.684H392.533C391.813 562.684 391.243 562.894 390.823 563.314C390.403 563.734 390.193 564.304 390.193 565.024V570.604C390.193 570.724 390.151 570.82 390.067 570.892C389.995 570.964 389.899 571 389.779 571H389.491Z" fill="#18315A"/>
</g>
<defs>
<clipPath id="clip0">
<rect width="934" height="594" fill="white"/>
</clipPath>
</defs>
</svg>
