<svg width="91" height="90" viewBox="0 0 91 90" fill="none" xmlns="http://www.w3.org/2000/svg">
<path d="M43.8275 7.77084L41.1794 3.91895L39.4942 5.04241H39.4139L40.8584 10.0178L40.2966 10.419L40.2164 13.3079L35.7225 20.129L27.6175 27.1106L20.5557 30.481L11.2469 29.6785C11.1667 29.518 11.0864 29.2773 11.0062 29.1168L6.9938 27.1106V27.1908L5.30859 28.3945L8.27776 32.7279C8.27776 32.8082 8.35801 32.8082 8.35801 32.8884L8.679 33.3699C10.6049 35.6168 13.9754 36.9008 18.4692 36.4996C28.3397 35.8576 39.7349 28.0735 43.988 19.2463C45.914 15.1536 46.0745 11.5425 44.63 8.97456C44.3893 8.49307 44.0683 8.09183 43.8275 7.77084Z" fill="url(#paint0_linear)"/>
<path d="M6.9921 27.9126C8.27607 28.3941 9.80077 28.8756 11.0847 29.3571C10.2823 27.2707 10.4428 24.6225 11.8872 21.6533C15.3379 14.5113 24.5664 8.17167 32.5109 7.60994C35.8011 7.36919 38.2888 8.09142 39.8937 9.61613L39.7332 5.12225C39.332 4.96176 38.9307 4.88151 38.6097 4.80126C39.1715 4.72102 39.5727 4.64077 39.7332 4.56052C38.7702 4.40002 29.7022 1.10986 29.7022 1.10986L17.5046 5.84449L8.75755 13.8693L6.10938 23.3385L7.07235 25.6657L7.31309 25.425C7.07235 26.2274 6.9921 27.1102 6.9921 27.9126Z" fill="url(#paint1_linear)"/>
<path d="M48.2419 19.7263L47.6802 13.146L43.106 13.3065H43.0258C42.5443 13.3867 42.0628 13.7077 41.7418 14.3497C41.0999 15.7139 41.2603 17.8004 42.0628 19.0041C42.4641 19.5658 42.8653 19.8066 43.2665 19.8868C43.3468 19.8868 43.427 19.8868 43.5073 19.8868L48.2419 19.7263Z" fill="url(#paint2_linear)"/>
<path d="M47.6809 13.147C47.1994 13.2272 46.7982 13.5482 46.4772 14.1902C45.8352 15.5544 45.9957 17.6409 46.7982 18.8446C47.1994 19.4866 47.7611 19.7273 48.2426 19.7273L58.0329 20.6903L57.4711 11.0605L47.6809 13.147Z" fill="url(#paint3_linear)"/>
<path d="M75.1239 10.8994C75.0436 10.8994 74.9634 10.8994 74.8831 10.8994L57.4694 11.0599C56.7471 11.0599 56.0249 11.6216 55.5434 12.5846C54.5804 14.5106 54.8212 17.56 56.0249 19.4057C56.5866 20.2884 57.3089 20.6896 58.0311 20.6896C58.1916 20.6896 58.2718 20.6896 58.4323 20.6094L75.5251 18.202C75.6054 18.202 75.6856 18.202 75.7659 18.202L80.661 17.4797L80.019 10.8994H75.1239Z" fill="url(#paint4_linear)"/>
<path d="M84.5939 10.6587L80.1803 10.8192H80.1C79.6185 10.8994 79.137 11.2204 78.8161 11.8624C78.1741 13.2266 78.3346 15.3131 79.137 16.5168C79.6185 17.1588 80.1803 17.4798 80.6618 17.3193L85.2359 17.1588L84.5939 10.6587Z" fill="url(#paint5_linear)"/>
<path d="M86.1986 11.542C87.0011 12.7457 87.1616 14.8321 86.5196 16.1963C85.8776 17.5605 84.6739 17.6408 83.8714 16.4371C83.0689 15.2334 82.9084 13.1469 83.5504 11.7827C84.1122 10.4185 85.3159 10.258 86.1986 11.542Z" fill="url(#paint6_linear)"/>
<path d="M88.7676 11.2998L85.5576 11.3801H85.4774C85.1564 11.3801 84.8354 11.701 84.5947 12.1825C84.1132 13.1455 84.2737 14.6702 84.8354 15.5529C85.1564 16.0344 85.5576 16.2752 85.9589 16.1949L89.249 16.1147L88.7676 11.2998Z" fill="url(#paint7_linear)"/>
<path d="M89.9708 11.943C90.6128 12.8257 90.6931 14.3504 90.2116 15.3134C89.7301 16.2763 88.8474 16.3566 88.2856 15.4739C87.6436 14.5911 87.5634 13.0664 88.0449 12.1035C88.4461 11.1405 89.3288 11.0602 89.9708 11.943Z" fill="url(#paint8_linear)"/>
<path d="M63.9699 18.4416C62.8464 16.8366 62.6859 14.1082 63.4884 12.3427C63.8896 11.46 64.5316 10.9785 65.1736 10.9785H63.7291C63.0069 10.9785 62.3649 11.46 61.8834 12.423C61.0007 14.1884 61.2415 16.9971 62.3649 18.6021C62.9267 19.4848 63.6489 19.8058 64.2909 19.7255L65.8958 19.4848C65.2538 19.6453 64.5316 19.3243 63.9699 18.4416Z" fill="url(#paint9_linear)"/>
<path opacity="0.8" d="M30.5861 5.60354C38.2899 5.04181 41.7406 10.1777 38.4504 17.079C35.08 23.9803 26.1725 30.0791 18.5489 30.7211C10.8451 31.3631 7.31424 26.147 10.6847 19.2457C13.9748 12.3444 22.9626 6.24553 30.5861 5.60354Z" fill="url(#paint10_linear)"/>
<path d="M5.46785 17.3998C1.21471 26.2271 5.70859 32.8074 15.4988 32.0851C25.2891 31.2827 36.604 23.5789 40.8571 14.6714C45.1103 5.84411 40.6164 -0.73621 30.9064 0.0662682C21.1162 0.788498 9.72098 8.57254 5.46785 17.3998ZM37.567 14.9924C34.1163 22.1344 24.8878 28.474 16.9433 29.0357C8.99875 29.5975 5.3876 24.3011 8.83826 17.1591C12.2889 10.017 21.5174 3.67742 29.4619 3.11569C37.3262 2.4737 41.0176 7.77006 37.567 14.9924Z" fill="url(#paint11_linear)"/>
<path opacity="0.5" d="M20.0744 13.9489C22.8028 13.7081 24.0868 15.5538 22.8831 18.0415C21.6794 20.5292 18.5497 22.6959 15.741 22.9366C13.0126 23.1774 11.7286 21.3317 12.9324 18.844C14.1361 16.3563 17.346 14.1896 20.0744 13.9489Z" fill="#FDFEFF"/>
<path d="M55.1579 33.7696L12.8473 58.2093C12.1711 58.5957 11.0119 58.4991 10.2391 58.1127C9.46635 57.6297 9.36975 57.0501 10.0459 56.6637L52.3565 32.224C53.0327 31.8376 54.1919 31.9342 54.9647 32.3206C55.7375 32.707 55.8341 33.3832 55.1579 33.7696Z" fill="url(#paint12_linear)"/>
<path d="M56.2208 52.5098L29.6559 67.8692C28.9797 68.2556 27.8205 68.159 27.0477 67.7726C26.2749 67.2896 26.1783 66.71 26.8545 66.3236L53.4194 50.9642C54.0956 50.5778 55.2548 50.6744 56.0276 51.0608C56.8004 51.4472 56.897 52.1234 56.2208 52.5098Z" fill="url(#paint13_linear)"/>
<path d="M51.7775 41.8839L18.2575 61.2038C17.5813 61.5902 16.4221 61.4936 15.6493 61.1072C14.8765 60.6242 14.7799 60.0446 15.4561 59.6582L48.9761 40.3383C49.6523 39.9519 50.8115 40.0485 51.5843 40.4349C52.3571 40.9179 52.4537 41.4975 51.7775 41.8839Z" fill="url(#paint14_linear)"/>
<path d="M61.5336 42.4634L23.57 64.3915C22.8938 64.7779 21.7346 64.6813 20.9618 64.2949C20.189 63.8119 20.0924 63.2323 20.7686 62.8459L58.6356 40.9179C59.3118 40.5315 60.471 40.6281 61.2438 41.0145C62.1132 41.4009 62.2098 42.077 61.5336 42.4634Z" fill="url(#paint15_linear)"/>
<path d="M24.3431 73.9553C22.5077 73.9553 20.5757 73.4723 19.1267 72.6029L2.41499 62.943C0.869395 62.1702 0 61.011 0 59.7552C0 58.6926 0.579597 57.8232 1.73879 57.147L50.9079 28.8433C53.3229 27.4909 57.4767 27.5875 60.2781 29.2297L76.9898 38.8897C78.5354 39.7591 79.4048 40.9183 79.4048 42.1741C79.4048 43.2367 78.8252 44.1061 77.666 44.7822L28.4003 73.0859C27.3377 73.6655 25.7921 73.9553 24.3431 73.9553ZM54.9651 28.6501C53.6127 28.6501 52.2603 28.9399 51.2943 29.5195L2.12519 57.9198C1.25579 58.4028 0.772796 59.079 0.772796 59.8518C0.772796 60.7212 1.44899 61.6872 2.80139 62.46L19.5131 72.1199C22.0247 73.5689 25.8887 73.7621 28.0139 72.5063L77.183 44.1061C78.0524 43.6231 78.5354 42.9469 78.5354 42.1741C78.5354 41.3047 77.8592 40.3387 76.5068 39.5659L59.8917 29.9059C58.4427 29.0365 56.7039 28.6501 54.9651 28.6501Z" fill="url(#paint16_linear)"/>
<path d="M62.4239 87.8288L39.9688 86.4398L40.0845 85.6296L61.1507 87.0186L61.8452 69.7721L83.3744 67.4571L84.3004 54.0303H85.5736L84.6476 68.1516L63.2342 70.4665L62.4239 87.8288Z" fill="url(#paint17_linear)"/>
<path d="M89.7409 54.9566L85.2267 50.0952L80.1338 54.7251L89.7409 54.9566Z" fill="url(#paint18_linear)"/>
<path d="M43.0936 84.2413C44.8298 85.283 44.8298 86.7877 43.0936 87.8295C41.3574 88.8712 38.5794 88.8712 36.8432 87.8295C35.107 86.7877 35.107 85.283 36.8432 84.2413C38.6952 83.1995 41.4731 83.1995 43.0936 84.2413Z" fill="url(#paint19_linear)"/>
<path d="M64.9696 85.6299C66.7058 86.6717 66.7058 88.1764 64.9696 89.2181C63.2334 90.2599 60.4554 90.2599 58.7192 89.2181C56.9829 88.1764 56.9829 86.6717 58.7192 85.6299C60.4554 84.5882 63.2334 84.5882 64.9696 85.6299Z" fill="url(#paint20_linear)"/>
<path d="M65.6649 68.2677C67.4011 69.3095 67.4011 70.8142 65.6649 71.8559C63.9287 72.8977 61.1507 72.8977 59.4145 71.8559C57.6782 70.8142 57.6782 69.3095 59.4145 68.2677C61.1507 67.3417 63.9287 67.3417 65.6649 68.2677Z" fill="url(#paint21_linear)"/>
<path d="M87.1942 65.9533C88.9304 66.995 88.9304 68.4997 87.1942 69.5415C85.458 70.5832 82.68 70.5832 80.9438 69.5415C79.2075 68.4997 79.2075 66.995 80.9438 65.9533C82.68 65.0273 85.458 65.0273 87.1942 65.9533Z" fill="url(#paint22_linear)"/>
<defs>
<linearGradient id="paint0_linear" x1="6.12993" y1="24.3027" x2="40.4692" y2="18.4894" gradientUnits="userSpaceOnUse">
<stop offset="2.2e-07" stop-color="#5963D8"/>
<stop offset="1" stop-color="#2D1D78"/>
</linearGradient>
<linearGradient id="paint1_linear" x1="6.79822" y1="18.743" x2="35.6464" y2="14.0081" gradientUnits="userSpaceOnUse">
<stop offset="2.2e-07" stop-color="#5963D8"/>
<stop offset="1" stop-color="#2D1D78"/>
</linearGradient>
<linearGradient id="paint2_linear" x1="45.233" y1="22.3776" x2="44.2867" y2="11.9676" gradientUnits="userSpaceOnUse">
<stop stop-color="#9C74FF"/>
<stop offset="1" stop-color="#FFF6FF"/>
</linearGradient>
<linearGradient id="paint3_linear" x1="46.3247" y1="17.0718" x2="56.5098" y2="15.3371" gradientUnits="userSpaceOnUse">
<stop offset="2.2e-07" stop-color="#5963D8"/>
<stop offset="1" stop-color="#2D1D78"/>
</linearGradient>
<linearGradient id="paint4_linear" x1="68.1999" y1="20.29" x2="67.2536" y2="9.88003" gradientUnits="userSpaceOnUse">
<stop stop-color="#9C74FF"/>
<stop offset="1" stop-color="#FFF6FF"/>
</linearGradient>
<linearGradient id="paint5_linear" x1="78.5589" y1="14.842" x2="84.4216" y2="14.0238" gradientUnits="userSpaceOnUse">
<stop offset="2.2e-07" stop-color="#5963D8"/>
<stop offset="1" stop-color="#2D1D78"/>
</linearGradient>
<linearGradient id="paint6_linear" x1="85.4448" y1="18.7229" x2="84.4985" y2="8.31286" gradientUnits="userSpaceOnUse">
<stop stop-color="#9C74FF"/>
<stop offset="1" stop-color="#FFF6FF"/>
</linearGradient>
<linearGradient id="paint7_linear" x1="84.4103" y1="14.365" x2="88.6607" y2="13.7783" gradientUnits="userSpaceOnUse">
<stop offset="2.2e-07" stop-color="#5963D8"/>
<stop offset="1" stop-color="#2D1D78"/>
</linearGradient>
<linearGradient id="paint8_linear" x1="89.5316" y1="18.3511" x2="88.5852" y2="7.94124" gradientUnits="userSpaceOnUse">
<stop stop-color="#9C74FF"/>
<stop offset="1" stop-color="#FFF6FF"/>
</linearGradient>
<linearGradient id="paint9_linear" x1="61.4404" y1="16.4462" x2="65.4085" y2="16.1634" gradientUnits="userSpaceOnUse">
<stop offset="2.2e-07" stop-color="#5963D8"/>
<stop offset="1" stop-color="#2D1D78"/>
</linearGradient>
<linearGradient id="paint10_linear" x1="34.1195" y1="24.2276" x2="15.0136" y2="12.1588" gradientUnits="userSpaceOnUse">
<stop stop-color="#9C74FF"/>
<stop offset="1" stop-color="#FFF6FF"/>
</linearGradient>
<linearGradient id="paint11_linear" x1="50.3151" y1="43.4721" x2="12.596" y2="5.3473" gradientUnits="userSpaceOnUse">
<stop stop-color="#AAA8F6"/>
<stop offset="1" stop-color="#D0CFF8"/>
</linearGradient>
<linearGradient id="paint12_linear" x1="32.6019" y1="31.978" x2="32.6019" y2="58.4553" gradientUnits="userSpaceOnUse">
<stop stop-color="#B6B9FD"/>
<stop offset="1" stop-color="#5862D7"/>
</linearGradient>
<linearGradient id="paint13_linear" x1="41.5377" y1="50.7183" x2="41.5377" y2="68.1151" gradientUnits="userSpaceOnUse">
<stop stop-color="#B6B9FD"/>
<stop offset="1" stop-color="#5862D7"/>
</linearGradient>
<linearGradient id="paint14_linear" x1="33.6168" y1="40.0923" x2="33.6168" y2="61.4497" gradientUnits="userSpaceOnUse">
<stop stop-color="#B6B9FD"/>
<stop offset="1" stop-color="#5862D7"/>
</linearGradient>
<linearGradient id="paint15_linear" x1="41.1469" y1="40.6719" x2="41.1469" y2="64.6375" gradientUnits="userSpaceOnUse">
<stop stop-color="#B6B9FD"/>
<stop offset="1" stop-color="#5862D7"/>
</linearGradient>
<linearGradient id="paint16_linear" x1="39.7024" y1="27.9062" x2="39.7024" y2="73.9553" gradientUnits="userSpaceOnUse">
<stop stop-color="#B6B9FD"/>
<stop offset="1" stop-color="#5862D7"/>
</linearGradient>
<linearGradient id="paint17_linear" x1="62.7712" y1="54.0303" x2="62.7712" y2="87.8288" gradientUnits="userSpaceOnUse">
<stop stop-color="#B6B9FD"/>
<stop offset="1" stop-color="#5862D7"/>
</linearGradient>
<linearGradient id="paint18_linear" x1="84.9373" y1="50.0952" x2="84.9373" y2="54.9566" gradientUnits="userSpaceOnUse">
<stop stop-color="#B6B9FD"/>
<stop offset="1" stop-color="#5862D7"/>
</linearGradient>
<linearGradient id="paint19_linear" x1="39.9684" y1="83.46" x2="39.9684" y2="88.6108" gradientUnits="userSpaceOnUse">
<stop stop-color="#B6B9FD"/>
<stop offset="1" stop-color="#5862D7"/>
</linearGradient>
<linearGradient id="paint20_linear" x1="61.8444" y1="84.8486" x2="61.8444" y2="89.9994" gradientUnits="userSpaceOnUse">
<stop stop-color="#B6B9FD"/>
<stop offset="1" stop-color="#5862D7"/>
</linearGradient>
<linearGradient id="paint21_linear" x1="62.5397" y1="67.5732" x2="62.5397" y2="72.6372" gradientUnits="userSpaceOnUse">
<stop stop-color="#B6B9FD"/>
<stop offset="1" stop-color="#5862D7"/>
</linearGradient>
<linearGradient id="paint22_linear" x1="84.069" y1="65.2588" x2="84.069" y2="70.3228" gradientUnits="userSpaceOnUse">
<stop stop-color="#B6B9FD"/>
<stop offset="1" stop-color="#5862D7"/>
</linearGradient>
</defs>
</svg>
