<svg width="135" height="105" viewBox="0 0 135 105" fill="none" xmlns="http://www.w3.org/2000/svg">
<path d="M62.2566 12.1052L58.1311 6.10449L55.5057 7.85471H55.3807L57.631 15.6057L56.7559 16.2308L56.6309 20.7313L49.63 31.3577L37.0034 42.234L26.002 47.4847L11.5002 46.2345C11.3752 45.9845 11.2502 45.6095 11.1251 45.3594L4.87435 42.234V42.3591L2.24902 44.2343L6.87461 50.9851C6.87461 51.1102 6.99962 51.1102 6.99962 51.2352L7.49968 51.9853C10.5001 55.4857 15.7507 57.486 22.7516 56.8609C38.1285 55.8608 55.8808 43.7342 62.5066 29.9825C65.507 23.6067 65.757 17.981 63.5067 13.9805C63.1317 13.2304 62.6316 12.6053 62.2566 12.1052Z" fill="url(#paint0_linear)"/>
<path d="M4.8742 43.4843C6.87445 44.2344 9.24975 44.9844 11.25 45.7345C9.99984 42.4841 10.2499 38.3586 12.5002 33.733C17.8758 22.6066 32.2526 12.7304 44.6292 11.8553C49.7548 11.4802 53.6303 12.6054 56.1307 14.9807L55.8806 7.97979C55.2555 7.72976 54.6305 7.60474 54.1304 7.47973C55.0055 7.35471 55.6306 7.2297 55.8806 7.10468C54.3804 6.85465 40.2536 1.729 40.2536 1.729L21.2513 9.10493L7.62454 21.6065L3.49902 36.3584L4.99921 39.9838L5.37426 39.6088C4.99921 40.8589 4.8742 42.2341 4.8742 43.4843Z" fill="url(#paint1_linear)"/>
<path d="M69.135 30.7313L68.2599 20.48L61.134 20.73H61.009C60.2589 20.855 59.5088 21.3551 59.0087 22.3552C58.0086 24.4805 58.2586 27.7309 59.5088 29.6061C60.1339 30.4812 60.7589 30.8563 61.384 30.9813C61.509 30.9813 61.6341 30.9813 61.7591 30.9813L69.135 30.7313Z" fill="url(#paint2_linear)"/>
<path d="M68.2609 20.4804C67.5108 20.6054 66.8857 21.1055 66.3857 22.1056C65.3856 24.2309 65.6356 27.4813 66.8857 29.3565C67.5108 30.3566 68.3859 30.7317 69.136 30.7317L84.3879 32.2319L83.5128 17.23L68.2609 20.4804Z" fill="url(#paint3_linear)"/>
<path d="M111.014 16.9795C110.889 16.9795 110.764 16.9795 110.639 16.9795L83.511 17.2295C82.3859 17.2295 81.2607 18.1046 80.5106 19.6048C79.0105 22.6052 79.3855 27.3558 81.2607 30.2312C82.1359 31.6063 83.261 32.2314 84.3861 32.2314C84.6362 32.2314 84.7612 32.2314 85.0112 32.1064L111.64 28.3559C111.765 28.3559 111.89 28.3559 112.015 28.3559L119.641 27.2308L118.64 16.9795H111.014Z" fill="url(#paint4_linear)"/>
<path d="M125.768 16.605L118.892 16.855H118.767C118.017 16.98 117.267 17.4801 116.767 18.4802C115.766 20.6055 116.016 23.8559 117.267 25.7311C118.017 26.7313 118.892 27.2313 119.642 26.9813L126.768 26.7313L125.768 16.605Z" fill="url(#paint5_linear)"/>
<path d="M128.266 17.9807C129.516 19.8559 129.766 23.1064 128.766 25.2316C127.766 27.3569 125.891 27.4819 124.641 25.6067C123.39 23.7314 123.14 20.481 124.141 18.3558C125.016 16.2305 126.891 15.9805 128.266 17.9807Z" fill="url(#paint6_linear)"/>
<path d="M132.267 17.6045L127.267 17.7295H127.142C126.642 17.7295 126.141 18.2296 125.766 18.9797C125.016 20.4799 125.266 22.8552 126.141 24.2303C126.642 24.9804 127.267 25.3555 127.892 25.2305L133.017 25.1054L132.267 17.6045Z" fill="url(#paint7_linear)"/>
<path d="M134.144 18.6053C135.144 19.9805 135.269 22.3558 134.519 23.8559C133.769 25.3561 132.393 25.4812 131.518 24.106C130.518 22.7308 130.393 20.3555 131.143 18.8553C131.768 17.3551 133.144 17.2301 134.144 18.6053Z" fill="url(#paint8_linear)"/>
<path d="M93.6378 28.731C91.8876 26.2306 91.6376 21.9801 92.8877 19.2298C93.5128 17.8546 94.5129 17.1045 95.5131 17.1045H93.2628C92.1376 17.1045 91.1375 17.8546 90.3874 19.3548C89.0122 22.1051 89.3873 26.4807 91.1375 28.981C92.0126 30.3562 93.1378 30.8562 94.1379 30.7312L96.6382 30.3562C95.6381 30.6062 94.5129 30.1061 93.6378 28.731Z" fill="url(#paint9_linear)"/>
<path opacity="0.8" d="M41.6297 8.72952C53.6312 7.85441 59.0069 15.8554 53.8812 26.6068C48.6306 37.3581 34.7538 46.8593 22.8773 47.8594C10.8758 48.8596 5.37515 40.7335 10.6258 29.9822C15.7515 19.2308 29.7532 9.72965 41.6297 8.72952Z" fill="url(#paint10_linear)"/>
<path d="M2.49971 27.1066C-4.12613 40.8584 2.87476 51.1097 18.1267 49.9845C33.3786 48.7344 51.0058 36.7328 57.6316 22.8561C64.2575 9.10437 57.2566 -1.14692 42.1297 0.103237C26.8778 1.22838 9.12554 13.3549 2.49971 27.1066ZM52.506 23.3562C47.1303 34.4826 32.7535 44.3588 20.377 45.2339C8.0004 46.109 2.37469 37.858 7.75037 26.7316C13.126 15.6052 27.5029 5.72894 39.8794 4.85383C52.131 3.85371 57.8817 12.1047 52.506 23.3562Z" fill="url(#paint11_linear)"/>
<path opacity="0.5" d="M25.2538 21.7307C29.5043 21.3556 31.5046 24.231 29.6293 28.1065C27.7541 31.9819 22.8785 35.3574 18.5029 35.7324C14.2524 36.1075 12.2521 33.2321 14.1274 29.3566C16.0026 25.4811 21.0032 22.1057 25.2538 21.7307Z" fill="#FDFEFF"/>
<path d="M57.0998 53.0998L13.2998 78.3998C12.5998 78.7998 11.3998 78.6998 10.5998 78.2998C9.79975 77.7998 9.69975 77.1998 10.3998 76.7998L54.1998 51.4998C54.8998 51.0998 56.0998 51.1998 56.8998 51.5998C57.6998 51.9998 57.7998 52.6998 57.0998 53.0998Z" fill="url(#paint12_linear)"/>
<path d="M58.2001 72.4997L30.7001 88.3997C30.0001 88.7997 28.8001 88.6997 28.0001 88.2997C27.2001 87.7997 27.1001 87.1997 27.8001 86.7997L55.3001 70.8997C56.0001 70.4997 57.2001 70.5997 58.0001 70.9997C58.8001 71.3997 58.9001 72.0997 58.2001 72.4997Z" fill="url(#paint13_linear)"/>
<path d="M53.5994 61.4997L18.8994 81.4997C18.1994 81.8997 16.9994 81.7997 16.1994 81.3997C15.3994 80.8997 15.2994 80.2997 15.9994 79.8997L50.6994 59.8997C51.3994 59.4997 52.5994 59.5997 53.3994 59.9997C54.1994 60.4997 54.2994 61.0997 53.5994 61.4997Z" fill="url(#paint14_linear)"/>
<path d="M63.6994 62.0998L24.3994 84.7998C23.6994 85.1998 22.4994 85.0998 21.6994 84.6998C20.8994 84.1998 20.7994 83.5998 21.4994 83.1998L60.6994 60.4998C61.3994 60.0998 62.5994 60.1998 63.3994 60.5998C64.2994 60.9998 64.3994 61.6998 63.6994 62.0998Z" fill="url(#paint15_linear)"/>
<path d="M25.2 94.6999C23.3 94.6999 21.3 94.1999 19.8 93.2999L2.5 83.2999C0.9 82.4999 0 81.2999 0 79.9999C0 78.8999 0.6 77.9999 1.8 77.2999L52.7 47.9999C55.2 46.5999 59.5 46.6999 62.4 48.3999L79.7 58.3999C81.3 59.2999 82.2 60.4999 82.2 61.7999C82.2 62.8999 81.6 63.7999 80.4 64.4999L29.4 93.7999C28.3 94.3999 26.7 94.6999 25.2 94.6999ZM56.9 47.7999C55.5 47.7999 54.1 48.0999 53.1 48.6999L2.2 78.0999C1.3 78.5999 0.8 79.2998 0.8 80.0998C0.8 80.9998 1.5 81.9999 2.9 82.7999L20.2 92.7999C22.8 94.2999 26.8 94.4999 29 93.1999L79.9 63.7999C80.8 63.2999 81.3 62.5999 81.3 61.7999C81.3 60.8999 80.6 59.8999 79.2 59.0999L62 49.0999C60.5 48.1999 58.7 47.7999 56.9 47.7999Z" fill="url(#paint16_linear)"/>
<path d="M69.3004 102.6L49.9004 101.4L50.0004 100.7L68.2004 101.9L68.8004 86.9999L87.4004 84.9999L88.2004 73.3999H89.3004L88.5004 85.5999L70.0004 87.5999L69.3004 102.6Z" fill="url(#paint17_linear)"/>
<path d="M92.9006 74.2L89.0006 70L84.6006 74L92.9006 74.2Z" fill="url(#paint18_linear)"/>
<path d="M52.6002 99.5002C54.1002 100.4 54.1002 101.7 52.6002 102.6C51.1002 103.5 48.7002 103.5 47.2002 102.6C45.7002 101.7 45.7002 100.4 47.2002 99.5002C48.8002 98.6002 51.2002 98.6002 52.6002 99.5002Z" fill="url(#paint19_linear)"/>
<path d="M71.5006 100.7C73.0006 101.6 73.0006 102.9 71.5006 103.8C70.0006 104.7 67.6006 104.7 66.1006 103.8C64.6006 102.9 64.6006 101.6 66.1006 100.7C67.6006 99.7999 70.0006 99.7999 71.5006 100.7Z" fill="url(#paint20_linear)"/>
<path d="M72.1002 85.7001C73.6002 86.6001 73.6002 87.9001 72.1002 88.8001C70.6002 89.7001 68.2002 89.7001 66.7002 88.8001C65.2002 87.9001 65.2002 86.6001 66.7002 85.7001C68.2002 84.9001 70.6002 84.9001 72.1002 85.7001Z" fill="url(#paint21_linear)"/>
<path d="M90.6998 83.7001C92.1998 84.6001 92.1998 85.9001 90.6998 86.8001C89.1998 87.7001 86.7998 87.7001 85.2998 86.8001C83.7998 85.9001 83.7998 84.6001 85.2998 83.7001C86.7998 82.9001 89.1998 82.9001 90.6998 83.7001Z" fill="url(#paint22_linear)"/>
<defs>
<linearGradient id="paint0_linear" x1="3.52856" y1="37.8597" x2="57.0247" y2="28.8034" gradientUnits="userSpaceOnUse">
<stop offset="2.2e-07" stop-color="#5963D8"/>
<stop offset="1" stop-color="#2D1D78"/>
</linearGradient>
<linearGradient id="paint1_linear" x1="4.57216" y1="29.1992" x2="49.514" y2="21.8229" gradientUnits="userSpaceOnUse">
<stop offset="2.2e-07" stop-color="#5963D8"/>
<stop offset="1" stop-color="#2D1D78"/>
</linearGradient>
<linearGradient id="paint2_linear" x1="64.4475" y1="34.8617" x2="62.9732" y2="18.6442" gradientUnits="userSpaceOnUse">
<stop stop-color="#9C74FF"/>
<stop offset="1" stop-color="#FFF6FF"/>
</linearGradient>
<linearGradient id="paint3_linear" x1="66.1482" y1="26.5948" x2="82.0152" y2="23.8923" gradientUnits="userSpaceOnUse">
<stop offset="2.2e-07" stop-color="#5963D8"/>
<stop offset="1" stop-color="#2D1D78"/>
</linearGradient>
<linearGradient id="paint4_linear" x1="100.228" y1="31.6088" x2="98.7536" y2="15.3914" gradientUnits="userSpaceOnUse">
<stop stop-color="#9C74FF"/>
<stop offset="1" stop-color="#FFF6FF"/>
</linearGradient>
<linearGradient id="paint5_linear" x1="116.366" y1="23.1221" x2="125.499" y2="21.8473" gradientUnits="userSpaceOnUse">
<stop offset="2.2e-07" stop-color="#5963D8"/>
<stop offset="1" stop-color="#2D1D78"/>
</linearGradient>
<linearGradient id="paint6_linear" x1="127.092" y1="29.1676" x2="125.617" y2="12.9502" gradientUnits="userSpaceOnUse">
<stop stop-color="#9C74FF"/>
<stop offset="1" stop-color="#FFF6FF"/>
</linearGradient>
<linearGradient id="paint7_linear" x1="125.479" y1="22.3797" x2="132.101" y2="21.4657" gradientUnits="userSpaceOnUse">
<stop offset="2.2e-07" stop-color="#5963D8"/>
<stop offset="1" stop-color="#2D1D78"/>
</linearGradient>
<linearGradient id="paint8_linear" x1="133.459" y1="28.5884" x2="131.985" y2="12.3711" gradientUnits="userSpaceOnUse">
<stop stop-color="#9C74FF"/>
<stop offset="1" stop-color="#FFF6FF"/>
</linearGradient>
<linearGradient id="paint9_linear" x1="89.6972" y1="25.6224" x2="95.879" y2="25.1819" gradientUnits="userSpaceOnUse">
<stop offset="2.2e-07" stop-color="#5963D8"/>
<stop offset="1" stop-color="#2D1D78"/>
</linearGradient>
<linearGradient id="paint10_linear" x1="47.1343" y1="37.7434" x2="17.3698" y2="18.9418" gradientUnits="userSpaceOnUse">
<stop stop-color="#9C74FF"/>
<stop offset="1" stop-color="#FFF6FF"/>
</linearGradient>
<linearGradient id="paint11_linear" x1="72.366" y1="67.7239" x2="13.6045" y2="8.3304" gradientUnits="userSpaceOnUse">
<stop stop-color="#AAA8F6"/>
<stop offset="1" stop-color="#D0CFF8"/>
</linearGradient>
<linearGradient id="paint12_linear" x1="33.7498" y1="51.2451" x2="33.7498" y2="78.6544" gradientUnits="userSpaceOnUse">
<stop stop-color="#B6B9FD"/>
<stop offset="1" stop-color="#5862D7"/>
</linearGradient>
<linearGradient id="paint13_linear" x1="43.0001" y1="70.645" x2="43.0001" y2="88.6543" gradientUnits="userSpaceOnUse">
<stop stop-color="#B6B9FD"/>
<stop offset="1" stop-color="#5862D7"/>
</linearGradient>
<linearGradient id="paint14_linear" x1="34.7994" y1="59.645" x2="34.7994" y2="81.7543" gradientUnits="userSpaceOnUse">
<stop stop-color="#B6B9FD"/>
<stop offset="1" stop-color="#5862D7"/>
</linearGradient>
<linearGradient id="paint15_linear" x1="42.595" y1="60.2451" x2="42.595" y2="85.0544" gradientUnits="userSpaceOnUse">
<stop stop-color="#B6B9FD"/>
<stop offset="1" stop-color="#5862D7"/>
</linearGradient>
<linearGradient id="paint16_linear" x1="41.1" y1="47.0298" x2="41.1" y2="94.6999" gradientUnits="userSpaceOnUse">
<stop stop-color="#B6B9FD"/>
<stop offset="1" stop-color="#5862D7"/>
</linearGradient>
<linearGradient id="paint17_linear" x1="69.6004" y1="73.3999" x2="69.6004" y2="102.6" gradientUnits="userSpaceOnUse">
<stop stop-color="#B6B9FD"/>
<stop offset="1" stop-color="#5862D7"/>
</linearGradient>
<linearGradient id="paint18_linear" x1="88.7506" y1="70" x2="88.7506" y2="74.2" gradientUnits="userSpaceOnUse">
<stop stop-color="#B6B9FD"/>
<stop offset="1" stop-color="#5862D7"/>
</linearGradient>
<linearGradient id="paint19_linear" x1="49.9002" y1="98.8252" x2="49.9002" y2="103.275" gradientUnits="userSpaceOnUse">
<stop stop-color="#B6B9FD"/>
<stop offset="1" stop-color="#5862D7"/>
</linearGradient>
<linearGradient id="paint20_linear" x1="68.8006" y1="100.025" x2="68.8006" y2="104.475" gradientUnits="userSpaceOnUse">
<stop stop-color="#B6B9FD"/>
<stop offset="1" stop-color="#5862D7"/>
</linearGradient>
<linearGradient id="paint21_linear" x1="69.4002" y1="85.1001" x2="69.4002" y2="89.4751" gradientUnits="userSpaceOnUse">
<stop stop-color="#B6B9FD"/>
<stop offset="1" stop-color="#5862D7"/>
</linearGradient>
<linearGradient id="paint22_linear" x1="87.9998" y1="83.1001" x2="87.9998" y2="87.4751" gradientUnits="userSpaceOnUse">
<stop stop-color="#B6B9FD"/>
<stop offset="1" stop-color="#5862D7"/>
</linearGradient>
</defs>
</svg>
