<svg width="387" height="338" viewBox="0 0 387 338" fill="none" xmlns="http://www.w3.org/2000/svg">
<g clip-path="url(#clip0)">
<path opacity="0.15" d="M196.499 307.1C274.261 307.1 337.299 244.062 337.299 166.3C337.299 88.5383 274.261 25.5 196.499 25.5C118.738 25.5 55.6992 88.5383 55.6992 166.3C55.6992 244.062 118.738 307.1 196.499 307.1Z" fill="#A0A0A0"/>
<path d="M82 163.7C82 227 133.5 278.5 196.8 278.5C260.1 278.5 311.6 227 311.6 163.7C311.6 100.4 260.1 48.9004 196.8 48.9004C133.5 48.9004 82 100.4 82 163.7ZM289 222.9H242.2C246.8 206 249.4 186.8 249.6 166.6H306.4C305.8 187.3 299.5 206.6 289 222.9ZM158.5 99.2004C160.1 94.3004 161.8 89.7004 163.7 85.4004C171.9 67.0004 182.4 56.1004 193.5 54.4004V99.2004H158.5ZM193.6 104.4V161.4H149.3C149.5 140.9 152.1 121.3 156.9 104.4H193.6ZM198.8 54.2004C210.4 55.3004 221.3 66.3004 229.9 85.4004C231.8 89.7004 233.6 94.3004 235.1 99.2004H198.8V54.2004ZM236.7 104.4C241.5 121.3 244.1 140.9 244.3 161.4H198.8V104.4H236.7ZM242.1 104.4H289C299.6 120.9 306 140.4 306.4 161.4H249.6C249.4 141 246.8 121.5 242.1 104.4ZM236.7 222.9H198.8V166.6H244.3C244.1 186.9 241.4 206.2 236.7 222.9ZM235.1 228.2C233.5 233.1 231.8 237.7 229.9 242C221.4 261.1 210.4 272.1 198.8 273.2V228.2H235.1ZM193.6 273C182.5 271.2 172 260.4 163.8 242C161.9 237.7 160.1 233.1 158.6 228.2H193.7V273H193.6ZM157 222.9C152.3 206.2 149.6 186.9 149.4 166.6H193.7V222.9H157V222.9ZM151.5 222.9H104.7C94.2 206.6 87.9 187.3 87.3 166.6H144.1C144.3 186.8 146.9 206.1 151.5 222.9ZM87.3 161.4C87.7 140.5 94.1 120.9 104.7 104.4H151.5C146.8 121.4 144.3 141 144.1 161.4H87.3ZM178.7 55.6004C171.3 61.4004 164.6 70.7004 158.9 83.3004C156.7 88.2004 154.7 93.6004 153 99.2004H108.3C124.9 76.5004 149.9 60.4004 178.7 55.6004ZM285.4 99.2004H240.7C239 93.6004 237 88.2004 234.8 83.3004C229.2 70.8004 222.5 61.4004 215 55.6004C243.7 60.4004 268.8 76.5004 285.4 99.2004ZM214.9 271.7C222.3 265.9 229 256.6 234.7 244C236.9 239.1 238.9 233.7 240.6 228.1H285.3C268.8 250.8 243.7 266.9 214.9 271.7ZM108.3 228.2H153C154.7 233.8 156.7 239.2 158.9 244.1C164.5 256.6 171.2 266 178.7 271.8C149.9 266.9 124.9 250.8 108.3 228.2Z" fill="white"/>
<path d="M321.2 72.8994C320.8 72.8994 320.5 72.6994 320.3 72.3994C319.8 71.6994 319.2 70.9994 318.7 70.2994C318.3 69.7994 318.4 68.9994 318.9 68.5994C319.4 68.1994 320.2 68.2994 320.6 68.7994C321.1 69.4994 321.7 70.1994 322.2 70.8994C322.6 71.3994 322.5 72.1994 322 72.5994C321.7 72.8994 321.4 72.8994 321.2 72.8994Z" fill="#2B2C31"/>
<path d="M316.2 66.7C315.9 66.7 315.5 66.6 315.3 66.3C314.2 65 313 63.6 311.8 62.3C311.4 61.8 311.4 61.1 311.9 60.6C312.4 60.2 313.1 60.2 313.6 60.7C314.8 62 316 63.4 317.1 64.7C317.5 65.2 317.5 65.9 317 66.4C316.7 66.6 316.5 66.7 316.2 66.7ZM309 58.8C308.7 58.8 308.4 58.7 308.2 58.4C307 57.1 305.7 55.9 304.5 54.7C304 54.2 304 53.5 304.5 53C305 52.5 305.7 52.5 306.2 53C307.5 54.2 308.8 55.5 310 56.8C310.5 57.3 310.4 58 310 58.5C309.6 58.7 309.3 58.8 309 58.8Z" fill="#2B2C31"/>
<path d="M78.0007 67.4996C77.7007 67.4996 77.5007 67.3996 77.2007 67.1996C76.7007 66.7996 76.6007 65.9996 77.0007 65.4996C78.1007 64.0996 79.3007 62.7996 80.5007 61.3996C80.9007 60.8996 81.7007 60.8996 82.2007 61.2996C82.7007 61.6996 82.7007 62.4996 82.3007 62.9996C81.1007 64.2996 80.0007 65.6996 78.9007 66.9996C78.6007 67.3996 78.3007 67.4996 78.0007 67.4996ZM85.0007 59.5996C84.7007 59.5996 84.4007 59.4996 84.2007 59.2996C83.7007 58.7996 83.7007 58.0996 84.2007 57.5996C85.4007 56.2996 86.7007 54.9996 88.0007 53.7996C88.5007 53.2996 89.2007 53.3996 89.7007 53.7996C90.2007 54.2996 90.1007 54.9996 89.7007 55.4996C88.4007 56.6996 87.2007 57.9996 86.0007 59.2996C85.7007 59.4996 85.3007 59.5996 85.0007 59.5996ZM92.6007 52.0996C92.3007 52.0996 92.0007 51.9996 91.7007 51.6996C91.3007 51.1996 91.3007 50.4996 91.8007 49.9996C93.1007 48.7996 94.5007 47.5996 95.8007 46.3996C96.3007 45.9996 97.0007 45.9996 97.5007 46.4996C97.9007 46.9996 97.9007 47.6996 97.4007 48.1996C96.1007 49.2996 94.7007 50.4996 93.4007 51.6996C93.2007 51.9996 92.9007 52.0996 92.6007 52.0996ZM301.401 51.3996C301.101 51.3996 300.801 51.2996 300.601 51.0996C299.301 49.8996 298.001 48.7996 296.601 47.5996C296.101 47.1996 296.001 46.3996 296.501 45.8996C296.901 45.3996 297.701 45.2996 298.201 45.7996C299.601 46.8996 300.901 48.0996 302.201 49.2996C302.701 49.6996 302.701 50.4996 302.301 50.9996C302.001 51.2996 301.701 51.3996 301.401 51.3996ZM100.701 45.1996C100.401 45.1996 100.001 44.9996 99.8007 44.7996C99.4007 44.2996 99.5007 43.4996 100.001 43.0996C101.401 41.9996 102.801 40.8996 104.301 39.7996C104.801 39.3996 105.601 39.4996 106.001 39.9996C106.401 40.4996 106.301 41.2996 105.801 41.6996C104.401 42.6996 103.001 43.7996 101.601 44.8996C101.301 45.0996 101.001 45.1996 100.701 45.1996ZM293.201 44.5996C292.901 44.5996 292.701 44.4996 292.501 44.2996C291.101 43.1996 289.701 42.0996 288.301 41.0996C287.801 40.6996 287.701 39.9996 288.001 39.3996C288.401 38.8996 289.101 38.7996 289.601 39.0996C291.001 40.0996 292.501 41.1996 293.901 42.2996C294.401 42.6996 294.501 43.3996 294.101 43.9996C293.901 44.3996 293.601 44.5996 293.201 44.5996ZM109.301 38.8996C108.901 38.8996 108.601 38.6996 108.301 38.3996C107.901 37.8996 108.101 37.0996 108.601 36.7996C110.101 35.7996 111.601 34.7996 113.101 33.7996C113.601 33.3996 114.401 33.5996 114.701 34.1996C115.101 34.6996 114.901 35.4996 114.301 35.7996C112.801 36.6996 111.301 37.6996 109.901 38.6996C109.801 38.7996 109.501 38.8996 109.301 38.8996ZM284.601 38.2996C284.401 38.2996 284.101 38.1996 283.901 38.0996C282.501 37.0996 281.001 36.0996 279.501 35.1996C278.901 34.8996 278.801 34.0996 279.101 33.5996C279.401 32.9996 280.201 32.8996 280.701 33.1996C282.201 34.1996 283.701 35.0996 285.201 36.0996C285.701 36.4996 285.901 37.1996 285.501 37.6996C285.401 38.0996 285.001 38.2996 284.601 38.2996ZM118.301 33.0996C117.901 33.0996 117.501 32.8996 117.301 32.4996C117.001 31.8996 117.201 31.1996 117.701 30.8996C119.201 29.9996 120.801 29.0996 122.401 28.1996C123.001 27.8996 123.701 28.0996 124.001 28.6996C124.301 29.2996 124.101 29.9996 123.501 30.2996C122.001 31.0996 120.401 31.9996 118.901 32.8996C118.701 33.0996 118.501 33.0996 118.301 33.0996ZM275.601 32.5996C275.401 32.5996 275.201 32.4996 275.001 32.3996C273.501 31.4996 271.901 30.5996 270.401 29.7996C269.801 29.4996 269.601 28.7996 269.901 28.1996C270.201 27.5996 270.901 27.3996 271.501 27.6996C273.101 28.4996 274.601 29.3996 276.201 30.2996C276.801 30.5996 277.001 31.3996 276.601 31.8996C276.401 32.3996 276.001 32.5996 275.601 32.5996ZM127.601 27.9996C127.201 27.9996 126.801 27.7996 126.501 27.2996C126.201 26.6996 126.401 25.9996 127.001 25.6996C128.601 24.8996 130.201 24.0996 131.801 23.3996C132.401 23.0996 133.101 23.3996 133.401 23.9996C133.701 24.5996 133.401 25.2996 132.801 25.5996C131.201 26.2996 129.601 27.0996 128.001 27.8996C128.001 27.9996 127.801 27.9996 127.601 27.9996ZM266.301 27.5996C266.101 27.5996 265.901 27.5996 265.801 27.4996C264.201 26.6996 262.601 25.9996 261.001 25.1996C260.401 24.8996 260.101 24.1996 260.401 23.5996C260.701 22.9996 261.401 22.6996 262.001 22.9996C263.601 23.6996 265.301 24.4996 266.801 25.2996C267.401 25.5996 267.601 26.2996 267.301 26.8996C267.101 27.2996 266.701 27.5996 266.301 27.5996ZM137.301 23.5996C136.801 23.5996 136.401 23.2996 136.201 22.8996C135.901 22.2996 136.201 21.5996 136.801 21.3996C138.401 20.6996 140.101 19.9996 141.801 19.3996C142.401 19.1996 143.101 19.4996 143.301 20.0996C143.501 20.6996 143.201 21.3996 142.601 21.5996C141.001 22.1996 139.301 22.8996 137.701 23.5996C137.601 23.4996 137.401 23.5996 137.301 23.5996ZM256.601 23.1996C256.401 23.1996 256.301 23.1996 256.101 23.0996C254.501 22.3996 252.801 21.7996 251.201 21.1996C250.601 20.9996 250.301 20.2996 250.501 19.6996C250.701 19.0996 251.401 18.7996 252.001 18.9996C253.701 19.5996 255.301 20.2996 257.001 20.9996C257.601 21.1996 257.901 21.8996 257.601 22.4996C257.501 22.8996 257.001 23.1996 256.601 23.1996ZM147.201 19.7996C146.701 19.7996 146.201 19.4996 146.101 18.9996C145.901 18.3996 146.201 17.6996 146.801 17.4996C148.501 16.8996 150.201 16.3996 151.901 15.8996C152.501 15.6996 153.201 16.0996 153.401 16.6996C153.601 17.2996 153.201 17.9996 152.601 18.1996C150.901 18.6996 149.201 19.2996 147.601 19.7996C147.501 19.7996 147.401 19.7996 147.201 19.7996ZM246.601 19.4996C246.501 19.4996 246.301 19.4996 246.201 19.3996C244.501 18.7996 242.801 18.2996 241.201 17.7996C240.601 17.5996 240.201 16.9996 240.401 16.2996C240.601 15.6996 241.201 15.2996 241.901 15.4996C243.601 15.9996 245.301 16.4996 247.001 17.0996C247.601 17.2996 248.001 17.9996 247.701 18.5996C247.601 19.1996 247.101 19.4996 246.601 19.4996ZM157.401 16.6996C156.901 16.6996 156.401 16.3996 156.301 15.7996C156.101 15.1996 156.501 14.4996 157.101 14.3996C158.801 13.8996 160.601 13.4996 162.301 13.0996C162.901 12.9996 163.601 13.3996 163.701 13.9996C163.801 14.5996 163.401 15.2996 162.801 15.3996C161.101 15.7996 159.401 16.1996 157.701 16.6996C157.601 16.6996 157.501 16.6996 157.401 16.6996ZM236.401 16.3996C236.301 16.3996 236.201 16.3996 236.101 16.3996C234.401 15.9996 232.701 15.4996 231.001 15.1996C230.401 15.0996 230.001 14.3996 230.101 13.7996C230.201 13.1996 230.901 12.7996 231.501 12.8996C233.201 13.2996 235.001 13.6996 236.701 14.1996C237.301 14.3996 237.701 14.9996 237.501 15.5996C237.401 16.0996 236.901 16.3996 236.401 16.3996ZM167.801 14.2996C167.201 14.2996 166.801 13.8996 166.601 13.2996C166.501 12.6996 166.901 11.9996 167.501 11.8996C169.201 11.5996 171.001 11.2996 172.801 10.9996C173.401 10.8996 174.001 11.2996 174.201 11.9996C174.301 12.5996 173.901 13.1996 173.201 13.3996C171.501 13.6996 169.701 13.9996 168.001 14.2996C168.001 14.2996 167.901 14.2996 167.801 14.2996ZM226.001 14.0996C225.901 14.0996 225.901 14.0996 225.801 14.0996C224.101 13.7996 222.301 13.4996 220.601 13.1996C220.001 13.0996 219.501 12.4996 219.601 11.8996C219.701 11.2996 220.301 10.7996 220.901 10.8996C222.701 11.1996 224.401 11.4996 226.201 11.7996C226.801 11.8996 227.301 12.4996 227.101 13.1996C227.101 13.6996 226.601 14.0996 226.001 14.0996ZM178.401 12.6996C177.801 12.6996 177.301 12.2996 177.201 11.6996C177.101 11.0996 177.601 10.4996 178.201 10.3996C179.901 10.1996 181.701 9.99961 183.501 9.79961L183.701 10.9996L183.801 12.1996C182.001 12.3996 180.301 12.4996 178.601 12.7996C178.501 12.6996 178.401 12.6996 178.401 12.6996ZM215.501 12.4996H215.401C213.701 12.2996 211.901 12.0996 210.101 11.9996C209.401 11.8996 209.001 11.3996 209.001 10.6996C209.101 10.0996 209.601 9.59961 210.301 9.59961C212.101 9.69961 213.901 9.89961 215.601 10.0996C216.201 10.1996 216.701 10.7996 216.601 11.3996C216.601 12.0996 216.101 12.4996 215.501 12.4996ZM189.001 11.6996C188.401 11.6996 187.901 11.1996 187.801 10.5996C187.801 9.89961 188.301 9.39961 188.901 9.39961C190.701 9.29961 192.501 9.19961 194.301 9.19961C195.001 9.19961 195.501 9.69961 195.501 10.3996C195.501 11.0996 195.001 11.5996 194.301 11.5996C192.601 11.5996 190.801 11.5996 189.001 11.6996ZM204.901 11.6996C203.101 11.5996 201.301 11.5996 199.601 11.4996C198.901 11.4996 198.401 10.9996 198.401 10.2996C198.401 9.69961 198.901 9.09961 199.601 9.09961C201.401 9.09961 203.201 9.19961 205.001 9.29961C205.701 9.29961 206.201 9.89961 206.101 10.4996C206.101 11.1996 205.501 11.6996 204.901 11.6996Z" fill="#083673"/>
<path d="M73.0003 73.7994C72.8003 73.7994 72.5003 73.6994 72.3003 73.5994C71.8003 73.1994 71.7003 72.4994 72.1003 71.8994C72.6003 71.1994 73.2003 70.4994 73.7003 69.7994C74.1003 69.2994 74.8003 69.1994 75.4003 69.5994C75.9003 69.9994 76.0003 70.6994 75.6003 71.2994C75.1003 71.9994 74.5003 72.6994 74.0003 73.3994C73.7003 73.5994 73.4003 73.7994 73.0003 73.7994Z" fill="#2B2C31"/>
<path d="M103.7 288.599C103.5 288.599 103.2 288.499 103 288.399C102.3 287.899 101.6 287.299 100.9 286.799C100.4 286.399 100.3 285.699 100.7 285.099C101.1 284.599 101.8 284.499 102.4 284.899C103.1 285.399 103.8 285.999 104.5 286.499C105 286.899 105.1 287.599 104.7 288.199C104.4 288.399 104 288.599 103.7 288.599Z" fill="#2B2C31"/>
<path d="M121.8 300.299C121.6 300.299 121.4 300.3 121.2 300.2C119.6 299.3 118 298.4 116.5 297.5C115.9 297.2 115.8 296.399 116.1 295.899C116.4 295.299 117.2 295.2 117.7 295.5C119.2 296.4 120.8 297.3 122.3 298.2C122.9 298.5 123.1 299.199 122.8 299.799C122.6 300.099 122.2 300.299 121.8 300.299ZM112.5 294.7C112.3 294.7 112.1 294.6 111.9 294.5C110.4 293.5 108.9 292.5 107.4 291.5C106.9 291.1 106.7 290.399 107.1 289.899C107.5 289.399 108.2 289.2 108.7 289.6C110.2 290.6 111.7 291.6 113.1 292.6C113.6 293 113.8 293.7 113.5 294.2C113.3 294.6 112.9 294.7 112.5 294.7Z" fill="#2B2C31"/>
<path d="M194.099 319.499C192.299 319.499 190.399 319.399 188.599 319.299C187.899 319.299 187.399 318.699 187.499 318.099C187.499 317.399 188.099 316.899 188.699 316.999C190.499 317.099 192.299 317.199 194.099 317.199C194.799 317.199 195.299 317.699 195.299 318.399C195.199 318.999 194.699 319.499 194.099 319.499ZM199.499 319.499C198.899 319.499 198.299 318.999 198.299 318.299C198.299 317.599 198.799 317.099 199.499 317.099C201.299 317.099 203.099 316.999 204.899 316.899C205.599 316.899 206.099 317.399 206.099 317.999C206.099 318.699 205.599 319.199 204.999 319.199C203.099 319.399 201.299 319.499 199.499 319.499ZM183.299 318.999H183.199C181.399 318.799 179.599 318.699 177.799 318.399C177.199 318.299 176.699 317.699 176.799 317.099C176.899 316.499 177.499 315.999 178.099 316.099C179.899 316.299 181.699 316.499 183.399 316.699C183.999 316.799 184.499 317.299 184.499 317.999C184.399 318.499 183.899 318.999 183.299 318.999ZM210.199 318.999C209.599 318.999 209.099 318.499 208.999 317.899C208.899 317.299 209.399 316.699 210.099 316.599C211.899 316.399 213.699 316.299 215.399 315.999C215.999 315.899 216.599 316.399 216.699 316.999C216.799 317.599 216.299 318.199 215.699 318.299C213.899 318.499 212.099 318.699 210.299 318.899C210.299 318.999 210.299 318.999 210.199 318.999ZM172.599 317.699C172.499 317.699 172.499 317.699 172.399 317.699C170.599 317.399 168.799 317.099 166.999 316.799C166.399 316.699 165.899 316.099 166.099 315.399C166.199 314.799 166.799 314.299 167.499 314.499C169.299 314.799 170.999 315.099 172.799 315.399C173.399 315.499 173.899 316.099 173.799 316.699C173.699 317.299 173.199 317.699 172.599 317.699ZM220.899 317.699C220.299 317.699 219.799 317.299 219.699 316.699C219.599 316.099 219.999 315.499 220.699 315.299C222.399 314.999 224.199 314.699 225.999 314.399C226.599 314.299 227.299 314.699 227.399 315.299C227.499 315.899 227.099 316.599 226.499 316.699C224.699 316.999 222.899 317.399 221.099 317.599C221.099 317.699 220.999 317.699 220.899 317.699ZM161.999 315.599C161.899 315.599 161.799 315.599 161.699 315.599C159.899 315.199 158.199 314.799 156.399 314.299C155.799 314.099 155.399 313.499 155.599 312.899C155.799 312.299 156.399 311.899 156.999 312.099C158.699 312.599 160.499 312.999 162.199 313.399C162.799 313.499 163.199 314.199 163.099 314.799C162.999 315.299 162.499 315.599 161.999 315.599ZM231.499 315.599C230.999 315.599 230.499 315.199 230.299 314.699C230.199 314.099 230.599 313.399 231.199 313.299C232.899 312.899 234.699 312.499 236.399 311.999C236.999 311.799 237.699 312.199 237.799 312.799C237.999 313.399 237.599 314.099 236.999 314.199C235.299 314.699 233.499 315.099 231.699 315.499C231.699 315.599 231.599 315.599 231.499 315.599ZM151.599 312.899C151.499 312.899 151.399 312.899 151.299 312.799C149.599 312.299 147.799 311.699 146.099 311.099C145.499 310.899 145.199 310.199 145.399 309.599C145.599 308.999 146.299 308.699 146.899 308.899C148.599 309.499 150.299 309.999 151.999 310.499C152.599 310.699 152.999 311.299 152.799 311.999C152.499 312.499 152.099 312.899 151.599 312.899ZM241.999 312.799C241.499 312.799 240.999 312.499 240.899 311.999C240.699 311.399 241.099 310.699 241.699 310.499C243.399 309.999 245.099 309.399 246.799 308.899C247.399 308.699 248.099 308.999 248.299 309.599C248.499 310.199 248.199 310.899 247.599 311.099C245.899 311.699 244.099 312.199 242.399 312.799C242.199 312.799 242.099 312.799 241.999 312.799ZM141.299 309.399C141.199 309.399 140.999 309.399 140.899 309.299C139.199 308.699 137.499 307.999 135.899 307.299C135.299 306.999 134.999 306.399 135.299 305.799C135.599 305.199 136.199 304.899 136.799 305.199C138.399 305.899 140.099 306.599 141.799 307.199C142.399 307.399 142.699 308.099 142.499 308.699C142.299 309.099 141.799 309.399 141.299 309.399ZM252.199 309.399C251.699 309.399 251.299 309.099 251.099 308.599C250.899 307.999 251.199 307.299 251.799 307.099C253.499 306.499 255.099 305.799 256.799 305.099C257.399 304.799 258.099 305.099 258.299 305.699C258.599 306.299 258.299 306.999 257.699 307.199C255.999 307.899 254.299 308.599 252.699 309.199C252.499 309.299 252.299 309.399 252.199 309.399ZM131.399 305.199C131.199 305.199 131.099 305.199 130.899 305.099C129.299 304.299 127.599 303.499 125.999 302.699C125.399 302.399 125.199 301.699 125.499 301.099C125.799 300.499 126.499 300.299 127.099 300.599C128.699 301.399 130.299 302.199 131.899 302.899C132.499 303.199 132.699 303.899 132.499 304.499C132.299 304.899 131.799 305.199 131.399 305.199ZM262.099 305.199C261.699 305.199 261.199 304.899 260.999 304.499C260.699 303.899 260.999 303.199 261.599 302.899C263.199 302.099 264.899 301.399 266.399 300.599C266.999 300.299 267.699 300.499 267.999 301.099C268.299 301.699 268.099 302.399 267.499 302.699C265.899 303.499 264.299 304.299 262.599 305.099C262.499 305.099 262.299 305.199 262.099 305.199ZM271.799 300.299C271.399 300.299 270.999 300.099 270.799 299.699C270.499 299.099 270.699 298.399 271.299 298.099C272.899 297.199 274.399 296.299 275.899 295.399C276.499 295.099 277.199 295.199 277.499 295.799C277.799 296.399 277.699 297.099 277.099 297.399C275.599 298.299 273.999 299.199 272.399 300.099C272.099 300.299 271.899 300.299 271.799 300.299Z" fill="#083673"/>
<path d="M280.999 294.799C280.599 294.799 280.199 294.599 279.999 294.299C279.599 293.799 279.799 292.999 280.399 292.699C281.099 292.199 281.899 291.799 282.599 291.299C283.099 290.899 283.899 291.099 284.199 291.599C284.599 292.099 284.399 292.899 283.899 293.199C283.199 293.699 282.399 294.199 281.699 294.699C281.499 294.699 281.199 294.799 280.999 294.799Z" fill="#2B2C31"/>
<path d="M60.4002 82.9994C59.8002 82.9994 59.3002 82.4994 59.2002 81.8994C59.1002 81.2994 59.6002 80.6994 60.3002 80.5994L73.9002 79.3994C74.6002 79.3994 75.1002 79.7994 75.2002 80.4994C75.3002 81.0994 74.8002 81.6994 74.1002 81.7994L60.5002 82.9994C60.5002 82.9994 60.5002 82.9994 60.4002 82.9994Z" fill="#2B2C31"/>
<path d="M67.7995 89.1993C67.1995 89.1993 66.6995 88.6993 66.5995 88.0993L65.3995 74.4993C65.2995 73.8993 65.7995 73.2993 66.4995 73.1993C67.1995 73.0993 67.6995 73.5993 67.7995 74.2993L68.9995 87.8993C69.0995 88.4993 68.5995 89.0993 67.8995 89.1993C67.8995 89.1993 67.8995 89.1993 67.7995 89.1993Z" fill="#2B2C31"/>
<path d="M329.1 87C328.5 87 328 86.5 327.9 85.9L326.7 72.3C326.6 71.7 327.1 71.1 327.8 71C328.5 71 329 71.4 329.1 72.1L330.3 85.7C330.4 86.3 329.9 86.9 329.2 87C329.1 87 329.1 87 329.1 87Z" fill="#2B2C31"/>
<path d="M321.701 80.8002C321.101 80.8002 320.601 80.3002 320.501 79.7002C320.401 79.1002 320.901 78.5002 321.601 78.4002L335.201 77.2002C335.901 77.1002 336.401 77.6002 336.501 78.3002C336.601 78.9002 336.101 79.5002 335.401 79.6002L321.801 80.8002C321.701 80.8002 321.701 80.8002 321.701 80.8002Z" fill="#2B2C31"/>
<path d="M335.213 45.9949C337.689 45.4266 339.236 42.9587 338.667 40.4827C338.099 38.0068 335.631 36.4603 333.155 37.0286C330.679 37.5969 329.133 40.0648 329.701 42.5408C330.269 45.0168 332.737 46.5632 335.213 45.9949Z" fill="#2476A3" fill-opacity="0.57"/>
<path d="M154.284 337.732C155.253 337.509 155.858 336.544 155.636 335.575C155.413 334.606 154.448 334.001 153.479 334.223C152.51 334.446 151.905 335.411 152.127 336.38C152.35 337.349 153.315 337.954 154.284 337.732Z" fill="#EBC267"/>
<path d="M24.4587 99.502C26.5043 99.0325 27.7819 96.9937 27.3125 94.9481C26.843 92.9025 24.8041 91.6248 22.7585 92.0943C20.713 92.5638 19.4353 94.6026 19.9047 96.6482C20.3742 98.6938 22.4131 99.9715 24.4587 99.502Z" fill="#2476A3" fill-opacity="0.57"/>
<path d="M71.243 251.124C74.7417 250.321 76.9269 246.834 76.1239 243.335C75.3208 239.836 71.8336 237.651 68.3349 238.454C64.8362 239.257 62.651 242.744 63.4541 246.243C64.2571 249.742 67.7443 251.927 71.243 251.124Z" fill="#2476A3" fill-opacity="0.57"/>
<path d="M315.9 17.6C315.8 17.6 315.7 17.6 315.6 17.5C315.3 17.3 315.3 17 315.4 16.8L318.7 11.5C318.9 11.3 319.2 11.2 319.4 11.3C319.7 11.5 319.7 11.8 319.6 12L316.3 17.3C316.2 17.5 316 17.6 315.9 17.6Z" fill="#2B2C31"/>
<path d="M320.1 16.6C320 16.6 319.9 16.6 319.8 16.5L314.5 13.2C314.2 13 314.2 12.7 314.3 12.5C314.5 12.3 314.8 12.2 315 12.3L320.3 15.6C320.6 15.8 320.6 16.1 320.5 16.3C320.5 16.5 320.3 16.6 320.1 16.6Z" fill="#2B2C31"/>
<path d="M271.601 327.499C271.501 327.499 271.401 327.499 271.301 327.399C271.001 327.199 271.001 326.899 271.101 326.699L274.401 321.399C274.601 321.099 274.901 321.099 275.101 321.199C275.401 321.399 275.401 321.699 275.301 321.899L272.001 327.199C271.901 327.399 271.801 327.499 271.601 327.499Z" fill="#2B2C31"/>
<path d="M275.901 326.499C275.801 326.499 275.701 326.499 275.601 326.399L270.301 323.099C270.001 322.899 270.001 322.599 270.101 322.399C270.301 322.099 270.601 322.099 270.801 322.199L276.101 325.499C276.401 325.699 276.401 325.999 276.301 326.199C276.201 326.399 276.001 326.499 275.901 326.499Z" fill="#2B2C31"/>
<path d="M230.601 91.7997L222.501 83.6997C221.601 82.7997 221.601 81.3997 222.501 80.5997C223.401 79.6997 224.801 79.6997 225.601 80.5997L230.401 85.3997L241.701 73.1997C242.501 72.2997 243.901 72.1997 244.801 73.0997C245.701 73.8997 245.801 75.2997 244.901 76.1997L230.601 91.7997Z" fill="#2B2C31"/>
<path d="M163 255.6L154.9 247.5C154 246.6 154 245.2 154.9 244.4C155.8 243.5 157.2 243.5 158 244.4L162.8 249.2L174.1 237C174.9 236.1 176.3 236 177.2 236.9C178.1 237.7 178.2 239.1 177.3 240L163 255.6Z" fill="#2B2C31"/>
<path d="M134.157 62.1994C151.114 58.3077 161.706 41.4066 157.814 24.4498C153.922 7.49297 137.021 -3.09841 120.064 0.793294C103.108 4.685 92.5162 21.5861 96.4079 38.5429C100.3 55.4997 117.201 66.0911 134.157 62.1994Z" fill="#E2E9E6"/>
<path d="M127.001 58.8C121.901 58.8 117.001 57.4 112.601 54.6C106.401 50.7 102.101 44.7 100.501 37.6C98.9006 30.5 100.101 23.2 104.001 17C107.901 10.8 113.901 6.49998 121.001 4.89998C128.101 3.29998 135.401 4.49998 141.601 8.39998C147.801 12.3 152.101 18.3 153.701 25.4C155.301 32.5 154.101 39.8 150.201 46C146.301 52.2 140.301 56.5 133.201 58.1C131.101 58.5 129.101 58.8 127.001 58.8ZM127.101 5.99998C125.201 5.99998 123.301 6.19998 121.401 6.59998C107.701 9.69998 99.1006 23.4 102.301 37.1C103.801 43.7 107.801 49.4 113.601 53C119.401 56.6 126.201 57.8 132.801 56.2C146.501 53.1 155.101 39.4 151.901 25.7C149.201 14 138.701 5.99998 127.101 5.99998Z" fill="#FE4350"/>
<path d="M127 49.8992C116.7 49.8992 108.4 41.4992 108.4 31.2992C108.4 21.0992 116.8 12.6992 127 12.6992C137.3 12.6992 145.6 21.0992 145.6 31.2992C145.6 41.4992 137.2 49.8992 127 49.8992ZM121.7 41.9992C121.9 42.4992 122.1 42.9992 122.3 43.3992C123.4 45.7992 124.7 47.3992 126.1 47.8992V41.9992H121.7ZM128 41.9992V47.7992C129.3 47.2992 130.6 45.6992 131.6 43.3992C131.8 42.9992 132 42.4992 132.2 41.9992H128ZM134.2 41.9992C133.9 42.7992 133.7 43.4992 133.4 44.1992C132.8 45.4992 132.2 46.4992 131.5 47.3992C134.7 46.4992 137.5 44.5992 139.7 42.0992H134.2V41.9992ZM114.2 41.9992C116.4 44.5992 119.2 46.3992 122.4 47.2992C121.7 46.3992 121.1 45.3992 120.5 44.0992C120.2 43.3992 119.9 42.6992 119.7 41.8992H114.2V41.9992ZM134.8 40.0992H141.1C142.6 37.6992 143.4 34.9992 143.6 32.1992H135.8C135.7 34.9992 135.4 37.6992 134.8 40.0992ZM128 40.0992H132.8C133.4 37.6992 133.8 34.9992 133.9 32.1992H128V40.0992ZM121.1 40.0992H126.1V32.1992H120.1C120.1 34.9992 120.5 37.6992 121.1 40.0992ZM112.8 40.0992H119.1C118.5 37.6992 118.2 34.9992 118.1 32.1992H110.3C110.5 34.9992 111.3 37.6992 112.8 40.0992ZM135.8 30.2992H143.6C143.4 27.5992 142.6 24.8992 141.1 22.5992H134.8C135.4 24.8992 135.7 27.5992 135.8 30.2992ZM128 30.2992H133.8C133.7 27.5992 133.4 24.8992 132.7 22.5992H128V30.2992ZM120.1 30.2992H126.1V22.5992H121.1C120.5 24.8992 120.1 27.4992 120.1 30.2992ZM110.3 30.2992H118.1C118.2 27.5992 118.5 24.8992 119.1 22.5992H112.8C111.3 24.8992 110.5 27.4992 110.3 30.2992ZM134.2 20.5992H139.7C137.5 17.9992 134.7 16.1992 131.5 15.2992C132.2 16.1992 132.8 17.1992 133.4 18.4992C133.7 19.0992 134 19.7992 134.2 20.5992ZM128 20.5992H132.2C132 20.0992 131.8 19.5992 131.6 19.1992C130.6 16.8992 129.3 15.3992 128 14.7992V20.5992ZM121.7 20.5992H126.1V14.7992C124.7 15.2992 123.4 16.7992 122.3 19.2992C122.1 19.5992 121.9 20.0992 121.7 20.5992ZM114.2 20.5992H119.7C120 19.7992 120.2 19.0992 120.5 18.3992C121.1 17.0992 121.7 16.0992 122.4 15.1992C119.2 16.1992 116.3 17.9992 114.2 20.5992Z" fill="#2B2C31"/>
<path d="M116.065 325.1C133.515 321.142 144.453 303.787 140.495 286.337C136.536 268.887 119.182 257.949 101.731 261.907C84.281 265.865 73.3435 283.22 77.3016 300.671C81.2598 318.121 98.6148 329.058 116.065 325.1Z" fill="#E2E9E6"/>
<path d="M108.902 321.6C103.702 321.6 98.5019 320.1 94.0019 317.3C87.6019 313.3 83.2019 307.1 81.6019 299.7C78.2019 284.6 87.7019 269.5 102.802 266.1C110.102 264.4 117.702 265.7 124.002 269.7C130.402 273.7 134.802 279.9 136.402 287.3C138.102 294.6 136.802 302.2 132.802 308.5C128.802 314.9 122.602 319.3 115.202 320.9C113.102 321.4 111.002 321.6 108.902 321.6ZM109.002 267.2C107.002 267.2 105.102 267.4 103.102 267.9C96.3019 269.5 90.4019 273.6 86.7019 279.5C83.0019 285.4 81.8019 292.5 83.3019 299.3C84.9019 306.1 89.0019 312 94.9019 315.7C100.802 319.4 107.902 320.6 114.702 319.1C121.502 317.5 127.402 313.4 131.102 307.5C134.802 301.6 136.002 294.5 134.502 287.7C132.902 280.9 128.802 275 122.902 271.3C118.702 268.6 113.902 267.2 109.002 267.2Z" fill="#FE4350"/>
<path d="M109.401 309.799C109.001 309.799 108.601 309.599 108.401 309.199L99.5012 294.499C96.8012 289.899 97.5012 284.099 101.201 280.399C105.701 275.899 113.001 275.899 117.501 280.399C121.301 284.199 122.001 289.999 119.201 294.499L110.301 309.199C110.201 309.499 109.801 309.799 109.401 309.799ZM101.501 293.299L109.401 306.299L117.301 293.299C119.501 289.699 118.901 285.099 115.901 282.099C112.301 278.499 106.501 278.499 102.901 282.099C99.9012 285.099 99.3012 289.699 101.501 293.299Z" fill="#2B2C31"/>
<path d="M109.402 295.2C105.702 295.2 102.602 292.2 102.602 288.4C102.602 284.7 105.602 281.6 109.402 281.6C113.102 281.6 116.202 284.6 116.202 288.4C116.102 292.2 113.102 295.2 109.402 295.2ZM109.402 284C107.002 284 105.002 286 105.002 288.4C105.002 290.8 107.002 292.8 109.402 292.8C111.802 292.8 113.802 290.8 113.802 288.4C113.802 286 111.802 284 109.402 284Z" fill="#2B2C31"/>
<path d="M286.9 317.1C309.82 317.1 328.4 298.519 328.4 275.6C328.4 252.68 309.82 234.1 286.9 234.1C263.981 234.1 245.4 252.68 245.4 275.6C245.4 298.519 263.981 317.1 286.9 317.1Z" fill="#E2E9E6"/>
<path d="M286.9 311.6C267.1 311.6 250.9 295.5 250.9 275.6C250.9 255.8 267 239.6 286.9 239.6C306.7 239.6 322.9 255.7 322.9 275.6C322.9 295.5 306.7 311.6 286.9 311.6ZM286.9 242C268.3 242 253.3 257.1 253.3 275.6C253.3 294.2 268.4 309.2 286.9 309.2C305.4 309.2 320.5 294.1 320.5 275.6C320.5 257.1 305.4 242 286.9 242Z" fill="#FE4350"/>
<path d="M311.8 267.099H311.5V264.499C311.5 264.199 311.3 263.999 311 263.999H305.5C305.4 263.999 305.3 263.999 305.3 263.999L288.6 255.399C288.6 255.199 288.6 255.099 288.6 254.899C288.6 253.799 287.8 252.899 286.8 252.599V245.899C286.8 245.599 286.6 245.399 286.3 245.399C286 245.399 285.8 245.599 285.8 245.899V252.599C284.8 252.799 284 253.799 284 254.899C284 255.099 284 255.199 284 255.399L267.4 263.999H262C261.7 263.999 261.5 264.199 261.5 264.499V267.099H261.1C260.8 267.099 260.6 267.299 260.6 267.599V290.399C260.6 290.699 260.8 290.899 261.1 290.899H311.7C312 290.899 312.2 290.699 312.2 290.399V267.599C312.4 267.299 312.1 267.099 311.8 267.099ZM306.1 264.999H310.5V267.099H306.1V264.999ZM286.4 253.599C287.1 253.599 287.7 254.199 287.7 254.899C287.7 255.599 287.1 256.199 286.4 256.199C285.7 256.199 285.1 255.599 285.1 254.899C285.1 254.199 285.7 253.599 286.4 253.599ZM286.4 257.299C287.2 257.299 287.8 256.899 288.3 256.399L305.1 265.099V267.199H268.2V264.899L284.6 256.399C285 256.899 285.6 257.299 286.4 257.299ZM262.7 264.999H267.1V267.099H262.7V264.999ZM311.3 289.899H261.8V268.199H262.2H267.7H305.7H311.2H311.5V289.899H311.3Z" fill="#2B2C31"/>
<path d="M311.8 291.099H261.2C260.8 291.099 260.5 290.799 260.5 290.399V267.599C260.5 267.199 260.8 266.899 261.2 266.899H261.3V264.499C261.3 264.099 261.6 263.799 262 263.799H267.3L283.7 255.299C283.7 255.199 283.7 255.099 283.7 254.899C283.7 253.799 284.5 252.799 285.5 252.499V245.899C285.5 245.499 285.8 245.199 286.2 245.199C286.6 245.199 286.9 245.499 286.9 245.899V252.499C288 252.799 288.7 253.799 288.7 254.899C288.7 254.999 288.7 255.099 288.7 255.299L305.2 263.799C305.3 263.799 305.3 263.799 305.4 263.799H310.9C311.3 263.799 311.6 264.099 311.6 264.499V266.899H311.7C312.1 266.899 312.4 267.199 312.4 267.599V290.399C312.6 290.799 312.3 291.099 311.8 291.099ZM261.3 267.299C261.1 267.299 261 267.399 261 267.599V290.399C261 290.599 261.1 290.699 261.3 290.699H311.9C312.1 290.699 312.2 290.599 312.2 290.399V267.599C312.2 267.399 312.1 267.299 311.9 267.299H311.4V264.499C311.4 264.299 311.3 264.199 311.1 264.199H305.6H305.5H305.4H305.3L288.5 255.499V255.299C288.5 255.199 288.5 254.999 288.5 254.899C288.5 253.899 287.8 253.099 286.9 252.899H286.7V245.999C286.7 245.799 286.6 245.699 286.4 245.699C286.2 245.699 286.1 245.799 286.1 245.999V252.899H285.9C284.9 253.099 284.3 253.999 284.3 254.899C284.3 254.999 284.3 255.199 284.3 255.299V255.499L267.4 264.199H262C261.8 264.199 261.7 264.299 261.7 264.499V267.299H261.3ZM311.6 290.099H261.6V267.899H311.6V290.099ZM262 289.599H311.1V268.299H262V289.599ZM310.7 267.299H305.8V264.799H310.7V267.299ZM306.3 266.899H310.3V265.299H306.3V266.899ZM305.3 267.299H267.9V264.599L268 264.499L284.6 255.899L284.7 255.999C285.1 256.499 285.7 256.799 286.4 256.799C287.1 256.799 287.7 256.499 288.1 255.999L288.2 255.899L288.4 255.999L305.3 264.699V267.299V267.299ZM268.4 266.899H304.9V265.199L288.4 256.699C287.9 257.199 287.2 257.599 286.5 257.599C285.8 257.599 285.1 257.299 284.6 256.699L268.5 264.999V266.899H268.4ZM267.3 267.299H262.4V264.799H267.3V267.299ZM262.9 266.899H266.9V265.299H262.9V266.899ZM286.4 256.499C285.6 256.499 284.9 255.799 284.9 254.999C284.9 254.199 285.6 253.499 286.4 253.499C287.2 253.499 287.9 254.199 287.9 254.999C287.9 255.799 287.2 256.499 286.4 256.499ZM286.4 253.799C285.8 253.799 285.3 254.299 285.3 254.899C285.3 255.499 285.8 255.999 286.4 255.999C287 255.999 287.5 255.499 287.5 254.899C287.5 254.299 287 253.799 286.4 253.799Z" fill="#2B2C31"/>
<path d="M309.4 269.299H263.6C263.3 269.299 263.1 269.499 263.1 269.799V288.199C263.1 288.499 263.3 288.699 263.6 288.699H309.4C309.7 288.699 309.9 288.499 309.9 288.199V269.799C310 269.499 309.7 269.299 309.4 269.299ZM308.9 287.699H264.2V270.299H308.9V287.699Z" fill="#2B2C31"/>
<path d="M309.4 288.999H263.6C263.2 288.999 262.9 288.699 262.9 288.299V269.899C262.9 269.499 263.2 269.199 263.6 269.199H309.4C309.8 269.199 310.1 269.499 310.1 269.899V288.299C310.2 288.699 309.8 288.999 309.4 288.999ZM263.7 269.499C263.5 269.499 263.4 269.599 263.4 269.799V288.199C263.4 288.399 263.5 288.499 263.7 288.499H309.5C309.7 288.499 309.8 288.399 309.8 288.199V269.799C309.8 269.599 309.7 269.499 309.5 269.499H263.7ZM309.1 287.999H264V270.199H309.2V287.999H309.1ZM264.4 287.499H308.7V270.599H264.4V287.499Z" fill="#2B2C31"/>
<path d="M266.398 285.799C266.698 285.799 266.898 285.599 266.898 285.299V271.999C266.898 271.699 266.698 271.499 266.398 271.499C266.098 271.499 265.898 271.699 265.898 271.999V285.299C265.898 285.499 266.098 285.799 266.398 285.799Z" fill="#2B2C31"/>
<path d="M266.399 285.999C265.999 285.999 265.699 285.699 265.699 285.299V271.999C265.699 271.599 265.999 271.299 266.399 271.299C266.799 271.299 267.099 271.599 267.099 271.999V285.299C267.199 285.699 266.799 285.999 266.399 285.999ZM266.399 271.599C266.199 271.599 266.099 271.699 266.099 271.899V285.199C266.099 285.399 266.199 285.499 266.399 285.499C266.599 285.499 266.699 285.399 266.699 285.199V271.899C266.699 271.699 266.599 271.599 266.399 271.599Z" fill="#2B2C31"/>
<path d="M271.5 285.799C271.8 285.799 272 285.599 272 285.299V271.999C272 271.699 271.8 271.499 271.5 271.499C271.2 271.499 271 271.699 271 271.999V285.299C270.9 285.499 271.2 285.799 271.5 285.799Z" fill="#2B2C31"/>
<path d="M271.501 285.999C271.101 285.999 270.801 285.699 270.801 285.299V271.999C270.801 271.599 271.101 271.299 271.501 271.299C271.901 271.299 272.201 271.599 272.201 271.999V285.299C272.201 285.699 271.901 285.999 271.501 285.999ZM271.501 271.599C271.301 271.599 271.201 271.699 271.201 271.899V285.199C271.201 285.399 271.301 285.499 271.501 285.499C271.701 285.499 271.801 285.399 271.801 285.199V271.899C271.801 271.699 271.601 271.599 271.501 271.599Z" fill="#2B2C31"/>
<path d="M276.5 285.799C276.8 285.799 277 285.599 277 285.299V271.999C277 271.699 276.8 271.499 276.5 271.499C276.2 271.499 276 271.699 276 271.999V285.299C276 285.499 276.2 285.799 276.5 285.799Z" fill="#2B2C31"/>
<path d="M276.501 285.999C276.101 285.999 275.801 285.699 275.801 285.299V271.999C275.801 271.599 276.101 271.299 276.501 271.299C276.901 271.299 277.201 271.599 277.201 271.999V285.299C277.301 285.699 276.901 285.999 276.501 285.999ZM276.501 271.599C276.301 271.599 276.201 271.699 276.201 271.899V285.199C276.201 285.399 276.301 285.499 276.501 285.499C276.701 285.499 276.801 285.399 276.801 285.199V271.899C276.801 271.699 276.701 271.599 276.501 271.599Z" fill="#2B2C31"/>
<path d="M281.6 285.799C281.9 285.799 282.1 285.599 282.1 285.299V271.999C282.1 271.699 281.9 271.499 281.6 271.499C281.3 271.499 281.1 271.699 281.1 271.999V285.299C281 285.499 281.3 285.799 281.6 285.799Z" fill="#2B2C31"/>
<path d="M281.6 285.999C281.2 285.999 280.9 285.699 280.9 285.299V271.999C280.9 271.599 281.2 271.299 281.6 271.299C282 271.299 282.3 271.599 282.3 271.999V285.299C282.3 285.699 282 285.999 281.6 285.999ZM281.6 271.599C281.4 271.599 281.3 271.699 281.3 271.899V285.199C281.3 285.399 281.4 285.499 281.6 285.499C281.8 285.499 281.9 285.399 281.9 285.199V271.899C281.9 271.699 281.7 271.599 281.6 271.599Z" fill="#2B2C31"/>
<path d="M286.6 285.799C286.9 285.799 287.1 285.599 287.1 285.299V271.999C287.1 271.699 286.9 271.499 286.6 271.499C286.3 271.499 286.1 271.699 286.1 271.999V285.299C286.1 285.499 286.3 285.799 286.6 285.799Z" fill="#2B2C31"/>
<path d="M286.6 285.999C286.2 285.999 285.9 285.699 285.9 285.299V271.999C285.9 271.599 286.2 271.299 286.6 271.299C287 271.299 287.3 271.599 287.3 271.999V285.299C287.3 285.699 287 285.999 286.6 285.999ZM286.6 271.599C286.4 271.599 286.3 271.699 286.3 271.899V285.199C286.3 285.399 286.4 285.499 286.6 285.499C286.8 285.499 286.9 285.399 286.9 285.199V271.899C286.9 271.699 286.8 271.599 286.6 271.599Z" fill="#2B2C31"/>
<path d="M291.699 285.799C291.999 285.799 292.199 285.599 292.199 285.299V271.999C292.199 271.699 291.999 271.499 291.699 271.499C291.399 271.499 291.199 271.699 291.199 271.999V285.299C291.099 285.499 291.399 285.799 291.699 285.799Z" fill="#2B2C31"/>
<path d="M291.7 285.999C291.3 285.999 291 285.699 291 285.299V271.999C291 271.599 291.3 271.299 291.7 271.299C292.1 271.299 292.4 271.599 292.4 271.999V285.299C292.4 285.699 292.1 285.999 291.7 285.999ZM291.7 271.599C291.5 271.599 291.4 271.699 291.4 271.899V285.199C291.4 285.399 291.5 285.499 291.7 285.499C291.9 285.499 292 285.399 292 285.199V271.899C292 271.699 291.8 271.599 291.7 271.599Z" fill="#2B2C31"/>
<path d="M296.699 285.799C296.999 285.799 297.199 285.599 297.199 285.299V271.999C297.199 271.699 296.999 271.499 296.699 271.499C296.399 271.499 296.199 271.699 296.199 271.999V285.299C296.199 285.499 296.399 285.799 296.699 285.799Z" fill="#2B2C31"/>
<path d="M296.7 285.999C296.3 285.999 296 285.699 296 285.299V271.999C296 271.599 296.3 271.299 296.7 271.299C297.1 271.299 297.4 271.599 297.4 271.999V285.299C297.4 285.699 297.1 285.999 296.7 285.999ZM296.7 271.599C296.5 271.599 296.4 271.699 296.4 271.899V285.199C296.4 285.399 296.5 285.499 296.7 285.499C296.9 285.499 297 285.399 297 285.199V271.899C297 271.699 296.9 271.599 296.7 271.599Z" fill="#2B2C31"/>
<path d="M301.699 285.799C301.999 285.799 302.199 285.599 302.199 285.299V271.999C302.199 271.699 301.999 271.499 301.699 271.499C301.399 271.499 301.199 271.699 301.199 271.999V285.299C301.199 285.499 301.499 285.799 301.699 285.799Z" fill="#2B2C31"/>
<path d="M301.7 285.999C301.3 285.999 301 285.699 301 285.299V271.999C301 271.599 301.3 271.299 301.7 271.299C302.1 271.299 302.4 271.599 302.4 271.999V285.299C302.5 285.699 302.2 285.999 301.7 285.999ZM301.7 271.599C301.5 271.599 301.4 271.699 301.4 271.899V285.199C301.4 285.399 301.5 285.499 301.7 285.499C301.9 285.499 302 285.399 302 285.199V271.899C302.1 271.699 301.9 271.599 301.7 271.599Z" fill="#2B2C31"/>
<path d="M306.799 285.799C307.099 285.799 307.299 285.599 307.299 285.299V271.999C307.299 271.699 307.099 271.499 306.799 271.499C306.499 271.499 306.299 271.699 306.299 271.999V285.299C306.299 285.499 306.499 285.799 306.799 285.799Z" fill="#2B2C31"/>
<path d="M306.8 285.999C306.4 285.999 306.1 285.699 306.1 285.299V271.999C306.1 271.599 306.4 271.299 306.8 271.299C307.2 271.299 307.5 271.599 307.5 271.999V285.299C307.5 285.699 307.2 285.999 306.8 285.999ZM306.8 271.599C306.6 271.599 306.5 271.699 306.5 271.899V285.199C306.5 285.399 306.6 285.499 306.8 285.499C307 285.499 307.1 285.399 307.1 285.199V271.899C307.1 271.699 307 271.599 306.8 271.599Z" fill="#2B2C31"/>
<path d="M172.401 164.4H130.801V184.8H172.401V164.4Z" fill="#D36959"/>
<path d="M214 164.4H172.4V184.8H214V164.4Z" fill="#6E92C2"/>
<path d="M255.401 164.4H213.801V184.8H255.401V164.4Z" fill="#EBC267"/>
<path d="M296.901 164.4H255.301V184.8H296.901V164.4Z" fill="#EBC267"/>
<path d="M131 144.3H89.4004V164.7H131V144.3Z" fill="#D36959"/>
<path d="M172.401 144.3H130.801V164.7H172.401V144.3Z" fill="#EBC267"/>
<path d="M214 144.3H172.4V164.7H214V144.3Z" fill="#D36959"/>
<path d="M255.401 144.3H213.801V164.7H255.401V144.3Z" fill="#6E92C2"/>
<path d="M296.901 144.3H255.301V164.7H296.901V144.3Z" fill="#D36959"/>
<path d="M338.299 144.3H296.699V164.7H338.299V144.3Z" fill="#EBC267"/>
<path d="M194 124.101H152.4V144.501H194V124.101Z" fill="#EBC267"/>
<path d="M235.5 124.101H193.9V144.501H235.5V124.101Z" fill="#D36959"/>
<path d="M317.1 124.101H275.5V144.501H317.1V124.101Z" fill="#6E92C2"/>
<path d="M90.8008 145.8V163.4H129.501V145.8H90.8008ZM97.5008 146.5H99.7008V162.5H97.5008V146.5ZM96.8008 162.5H94.6008V146.5H96.8008V162.5ZM100.501 146.5H102.701V162.5H100.501V146.5ZM103.401 146.5H105.601V162.5H103.401V146.5ZM106.301 146.5H108.501V162.5H106.301V146.5ZM109.201 146.5H111.401V162.5H109.201V146.5ZM112.201 146.5H114.401V162.5H112.201V146.5ZM115.101 146.5H117.301V162.5H115.101V146.5ZM118.001 146.5H120.201V162.5H118.001V146.5ZM120.901 146.5H123.101V162.5H120.901V146.5ZM123.901 146.5H126.101V162.5H123.901V146.5ZM91.6008 146.5H93.9008V162.5H91.6008V146.5ZM128.801 162.5H126.801V146.5H128.801V162.5Z" fill="#E2E4E6"/>
<path d="M132.199 145.8V163.4H170.899V145.8H132.199ZM138.899 146.5H141.099V162.5H138.899V146.5ZM138.199 162.5H135.999V146.5H138.199V162.5ZM141.799 146.5H143.999V162.5H141.799V146.5ZM144.799 146.5H146.999V162.5H144.799V146.5ZM147.699 146.5H149.899V162.5H147.699V146.5ZM150.599 146.5H152.799V162.5H150.599V146.5ZM153.499 146.5H155.699V162.5H153.499V146.5ZM156.499 146.5H158.699V162.5H156.499V146.5ZM159.399 146.5H161.599V162.5H159.399V146.5ZM162.299 146.5H164.499V162.5H162.299V146.5ZM165.199 146.5H167.399V162.5H165.199V146.5ZM132.899 146.5H135.199V162.5H132.899V146.5ZM170.099 162.5H168.099V146.5H170.099V162.5Z" fill="#E2E4E6"/>
<path d="M173.4 145.8V163.4H212.1V145.8H173.4ZM180.1 146.5H182.3V162.5H180.1V146.5ZM179.4 162.5H177.2V146.5H179.4V162.5ZM183 146.5H185.2V162.5H183V146.5ZM185.9 146.5H188.1V162.5H185.9V146.5ZM188.9 146.5H191.1V162.5H188.9V146.5ZM191.8 146.5H194V162.5H191.8V146.5ZM194.7 146.5H196.9V162.5H194.7V146.5ZM197.6 146.5H199.8V162.5H197.6V146.5ZM200.6 146.5H202.8V162.5H200.6V146.5ZM203.5 146.5H205.7V162.5H203.5V146.5ZM206.4 146.5H208.6V162.5H206.4V146.5ZM174.1 146.5H176.4V162.5H174.1V146.5ZM211.3 162.5H209.3V146.5H211.3V162.5Z" fill="#E2E4E6"/>
<path d="M153.9 125.3V142.9H192.6V125.3H153.9V125.3ZM160.7 126H162.9V142H160.7V126ZM159.9 142.1H157.7V126.1H159.9V142.1ZM163.6 126H165.8V142H163.6V126ZM166.5 126H168.7V142H166.5V126ZM169.5 126H171.7V142H169.5V126ZM172.4 126H174.6V142H172.4V126ZM175.3 126H177.5V142H175.3V126ZM178.2 126H180.4V142H178.2V126ZM181.2 126H183.4V142H181.2V126ZM184.1 126H186.3V142H184.1V126ZM187 126H189.2V142H187V126ZM154.7 126H157V142H154.7V126ZM191.9 142.1H189.9V126.1H191.9V142.1Z" fill="#E2E4E6"/>
<path d="M195.301 125.3V142.9H234.001V125.3H195.301V125.3ZM202.101 126H204.301V142H202.101V126ZM201.301 142.1H199.101V126.1H201.301V142.1ZM205.001 126H207.201V142H205.001V126ZM207.901 126H210.101V142H207.901V126ZM210.801 126H213.001V142H210.801V126ZM213.801 126H216.001V142H213.801V126ZM216.701 126H218.901V142H216.701V126ZM219.601 126H221.801V142H219.601V126ZM222.501 126H224.701V142H222.501V126ZM225.501 126H227.701V142H225.501V126ZM228.401 126H230.601V142H228.401V126ZM196.101 126H198.401V142H196.101V126ZM233.301 142.1H231.301V126.1H233.301V142.1Z" fill="#E2E4E6"/>
<path d="M215.4 145.8V163.4H254.1V145.8H215.4ZM222.1 146.5H224.3V162.5H222.1V146.5ZM221.4 162.5H219.2V146.5H221.4V162.5ZM225 146.5H227.2V162.5H225V146.5ZM228 146.5H230.2V162.5H228V146.5ZM230.9 146.5H233.1V162.5H230.9V146.5ZM233.8 146.5H236V162.5H233.8V146.5ZM236.7 146.5H238.9V162.5H236.7V146.5ZM239.7 146.5H241.9V162.5H239.7V146.5ZM242.6 146.5H244.8V162.5H242.6V146.5ZM245.5 146.5H247.7V162.5H245.5V146.5ZM248.4 146.5H250.6V162.5H248.4V146.5ZM216.1 146.5H218.4V162.5H216.1V146.5ZM253.3 162.5H251.3V146.5H253.3V162.5Z" fill="#E2E4E6"/>
<path d="M256.5 145.8V163.4H295.2V145.8H256.5ZM263.3 146.5H265.5V162.5H263.3V146.5ZM262.5 162.5H260.3V146.5H262.5V162.5ZM266.2 146.5H268.4V162.5H266.2V146.5ZM269.1 146.5H271.3V162.5H269.1V146.5ZM272.1 146.5H274.3V162.5H272.1V146.5ZM275 146.5H277.2V162.5H275V146.5ZM277.9 146.5H280.1V162.5H277.9V146.5ZM280.8 146.5H283V162.5H280.8V146.5ZM283.8 146.5H286V162.5H283.8V146.5ZM286.7 146.5H288.9V162.5H286.7V146.5ZM289.6 146.5H291.8V162.5H289.6V146.5ZM257.3 146.5H259.6V162.5H257.3V146.5ZM294.5 162.5H292.5V146.5H294.5V162.5Z" fill="#E2E4E6"/>
<path d="M298.1 145.8V163.4H336.8V145.8H298.1ZM304.9 146.5H307.1V162.5H304.9V146.5ZM304.1 162.5H302V146.5H304.2V162.5H304.1ZM307.8 146.5H310V162.5H307.8V146.5ZM310.7 146.5H312.9V162.5H310.7V146.5ZM313.7 146.5H315.9V162.5H313.7V146.5ZM316.6 146.5H318.8V162.5H316.6V146.5ZM319.5 146.5H321.7V162.5H319.5V146.5ZM322.4 146.5H324.6V162.5H322.4V146.5ZM325.4 146.5H327.6V162.5H325.4V146.5ZM328.3 146.5H330.5V162.5H328.3V146.5ZM331.2 146.5H333.4V162.5H331.2V146.5ZM298.9 146.5H301.2V162.5H298.9V146.5ZM336.1 162.5H334.1V146.5H336.1V162.5Z" fill="#E2E4E6"/>
<path d="M277 125.5V143H315.7V125.4H277V125.5ZM283.8 126.3H286V142.3H283.8V126.3ZM283 142.3H280.8V126.3H283V142.3ZM286.7 126.3H288.9V142.3H286.7V126.3ZM289.6 126.3H291.8V142.3H289.6V126.3ZM292.5 126.3H294.7V142.3H292.5V126.3ZM295.5 126.3H297.7V142.3H295.5V126.3ZM298.4 126.3H300.6V142.3H298.4V126.3ZM301.3 126.3H303.5V142.3H301.3V126.3ZM304.2 126.3H306.4V142.3H304.2V126.3ZM307.2 126.3H309.4V142.3H307.2V126.3ZM310.1 126.3H312.3V142.3H310.1V126.3ZM277.8 126.3H280.1V142.3H277.8V126.3ZM315 142.3H313V126.3H315V142.3Z" fill="#E2E4E6"/>
<path d="M338.299 164.4H296.699V184.8H338.299V164.4Z" fill="#6E92C2"/>
<path d="M345.206 102.626L344.072 103.262L377.351 162.565L378.485 161.928L345.206 102.626Z" fill="#757879"/>
<path d="M75.3 117.5H45V171.4H75.3V117.5Z" fill="#E2E4E6"/>
<path d="M77.0008 142.5H46.3008V119H82.1008L77.0008 142.5Z" fill="#E2E4E6"/>
<path d="M360.8 199.4L368.6 213.9C371 218.4 367.8 223.8 362.8 223.8H42.4996C38.7996 223.8 35.7996 220.8 35.7996 217.1V215.1C35.7996 211.4 32.7996 208.4 29.0996 208.4H15.7996C12.0996 208.4 9.09961 205.4 9.09961 201.7C9.09961 198 12.0996 195 15.7996 195C60.8996 195.3 319.4 197.1 354.7 195.9C357.3 195.8 359.6 197.2 360.8 199.4Z" fill="#FE4350"/>
<path d="M360.799 199.401L73.7992 225.501L29.8992 228.001C29.8992 228.001 14.9992 217.301 14.9992 215.201C14.9992 213.101 2.19922 200.701 2.19922 200.701L78.0992 198.101L360.799 199.401Z" fill="#E2E4E6" fill-opacity="0.14"/>
<path d="M79.9992 160.4H6.19922V179.2H79.9992V160.4Z" fill="#757879"/>
<path d="M131 164.4H89.4004V184.8H131V164.4Z" fill="#6E92C2"/>
<path d="M90.8008 165.8V183.4H129.501V165.8H90.8008ZM97.5008 166.6H99.7008V182.6H97.5008V166.6ZM96.8008 182.6H94.6008V166.6H96.8008V182.6ZM100.501 166.6H102.701V182.6H100.501V166.6ZM103.401 166.6H105.601V182.6H103.401V166.6ZM106.301 166.6H108.501V182.6H106.301V166.6ZM109.201 166.6H111.401V182.6H109.201V166.6ZM112.201 166.6H114.401V182.6H112.201V166.6ZM115.101 166.6H117.301V182.6H115.101V166.6ZM118.001 166.6H120.201V182.6H118.001V166.6ZM120.901 166.6H123.101V182.6H120.901V166.6ZM123.901 166.6H126.101V182.6H123.901V166.6ZM91.6008 166.6H93.9008V182.6H91.6008V166.6ZM128.801 182.6H126.801V166.6H128.801V182.6Z" fill="#E2E4E6"/>
<path d="M132.199 165.8V183.4H170.899V165.8H132.199ZM138.899 166.6H141.099V182.6H138.899V166.6ZM138.199 182.6H135.999V166.6H138.199V182.6ZM141.799 166.6H143.999V182.6H141.799V166.6ZM144.799 166.6H146.999V182.6H144.799V166.6ZM147.699 166.6H149.899V182.6H147.699V166.6ZM150.599 166.6H152.799V182.6H150.599V166.6ZM153.499 166.6H155.699V182.6H153.499V166.6ZM156.499 166.6H158.699V182.6H156.499V166.6ZM159.399 166.6H161.599V182.6H159.399V166.6ZM162.299 166.6H164.499V182.6H162.299V166.6ZM165.199 166.6H167.399V182.6H165.199V166.6ZM132.899 166.6H135.199V182.6H132.899V166.6ZM170.099 182.6H168.099V166.6H170.099V182.6Z" fill="#E2E4E6"/>
<path d="M173.4 165.8V183.4H212.1V165.8H173.4ZM180.1 166.6H182.3V182.6H180.1V166.6ZM179.4 182.6H177.2V166.6H179.4V182.6ZM183 166.6H185.2V182.6H183V166.6ZM185.9 166.6H188.1V182.6H185.9V166.6ZM188.9 166.6H191.1V182.6H188.9V166.6ZM191.8 166.6H194V182.6H191.8V166.6ZM194.7 166.6H196.9V182.6H194.7V166.6ZM197.6 166.6H199.8V182.6H197.6V166.6ZM200.6 166.6H202.8V182.6H200.6V166.6ZM203.5 166.6H205.7V182.6H203.5V166.6ZM206.4 166.6H208.6V182.6H206.4V166.6ZM174.1 166.6H176.4V182.6H174.1V166.6ZM211.3 182.6H209.3V166.6H211.3V182.6Z" fill="#E2E4E6"/>
<path d="M215.4 165.8V183.4H254.1V165.8H215.4ZM222.1 166.6H224.3V182.6H222.1V166.6ZM221.4 182.6H219.2V166.6H221.4V182.6ZM225 166.6H227.2V182.6H225V166.6ZM228 166.6H230.2V182.6H228V166.6ZM230.9 166.6H233.1V182.6H230.9V166.6ZM233.8 166.6H236V182.6H233.8V166.6ZM236.7 166.6H238.9V182.6H236.7V166.6ZM239.7 166.6H241.9V182.6H239.7V166.6ZM242.6 166.6H244.8V182.6H242.6V166.6ZM245.5 166.6H247.7V182.6H245.5V166.6ZM248.4 166.6H250.6V182.6H248.4V166.6ZM216.1 166.6H218.4V182.6H216.1V166.6ZM253.3 182.6H251.3V166.6H253.3V182.6Z" fill="#E2E4E6"/>
<path d="M256.5 165.8V183.4H295.2V165.8H256.5ZM263.3 166.6H265.5V182.6H263.3V166.6ZM262.5 182.6H260.3V166.6H262.5V182.6ZM266.2 166.6H268.4V182.6H266.2V166.6ZM269.1 166.6H271.3V182.6H269.1V166.6ZM272.1 166.6H274.3V182.6H272.1V166.6ZM275 166.6H277.2V182.6H275V166.6ZM277.9 166.6H280.1V182.6H277.9V166.6ZM280.8 166.6H283V182.6H280.8V166.6ZM283.8 166.6H286V182.6H283.8V166.6ZM286.7 166.6H288.9V182.6H286.7V166.6ZM289.6 166.6H291.8V182.6H289.6V166.6ZM257.3 166.6H259.6V182.6H257.3V166.6ZM294.5 182.6H292.5V166.6H294.5V182.6Z" fill="#E2E4E6"/>
<path d="M298.1 165.8V183.4H336.8V165.8H298.1ZM304.9 166.6H307.1V182.6H304.9V166.6ZM304.1 182.6H302V166.6H304.2V182.6H304.1ZM307.8 166.6H310V182.6H307.8V166.6ZM310.7 166.6H312.9V182.6H310.7V166.6ZM313.7 166.6H315.9V182.6H313.7V166.6ZM316.6 166.6H318.8V182.6H316.6V166.6ZM319.5 166.6H321.7V182.6H319.5V166.6ZM322.4 166.6H324.6V182.6H322.4V166.6ZM325.4 166.6H327.6V182.6H325.4V166.6ZM328.3 166.6H330.5V182.6H328.3V166.6ZM331.2 166.6H333.4V182.6H331.2V166.6ZM298.9 166.6H301.2V182.6H298.9V166.6ZM336.1 182.6H334.1V166.6H336.1V182.6Z" fill="#E2E4E6"/>
<path d="M345.399 94.7002H343.699V166H345.399V94.7002Z" fill="#516480"/>
<path d="M5.30078 172.301V201.301C5.30078 201.701 5.60078 202.001 6.00078 202.001H357.001C360.401 202.001 363.501 200.201 365.101 197.201L386.701 157.301C387.301 156.101 386.501 154.601 385.101 154.601H370.201C368.901 154.601 367.701 154.901 366.501 155.401L351.501 162.101C350.301 162.601 349.101 162.901 347.801 162.901H320.601C319.601 162.901 318.501 163.101 317.601 163.401L263.001 182.801C262.001 183.101 261.001 183.301 260.001 183.301H108.201C104.501 183.301 101.101 181.001 99.7008 177.501L97.7008 172.401C97.5008 172.001 97.2008 171.701 96.7008 171.701L6.30078 171.101C5.80078 171.301 5.30078 171.801 5.30078 172.301Z" fill="#083673"/>
<path d="M351.4 195.9C349.5 195.9 348 194.4 348 192.5V186.8C348 184.9 349.5 183.4 351.4 183.4C353.3 183.4 354.8 184.9 354.8 186.8V192.5C354.8 194.4 353.3 195.9 351.4 195.9Z" fill="#2C2D37"/>
<path d="M356.499 179H327.499C327.099 179 326.699 178.6 326.699 178.2V177.5C326.699 177.1 327.099 176.7 327.499 176.7H356.499C356.899 176.7 357.299 177.1 357.299 177.5V178.2C357.299 178.6 356.999 179 356.499 179Z" fill="white"/>
<path d="M39.7004 179H10.7004C10.3004 179 9.90039 178.6 9.90039 178.2V177.5C9.90039 177.1 10.3004 176.7 10.7004 176.7H39.7004C40.1004 176.7 40.5004 177.1 40.5004 177.5V178.2C40.5004 178.6 40.2004 179 39.7004 179Z" fill="white"/>
<path d="M63.5004 125H55.4004V130.1H63.5004V125Z" fill="#516480"/>
<path d="M81.1996 125H65.0996V130.1H81.1996V125Z" fill="#516480"/>
<path d="M71.9008 144.7H55.3008V147.6H71.9008V144.7Z" fill="#516480"/>
<path d="M71.9008 149.7H55.3008V152.6H71.9008V149.7Z" fill="#516480"/>
<path d="M14.6 164.3H10.5V168H14.6V164.3Z" fill="#E2E4E6"/>
<path d="M26.6 164.3H22.5V168H26.6V164.3Z" fill="#E2E4E6"/>
<path d="M38.6 164.3H34.5V168H38.6V164.3Z" fill="#E2E4E6"/>
<path d="M50.6 164.3H46.5V168H50.6V164.3Z" fill="#E2E4E6"/>
<path d="M62.6996 164.3H58.5996V168H62.6996V164.3Z" fill="#E2E4E6"/>
<path d="M74.6996 164.3H70.5996V168H74.6996V164.3Z" fill="#E2E4E6"/>
<path d="M80.2008 161.1L4.80078 170.8L6.20078 160.4L80.2008 161.1Z" fill="#E2E4E6" fill-opacity="0.14"/>
<path d="M82.1 119L43.9 160.1L43.5 118L82.1 119Z" fill="#B0B0B0" fill-opacity="0.34"/>
<path d="M42.6004 119.001H85.0004C85.4004 119.001 85.7004 118.701 85.7004 118.301C85.7004 117.901 85.4004 117.601 85.0004 117.601H42.6004C42.2004 117.601 41.9004 117.901 41.9004 118.301C41.9004 118.701 42.2004 119.001 42.6004 119.001Z" fill="#919495"/>
<path d="M4.79961 160.8H83.0996C83.4996 160.8 83.7996 160.5 83.7996 160.1C83.7996 159.7 83.4996 159.4 83.0996 159.4H4.79961C4.39961 159.4 4.09961 159.7 4.09961 160.1C4.09961 160.5 4.39961 160.8 4.79961 160.8Z" fill="#919495"/>
<path d="M97.7 172.6L0 201.2L3.2 172.4L97.7 172.6Z" fill="#E2E4E6" fill-opacity="0.14"/>
<path d="M4.79961 172.3H98.4996C98.8996 172.3 99.1996 172 99.1996 171.6C99.1996 171.2 98.8996 170.9 98.4996 170.9H4.79961C4.39961 170.9 4.09961 171.2 4.09961 171.6C4.09961 172 4.39961 172.3 4.79961 172.3Z" fill="#919495"/>
<path opacity="0.16" d="M196.1 227.401C299.929 227.401 384.1 226.102 384.1 224.501C384.1 222.899 299.929 221.601 196.1 221.601C92.2701 221.601 8.09961 222.899 8.09961 224.501C8.09961 226.102 92.2701 227.401 196.1 227.401Z" fill="#42454F"/>
</g>
<defs>
<clipPath id="clip0">
<rect width="386.8" height="337.8" fill="white"/>
</clipPath>
</defs>
</svg>
