<svg width="584" height="478" viewBox="0 0 584 478" fill="none" xmlns="http://www.w3.org/2000/svg">
<circle cx="294" cy="239" r="201.5" stroke="#6B92D2" stroke-width="5"/>
<circle cx="294" cy="239" r="172.5" stroke="#6B92D2"/>
<circle cx="294" cy="239" r="238.5" stroke="#6B92D2"/>
<path d="M136.272 6H35V36.3354H136.272L147 72L136.272 6Z" fill="#6B92D2" fill-opacity="0.5"/>
<path d="M132.92 472H0V441.665H132.92L147 406L132.92 472Z" fill="#6B92D2" fill-opacity="0.5"/>
<path d="M451.08 472H584V441.665H451.08L437 406L451.08 472Z" fill="#6B92D2" fill-opacity="0.5"/>
<path d="M454.398 8H562V38.3354H454.398L443 74L454.398 8Z" fill="#6B92D2" fill-opacity="0.5"/>
<path d="M489.964 456.613C488.597 456.22 487.601 455.738 486.976 455.168C486.356 454.593 486.046 453.885 486.046 453.043C486.046 452.092 486.425 451.306 487.183 450.686C487.947 450.061 488.937 449.748 490.155 449.748C490.985 449.748 491.724 449.909 492.371 450.229C493.024 450.55 493.528 450.993 493.882 451.558C494.242 452.122 494.421 452.739 494.421 453.409H492.819C492.819 452.678 492.587 452.105 492.122 451.69C491.657 451.27 491.001 451.06 490.155 451.06C489.369 451.06 488.755 451.234 488.312 451.583C487.875 451.926 487.656 452.404 487.656 453.019C487.656 453.511 487.864 453.929 488.279 454.272C488.699 454.61 489.41 454.919 490.412 455.202C491.419 455.484 492.205 455.797 492.77 456.14C493.34 456.477 493.76 456.873 494.031 457.327C494.308 457.78 494.446 458.314 494.446 458.929C494.446 459.908 494.064 460.694 493.301 461.286C492.537 461.873 491.516 462.166 490.238 462.166C489.408 462.166 488.633 462.008 487.914 461.693C487.194 461.372 486.638 460.935 486.245 460.381C485.858 459.828 485.664 459.2 485.664 458.497H487.266C487.266 459.228 487.535 459.806 488.071 460.232C488.614 460.653 489.336 460.863 490.238 460.863C491.079 460.863 491.724 460.691 492.172 460.348C492.62 460.005 492.844 459.537 492.844 458.945C492.844 458.353 492.637 457.897 492.222 457.576C491.807 457.249 491.054 456.928 489.964 456.613ZM497.924 462H496.389V453.019H497.924V462ZM496.264 450.636C496.264 450.387 496.339 450.177 496.488 450.005C496.643 449.834 496.87 449.748 497.169 449.748C497.468 449.748 497.695 449.834 497.85 450.005C498.005 450.177 498.082 450.387 498.082 450.636C498.082 450.885 498.005 451.093 497.85 451.259C497.695 451.425 497.468 451.508 497.169 451.508C496.87 451.508 496.643 451.425 496.488 451.259C496.339 451.093 496.264 450.885 496.264 450.636ZM501.842 453.019L501.892 454.147C502.578 453.284 503.475 452.853 504.582 452.853C506.48 452.853 507.437 453.923 507.454 456.065V462H505.918V456.057C505.912 455.409 505.763 454.931 505.47 454.621C505.182 454.311 504.731 454.156 504.117 454.156C503.619 454.156 503.181 454.289 502.805 454.554C502.429 454.82 502.136 455.168 501.925 455.6V462H500.39V453.019H501.842ZM509.404 457.435C509.404 456.035 509.728 454.922 510.375 454.098C511.023 453.268 511.881 452.853 512.949 452.853C514.044 452.853 514.899 453.24 515.514 454.015L515.588 453.019H516.991V461.784C516.991 462.946 516.645 463.862 515.954 464.532C515.267 465.201 514.343 465.536 513.181 465.536C512.534 465.536 511.9 465.398 511.28 465.121C510.66 464.844 510.187 464.465 509.861 463.984L510.658 463.062C511.316 463.876 512.121 464.283 513.073 464.283C513.82 464.283 514.401 464.072 514.816 463.652C515.237 463.231 515.447 462.639 515.447 461.875V461.104C514.833 461.812 513.995 462.166 512.932 462.166C511.881 462.166 511.028 461.743 510.375 460.896C509.728 460.049 509.404 458.896 509.404 457.435ZM510.948 457.609C510.948 458.622 511.156 459.418 511.571 460C511.986 460.575 512.567 460.863 513.314 460.863C514.282 460.863 514.993 460.423 515.447 459.543V455.442C514.977 454.585 514.271 454.156 513.331 454.156C512.583 454.156 512 454.446 511.579 455.027C511.159 455.608 510.948 456.469 510.948 457.609ZM524.86 462C524.772 461.823 524.7 461.507 524.645 461.054C523.931 461.795 523.078 462.166 522.088 462.166C521.202 462.166 520.475 461.917 519.905 461.419C519.34 460.915 519.058 460.279 519.058 459.51C519.058 458.575 519.412 457.85 520.121 457.335C520.834 456.815 521.836 456.555 523.125 456.555H524.62V455.849C524.62 455.312 524.459 454.886 524.138 454.571C523.817 454.25 523.344 454.089 522.719 454.089C522.171 454.089 521.712 454.228 521.341 454.504C520.97 454.781 520.785 455.116 520.785 455.509H519.241C519.241 455.061 519.398 454.629 519.714 454.214C520.035 453.793 520.466 453.461 521.009 453.218C521.557 452.974 522.157 452.853 522.81 452.853C523.845 452.853 524.656 453.113 525.242 453.633C525.829 454.147 526.133 454.859 526.155 455.766V459.9C526.155 460.724 526.26 461.38 526.471 461.867V462H524.86ZM522.312 460.83C522.793 460.83 523.25 460.705 523.682 460.456C524.113 460.207 524.426 459.883 524.62 459.485V457.642H523.416C521.535 457.642 520.594 458.193 520.594 459.294C520.594 459.775 520.754 460.152 521.075 460.423C521.396 460.694 521.808 460.83 522.312 460.83ZM536.149 457.609C536.149 458.976 535.837 460.077 535.211 460.913C534.586 461.748 533.739 462.166 532.671 462.166C531.581 462.166 530.723 461.82 530.098 461.128V465.453H528.562V453.019H529.965L530.04 454.015C530.665 453.24 531.534 452.853 532.646 452.853C533.726 452.853 534.578 453.259 535.203 454.073C535.834 454.886 536.149 456.018 536.149 457.468V457.609ZM534.614 457.435C534.614 456.422 534.398 455.622 533.966 455.036C533.535 454.449 532.943 454.156 532.19 454.156C531.26 454.156 530.563 454.568 530.098 455.393V459.684C530.557 460.503 531.26 460.913 532.207 460.913C532.943 460.913 533.526 460.622 533.958 460.041C534.395 459.454 534.614 458.586 534.614 457.435ZM537.702 457.426C537.702 456.546 537.873 455.755 538.216 455.052C538.565 454.349 539.046 453.807 539.661 453.425C540.28 453.043 540.986 452.853 541.777 452.853C543 452.853 543.988 453.276 544.741 454.123C545.499 454.969 545.878 456.095 545.878 457.501V457.609C545.878 458.483 545.709 459.269 545.372 459.966C545.04 460.658 544.561 461.198 543.936 461.585C543.316 461.972 542.602 462.166 541.794 462.166C540.576 462.166 539.589 461.743 538.831 460.896C538.078 460.049 537.702 458.929 537.702 457.534V457.426ZM539.246 457.609C539.246 458.605 539.475 459.405 539.935 460.008C540.399 460.611 541.019 460.913 541.794 460.913C542.574 460.913 543.194 460.608 543.653 460C544.113 459.385 544.342 458.528 544.342 457.426C544.342 456.441 544.107 455.644 543.637 455.036C543.172 454.421 542.552 454.114 541.777 454.114C541.019 454.114 540.408 454.416 539.943 455.019C539.478 455.622 539.246 456.486 539.246 457.609ZM552.145 454.396C551.913 454.358 551.661 454.338 551.39 454.338C550.382 454.338 549.699 454.767 549.339 455.625V462H547.804V453.019H549.298L549.323 454.056C549.826 453.254 550.54 452.853 551.464 452.853C551.763 452.853 551.99 452.891 552.145 452.969V454.396ZM557.125 462.166C555.908 462.166 554.917 461.768 554.154 460.971C553.39 460.168 553.008 459.097 553.008 457.758V457.476C553.008 456.585 553.177 455.791 553.515 455.094C553.858 454.391 554.334 453.843 554.942 453.45C555.557 453.052 556.221 452.853 556.935 452.853C558.102 452.853 559.01 453.237 559.657 454.006C560.305 454.776 560.628 455.877 560.628 457.31V457.949H554.544C554.566 458.835 554.823 459.551 555.316 460.099C555.814 460.641 556.445 460.913 557.208 460.913C557.751 460.913 558.21 460.802 558.586 460.581C558.963 460.359 559.292 460.066 559.574 459.701L560.512 460.431C559.76 461.588 558.631 462.166 557.125 462.166ZM556.935 454.114C556.315 454.114 555.795 454.341 555.374 454.795C554.953 455.243 554.693 455.874 554.594 456.688H559.093V456.571C559.049 455.791 558.838 455.188 558.462 454.762C558.086 454.33 557.576 454.114 556.935 454.114Z" fill="#18315A"/>
<path d="M477.691 28H476.089V22.4136H469.997V28H468.403V15.9141H469.997V21.1104H476.089V15.9141H477.691V28ZM479.875 23.4263C479.875 22.5464 480.046 21.755 480.389 21.0522C480.738 20.3494 481.219 19.8071 481.833 19.4253C482.453 19.0435 483.159 18.8525 483.95 18.8525C485.173 18.8525 486.161 19.2759 486.914 20.1226C487.672 20.9692 488.051 22.0954 488.051 23.501V23.6089C488.051 24.4832 487.882 25.269 487.544 25.9663C487.212 26.658 486.734 27.1976 486.108 27.585C485.489 27.9723 484.775 28.166 483.967 28.166C482.749 28.166 481.762 27.7427 481.003 26.896C480.251 26.0493 479.875 24.9287 479.875 23.5342V23.4263ZM481.418 23.6089C481.418 24.605 481.648 25.4046 482.107 26.0078C482.572 26.611 483.192 26.9126 483.967 26.9126C484.747 26.9126 485.367 26.6082 485.826 25.9995C486.285 25.3853 486.515 24.5275 486.515 23.4263C486.515 22.4412 486.28 21.6444 485.81 21.0356C485.345 20.4214 484.725 20.1143 483.95 20.1143C483.192 20.1143 482.581 20.4159 482.116 21.019C481.651 21.6222 481.418 22.4855 481.418 23.6089ZM491.429 19.0186L491.479 20.1475C492.165 19.2842 493.062 18.8525 494.168 18.8525C496.067 18.8525 497.024 19.9233 497.041 22.0649V28H495.505V22.0566C495.499 21.4092 495.35 20.9305 495.057 20.6206C494.769 20.3107 494.318 20.1558 493.704 20.1558C493.206 20.1558 492.768 20.2886 492.392 20.5542C492.016 20.8198 491.722 21.1685 491.512 21.6001V28H489.977V19.0186H491.429ZM498.991 23.4346C498.991 22.0345 499.315 20.9222 499.962 20.0977C500.61 19.2676 501.468 18.8525 502.536 18.8525C503.631 18.8525 504.486 19.2399 505.101 20.0146L505.175 19.0186H506.578V27.7842C506.578 28.9463 506.232 29.8621 505.541 30.5317C504.854 31.2013 503.93 31.5361 502.768 31.5361C502.121 31.5361 501.487 31.3978 500.867 31.1211C500.247 30.8444 499.774 30.4653 499.448 29.9839L500.245 29.0625C500.903 29.876 501.708 30.2827 502.66 30.2827C503.407 30.2827 503.988 30.0724 504.403 29.6519C504.824 29.2313 505.034 28.6392 505.034 27.8755V27.1035C504.42 27.8118 503.582 28.166 502.519 28.166C501.468 28.166 500.615 27.7427 499.962 26.896C499.315 26.0493 498.991 24.8955 498.991 23.4346ZM500.535 23.6089C500.535 24.6216 500.743 25.4185 501.158 25.9995C501.573 26.575 502.154 26.8628 502.901 26.8628C503.869 26.8628 504.58 26.4229 505.034 25.543V21.4424C504.564 20.5846 503.858 20.1558 502.917 20.1558C502.17 20.1558 501.587 20.4463 501.166 21.0273C500.745 21.6084 500.535 22.4689 500.535 23.6089ZM516.431 22.3804L514.954 23.916V28H513.36V15.9141H514.954V21.8906L520.324 15.9141H522.25L517.494 21.2515L522.624 28H520.714L516.431 22.3804ZM523.138 23.4263C523.138 22.5464 523.31 21.755 523.653 21.0522C524.001 20.3494 524.483 19.8071 525.097 19.4253C525.717 19.0435 526.423 18.8525 527.214 18.8525C528.437 18.8525 529.425 19.2759 530.177 20.1226C530.935 20.9692 531.314 22.0954 531.314 23.501V23.6089C531.314 24.4832 531.146 25.269 530.808 25.9663C530.476 26.658 529.997 27.1976 529.372 27.585C528.752 27.9723 528.038 28.166 527.23 28.166C526.013 28.166 525.025 27.7427 524.267 26.896C523.514 26.0493 523.138 24.9287 523.138 23.5342V23.4263ZM524.682 23.6089C524.682 24.605 524.912 25.4046 525.371 26.0078C525.836 26.611 526.456 26.9126 527.23 26.9126C528.011 26.9126 528.631 26.6082 529.09 25.9995C529.549 25.3853 529.779 24.5275 529.779 23.4263C529.779 22.4412 529.544 21.6444 529.073 21.0356C528.608 20.4214 527.989 20.1143 527.214 20.1143C526.456 20.1143 525.844 20.4159 525.379 21.019C524.915 21.6222 524.682 22.4855 524.682 23.6089ZM534.693 19.0186L534.743 20.1475C535.429 19.2842 536.325 18.8525 537.432 18.8525C539.33 18.8525 540.288 19.9233 540.304 22.0649V28H538.769V22.0566C538.763 21.4092 538.614 20.9305 538.32 20.6206C538.033 20.3107 537.582 20.1558 536.967 20.1558C536.469 20.1558 536.032 20.2886 535.656 20.5542C535.279 20.8198 534.986 21.1685 534.776 21.6001V28H533.24V19.0186H534.693ZM542.255 23.4346C542.255 22.0345 542.579 20.9222 543.226 20.0977C543.874 19.2676 544.731 18.8525 545.799 18.8525C546.895 18.8525 547.75 19.2399 548.364 20.0146L548.439 19.0186H549.842V27.7842C549.842 28.9463 549.496 29.8621 548.804 30.5317C548.118 31.2013 547.194 31.5361 546.032 31.5361C545.384 31.5361 544.751 31.3978 544.131 31.1211C543.511 30.8444 543.038 30.4653 542.711 29.9839L543.508 29.0625C544.167 29.876 544.972 30.2827 545.924 30.2827C546.671 30.2827 547.252 30.0724 547.667 29.6519C548.088 29.2313 548.298 28.6392 548.298 27.8755V27.1035C547.684 27.8118 546.845 28.166 545.783 28.166C544.731 28.166 543.879 27.7427 543.226 26.896C542.579 26.0493 542.255 24.8955 542.255 23.4346ZM543.799 23.6089C543.799 24.6216 544.006 25.4185 544.421 25.9995C544.836 26.575 545.417 26.8628 546.165 26.8628C547.133 26.8628 547.844 26.4229 548.298 25.543V21.4424C547.827 20.5846 547.122 20.1558 546.181 20.1558C545.434 20.1558 544.85 20.4463 544.43 21.0273C544.009 21.6084 543.799 22.4689 543.799 23.6089Z" fill="#18315A"/>
<path d="M64.4028 28V15.9141H67.8145C68.8659 15.9141 69.7956 16.1465 70.6035 16.6113C71.4115 17.0762 72.034 17.7375 72.4712 18.5952C72.9139 19.453 73.138 20.438 73.1436 21.5503V22.3223C73.1436 23.4622 72.9222 24.4611 72.4795 25.3188C72.0423 26.1766 71.4142 26.8351 70.5952 27.2944C69.7817 27.7537 68.8327 27.9889 67.748 28H64.4028ZM65.9966 17.2256V26.6968H67.6733C68.9019 26.6968 69.8564 26.3149 70.5371 25.5513C71.2233 24.7876 71.5664 23.7002 71.5664 22.2891V21.5835C71.5664 20.2111 71.2427 19.1458 70.5952 18.3877C69.9533 17.624 69.0402 17.2367 67.856 17.2256H65.9966ZM80.8633 27.1118C80.2656 27.8146 79.3885 28.166 78.2319 28.166C77.2746 28.166 76.5441 27.8893 76.0405 27.3359C75.5425 26.777 75.2907 25.9525 75.2852 24.8623V19.0186H76.8208V24.8208C76.8208 26.1821 77.3742 26.8628 78.481 26.8628C79.6541 26.8628 80.4344 26.4256 80.8218 25.5513V19.0186H82.3574V28H80.8965L80.8633 27.1118ZM92.3018 23.6089C92.3018 24.9813 91.9863 26.0853 91.3555 26.9209C90.7246 27.751 89.8779 28.166 88.8154 28.166C87.681 28.166 86.8039 27.7648 86.1841 26.9624L86.1094 28H84.6982V15.25H86.2339V20.0063C86.8537 19.2371 87.7087 18.8525 88.7988 18.8525C89.889 18.8525 90.744 19.2648 91.3638 20.0894C91.9891 20.9139 92.3018 22.0428 92.3018 23.4761V23.6089ZM90.7661 23.4346C90.7661 22.3887 90.5641 21.5807 90.1602 21.0107C89.7562 20.4408 89.1751 20.1558 88.417 20.1558C87.4043 20.1558 86.6766 20.6261 86.2339 21.5669V25.4517C86.7043 26.3924 87.4375 26.8628 88.4336 26.8628C89.1696 26.8628 89.7424 26.5778 90.1519 26.0078C90.5614 25.4378 90.7661 24.5801 90.7661 23.4346ZM99.7891 28C99.7005 27.8229 99.6286 27.5075 99.5732 27.0537C98.8594 27.7952 98.0072 28.166 97.0166 28.166C96.1312 28.166 95.4035 27.917 94.8335 27.4189C94.269 26.9154 93.9868 26.279 93.9868 25.5098C93.9868 24.5745 94.341 23.8496 95.0493 23.335C95.7632 22.8148 96.7648 22.5547 98.0542 22.5547H99.5483V21.8491C99.5483 21.3123 99.3879 20.8862 99.0669 20.5708C98.7459 20.2498 98.2728 20.0894 97.6475 20.0894C97.0996 20.0894 96.6403 20.2277 96.2695 20.5044C95.8988 20.7811 95.7134 21.1159 95.7134 21.5088H94.1694C94.1694 21.0605 94.3271 20.6289 94.6426 20.2139C94.9635 19.7933 95.3952 19.4613 95.9375 19.2178C96.4854 18.9743 97.0858 18.8525 97.7388 18.8525C98.7736 18.8525 99.5843 19.1126 100.171 19.6328C100.757 20.1475 101.062 20.8586 101.084 21.7661V25.8999C101.084 26.7244 101.189 27.3802 101.399 27.8672V28H99.7891ZM97.2407 26.8296C97.7222 26.8296 98.1787 26.7051 98.6104 26.4561C99.042 26.207 99.3547 25.8833 99.5483 25.4849V23.6421H98.3447C96.4632 23.6421 95.5225 24.1927 95.5225 25.2939C95.5225 25.7754 95.6829 26.1517 96.0039 26.4229C96.3249 26.694 96.7371 26.8296 97.2407 26.8296ZM105.16 28H103.624V19.0186H105.16V28ZM103.5 16.6362C103.5 16.3872 103.574 16.1769 103.724 16.0054C103.879 15.8338 104.105 15.748 104.404 15.748C104.703 15.748 104.93 15.8338 105.085 16.0054C105.24 16.1769 105.317 16.3872 105.317 16.6362C105.317 16.8853 105.24 17.0928 105.085 17.2588C104.93 17.4248 104.703 17.5078 104.404 17.5078C104.105 17.5078 103.879 17.4248 103.724 17.2588C103.574 17.0928 103.5 16.8853 103.5 16.6362Z" fill="#18315A"/>
<path d="M27.4741 456.38L25.9966 457.916V462H24.4028V449.914H25.9966V455.891L31.3672 449.914H33.293L28.5366 455.251L33.6665 462H31.7573L27.4741 456.38ZM40.166 461.112C39.5684 461.815 38.6912 462.166 37.5347 462.166C36.5773 462.166 35.8468 461.889 35.3433 461.336C34.8452 460.777 34.5934 459.952 34.5879 458.862V453.019H36.1235V458.821C36.1235 460.182 36.6769 460.863 37.7837 460.863C38.9569 460.863 39.7371 460.426 40.1245 459.551V453.019H41.6602V462H40.1992L40.166 461.112ZM49.5459 462C49.4574 461.823 49.3854 461.507 49.3301 461.054C48.6162 461.795 47.764 462.166 46.7734 462.166C45.888 462.166 45.1603 461.917 44.5903 461.419C44.0259 460.915 43.7437 460.279 43.7437 459.51C43.7437 458.575 44.0978 457.85 44.8062 457.335C45.52 456.815 46.5216 456.555 47.811 456.555H49.3052V455.849C49.3052 455.312 49.1447 454.886 48.8237 454.571C48.5028 454.25 48.0296 454.089 47.4043 454.089C46.8564 454.089 46.3971 454.228 46.0264 454.504C45.6556 454.781 45.4702 455.116 45.4702 455.509H43.9263C43.9263 455.061 44.084 454.629 44.3994 454.214C44.7204 453.793 45.152 453.461 45.6943 453.218C46.2422 452.974 46.8426 452.853 47.4956 452.853C48.5304 452.853 49.3411 453.113 49.9277 453.633C50.5143 454.147 50.8187 454.859 50.8408 455.766V459.9C50.8408 460.724 50.946 461.38 51.1562 461.867V462H49.5459ZM46.9976 460.83C47.479 460.83 47.9355 460.705 48.3672 460.456C48.7988 460.207 49.1115 459.883 49.3052 459.485V457.642H48.1016C46.2201 457.642 45.2793 458.193 45.2793 459.294C45.2793 459.775 45.4398 460.152 45.7607 460.423C46.0817 460.694 46.494 460.83 46.9976 460.83ZM54.9165 462H53.3809V449.25H54.9165V462ZM62.9268 462C62.8382 461.823 62.7663 461.507 62.7109 461.054C61.9971 461.795 61.1449 462.166 60.1543 462.166C59.2689 462.166 58.5412 461.917 57.9712 461.419C57.4067 460.915 57.1245 460.279 57.1245 459.51C57.1245 458.575 57.4787 457.85 58.187 457.335C58.9009 456.815 59.9025 456.555 61.1919 456.555H62.686V455.849C62.686 455.312 62.5256 454.886 62.2046 454.571C61.8836 454.25 61.4105 454.089 60.7852 454.089C60.2373 454.089 59.778 454.228 59.4072 454.504C59.0365 454.781 58.8511 455.116 58.8511 455.509H57.3071C57.3071 455.061 57.4648 454.629 57.7803 454.214C58.1012 453.793 58.5329 453.461 59.0752 453.218C59.623 452.974 60.2235 452.853 60.8765 452.853C61.9113 452.853 62.722 453.113 63.3086 453.633C63.8952 454.147 64.1995 454.859 64.2217 455.766V459.9C64.2217 460.724 64.3268 461.38 64.5371 461.867V462H62.9268ZM60.3784 460.83C60.8599 460.83 61.3164 460.705 61.748 460.456C62.1797 460.207 62.4924 459.883 62.686 459.485V457.642H61.4824C59.6009 457.642 58.6602 458.193 58.6602 459.294C58.6602 459.775 58.8206 460.152 59.1416 460.423C59.4626 460.694 59.8748 460.83 60.3784 460.83ZM72.6885 460.697H78.416V462H71.0864V449.914H72.6885V460.697ZM85.5381 462C85.4495 461.823 85.3776 461.507 85.3223 461.054C84.6084 461.795 83.7562 462.166 82.7656 462.166C81.8802 462.166 81.1525 461.917 80.5825 461.419C80.0181 460.915 79.7358 460.279 79.7358 459.51C79.7358 458.575 80.09 457.85 80.7983 457.335C81.5122 456.815 82.5138 456.555 83.8032 456.555H85.2974V455.849C85.2974 455.312 85.1369 454.886 84.8159 454.571C84.495 454.25 84.0218 454.089 83.3965 454.089C82.8486 454.089 82.3893 454.228 82.0186 454.504C81.6478 454.781 81.4624 455.116 81.4624 455.509H79.9185C79.9185 455.061 80.0762 454.629 80.3916 454.214C80.7126 453.793 81.1442 453.461 81.6865 453.218C82.2344 452.974 82.8348 452.853 83.4878 452.853C84.5226 452.853 85.3333 453.113 85.9199 453.633C86.5065 454.147 86.8109 454.859 86.833 455.766V459.9C86.833 460.724 86.9382 461.38 87.1484 461.867V462H85.5381ZM82.9897 460.83C83.4712 460.83 83.9277 460.705 84.3594 460.456C84.791 460.207 85.1037 459.883 85.2974 459.485V457.642H84.0938C82.2122 457.642 81.2715 458.193 81.2715 459.294C81.2715 459.775 81.432 460.152 81.7529 460.423C82.0739 460.694 82.4862 460.83 82.9897 460.83ZM90.6846 453.019L90.7261 454.015C91.3846 453.24 92.2728 452.853 93.3906 452.853C94.6468 452.853 95.5018 453.334 95.9556 454.297C96.2544 453.865 96.6418 453.517 97.1177 453.251C97.5991 452.985 98.1663 452.853 98.8193 452.853C100.789 452.853 101.791 453.896 101.824 455.982V462H100.289V456.073C100.289 455.431 100.142 454.953 99.8486 454.637C99.5553 454.316 99.0628 454.156 98.3711 454.156C97.8011 454.156 97.328 454.327 96.9517 454.67C96.5754 455.008 96.3568 455.465 96.2959 456.04V462H94.752V456.115C94.752 454.809 94.1128 454.156 92.8345 454.156C91.8273 454.156 91.1383 454.585 90.7676 455.442V462H89.2319V453.019H90.6846ZM111.735 457.609C111.735 458.976 111.423 460.077 110.797 460.913C110.172 461.748 109.325 462.166 108.257 462.166C107.167 462.166 106.309 461.82 105.684 461.128V465.453H104.148V453.019H105.551L105.626 454.015C106.251 453.24 107.12 452.853 108.232 452.853C109.312 452.853 110.164 453.259 110.789 454.073C111.42 454.886 111.735 456.018 111.735 457.468V457.609ZM110.2 457.435C110.2 456.422 109.984 455.622 109.552 455.036C109.121 454.449 108.528 454.156 107.776 454.156C106.846 454.156 106.149 454.568 105.684 455.393V459.684C106.143 460.503 106.846 460.913 107.792 460.913C108.528 460.913 109.112 460.622 109.544 460.041C109.981 459.454 110.2 458.586 110.2 457.435ZM119.239 461.112C118.642 461.815 117.764 462.166 116.608 462.166C115.651 462.166 114.92 461.889 114.417 461.336C113.918 460.777 113.667 459.952 113.661 458.862V453.019H115.197V458.821C115.197 460.182 115.75 460.863 116.857 460.863C118.03 460.863 118.81 460.426 119.198 459.551V453.019H120.733V462H119.272L119.239 461.112ZM127.416 454.396C127.183 454.358 126.931 454.338 126.66 454.338C125.653 454.338 124.97 454.767 124.61 455.625V462H123.074V453.019H124.568L124.593 454.056C125.097 453.254 125.811 452.853 126.735 452.853C127.034 452.853 127.261 452.891 127.416 452.969V454.396Z" fill="#18315A"/>
<path d="M427 407C437.493 407 446 398.493 446 388C446 377.507 437.493 369 427 369C416.507 369 408 377.507 408 388C408 398.493 416.507 407 427 407Z" fill="#FFE8E8"/>
<path d="M408 388C408 377.507 416.507 369 427 369C437.493 369 446 377.507 446 388" fill="#F10411"/>
<path d="M419.565 378.913C419.565 376.145 421.511 373.832 424.109 373.265C423.709 373.178 423.295 373.13 422.87 373.13C419.676 373.13 417.087 375.719 417.087 378.913C417.087 382.107 419.676 384.696 422.87 384.696C423.295 384.696 423.709 384.648 424.109 384.561C421.511 383.994 419.565 381.681 419.565 378.913Z" fill="#F0F0F0"/>
<path d="M427 373.544L427.41 374.806H428.737L427.663 375.586L428.074 376.848L427 376.068L425.926 376.848L426.336 375.586L425.263 374.806H426.59L427 373.544Z" fill="#F0F0F0"/>
<path d="M423.781 376.022L424.191 377.284H425.518L424.444 378.064L424.854 379.326L423.781 378.546L422.707 379.326L423.117 378.064L422.043 377.284H423.371L423.781 376.022Z" fill="#F0F0F0"/>
<path d="M430.219 376.022L430.63 377.284H431.957L430.883 378.064L431.293 379.326L430.219 378.546L429.146 379.326L429.556 378.064L428.482 377.284H429.809L430.219 376.022Z" fill="#F0F0F0"/>
<path d="M428.98 379.739L429.39 381.001H430.717L429.644 381.781L430.054 383.044L428.98 382.264L427.907 383.044L428.317 381.781L427.243 381.001H428.57L428.98 379.739Z" fill="#F0F0F0"/>
<path d="M425.02 379.739L425.43 381.001H426.757L425.683 381.781L426.094 383.044L425.02 382.264L423.946 383.044L424.356 381.781L423.283 381.001H424.61L425.02 379.739Z" fill="#F0F0F0"/>
<path d="M431 104C441.493 104 450 95.4934 450 85C450 74.5066 441.493 66 431 66C420.507 66 412 74.5066 412 85C412 95.4934 420.507 104 431 104Z" fill="#D80027"/>
<path d="M432.962 80.3738C432.53 82.1698 431.763 81.8273 431.386 83.3936C429.168 82.8603 427.802 80.63 428.336 78.412C428.869 76.1941 431.099 74.8282 433.317 75.3615C432.564 78.494 433.348 78.7674 432.962 80.3738Z" fill="#F0F0F0"/>
<path d="M427.206 81.7047C428.781 82.6702 428.218 83.2942 429.591 84.1364C428.399 86.081 425.856 86.6907 423.911 85.4982C421.967 84.3057 421.357 81.7625 422.549 79.8179C425.296 81.502 425.798 80.841 427.206 81.7047Z" fill="#F0F0F0"/>
<path d="M426.694 87.5896C428.099 86.3904 428.518 87.1185 429.743 86.0728C431.224 87.8078 431.018 90.4149 429.283 91.896C427.548 93.377 424.941 93.1707 423.46 91.4359C425.911 89.3442 425.437 88.6622 426.694 87.5896Z" fill="#F0F0F0"/>
<path d="M432.132 89.8959C431.426 88.1891 432.248 88.0151 431.632 86.5268C433.739 85.6545 436.155 86.656 437.028 88.7637C437.9 90.8715 436.898 93.2874 434.791 94.1597C433.559 91.1829 432.764 91.4226 432.132 89.8959Z" fill="#F0F0F0"/>
<path d="M436.006 85.4361C434.164 85.5806 434.253 84.7449 432.647 84.8709C432.469 82.5969 434.168 80.6085 436.442 80.43C438.716 80.252 440.704 81.951 440.883 84.2252C437.671 84.477 437.653 85.307 436.006 85.4361Z" fill="#F0F0F0"/>
<path d="M160 104C170.493 104 179 95.4934 179 85C179 74.5066 170.493 66 160 66C149.507 66 141 74.5066 141 85C141 95.4934 149.507 104 160 104Z" fill="#F0F0F0"/>
<path d="M151.739 91.6086L153.391 102.818C155.45 103.582 157.676 104 160 104C168.169 104 175.134 98.8439 177.818 91.6086H151.739Z" fill="black"/>
<path d="M151.739 78.3913L153.391 67.1816C155.45 66.4179 157.676 66 160 66C168.169 66 175.134 71.1561 177.818 78.3913H151.739Z" fill="#6DA544"/>
<path d="M141 84.9999C141 93.1692 146.156 100.134 153.391 102.818V67.1816C146.156 69.8662 141 76.8305 141 84.9999Z" fill="#A2001D"/>
<path d="M162 409C172.493 409 181 400.493 181 390C181 379.507 172.493 371 162 371C151.507 371 143 379.507 143 390C143 400.493 151.507 409 162 409Z" fill="#F0F0F0"/>
<path d="M161.174 390H181C181 388.285 180.771 386.624 180.345 385.043H161.174V390Z" fill="#D80027"/>
<path d="M161.174 380.087H178.211C177.048 378.189 175.561 376.511 173.827 375.13H161.174V380.087Z" fill="#D80027"/>
<path d="M162 409C166.472 409 170.582 407.454 173.827 404.87H150.173C153.418 407.454 157.528 409 162 409Z" fill="#D80027"/>
<path d="M145.789 399.913H178.211C179.145 398.389 179.869 396.724 180.345 394.956H143.655C144.131 396.724 144.855 398.389 145.789 399.913Z" fill="#D80027"/>
<path d="M162 390C162 379.507 162 378.27 162 371C151.507 371 143 379.507 143 390H162Z" fill="#0052B4"/>
<path d="M155.635 387.264C153.04 387.264 150.936 385.16 150.936 382.565C150.936 379.97 153.04 377.867 155.635 377.867C156.444 377.867 157.205 378.072 157.869 378.432C156.827 377.412 155.401 376.783 153.827 376.783C150.634 376.783 148.045 379.372 148.045 382.565C148.045 385.759 150.634 388.348 153.827 388.348C155.401 388.348 156.827 387.719 157.869 386.699C157.205 387.059 156.444 387.264 155.635 387.264Z" fill="#FFDA44"/>
<path d="M156.959 379.261L157.793 381.005L159.676 380.57L158.833 382.31L160.348 383.511L158.462 383.936L158.467 385.87L156.959 384.66L155.45 385.87L155.455 383.936L153.569 383.511L155.084 382.31L154.24 380.57L156.124 381.005L156.959 379.261Z" fill="#FFDA44"/>
<circle cx="349" cy="45" r="10" fill="#6B92D2"/>
<circle cx="100" cy="182" r="10" fill="#6B92D2"/>
<circle cx="118" cy="337" r="10" fill="#6B92D2"/>
<circle cx="233" cy="431" r="10" fill="#6B92D2"/>
<circle cx="470" cy="337" r="10" fill="#6B92D2"/>
<circle cx="485" cy="172" r="10" fill="#6B92D2"/>
<path d="M340.038 259.287H275.637V222.864H265.73V264.307C265.73 267.063 267.964 269.328 270.683 269.328H327.119L315.463 279.959H252.908V219.713H265.632H275.54H317.308C318.571 219.713 319.736 219.221 320.611 218.434L343.34 197.761C344.894 196.383 345.38 194.119 344.7 192.249C343.923 190.28 342.077 189 340.038 189H270.683C267.964 189 265.73 191.264 265.73 194.02V206.522H275.637V199.041H327.119L315.463 209.673H275.637H265.73H247.954C245.234 209.673 243 211.937 243 214.693V284.98C243 287.736 245.234 290 247.954 290H317.308C318.571 290 319.736 289.508 320.611 288.72L343.34 268.048C344.894 266.67 345.38 264.405 344.7 262.535C343.923 260.566 342.077 259.287 340.038 259.287Z" fill="#FE4350" fill-opacity="0.14"/>
</svg>
