<svg width="200" height="192" viewBox="0 0 200 192" fill="none" xmlns="http://www.w3.org/2000/svg">
<path d="M89.626 192C88.3725 192 87.1886 191.652 86.0743 191.025L6.47473 145.062C5.98724 144.783 5.77832 144.296 5.77832 143.808C5.77832 143.251 6.05688 142.833 6.47473 142.555L56.1287 113.863L56.3377 114.002L139.28 161.915C139.768 162.194 139.976 162.681 139.976 163.169C139.976 163.726 139.698 164.144 139.28 164.422L93.1777 191.025C92.0635 191.652 90.8099 192 89.626 192ZM56.0591 114.768L6.82293 143.251C6.61401 143.391 6.47473 143.599 6.47473 143.878C6.47473 144.157 6.61401 144.366 6.82293 144.505L86.4225 190.468C88.3725 191.582 90.8099 191.582 92.8295 190.468L138.932 163.865C139.141 163.726 139.28 163.517 139.28 163.238C139.28 162.96 139.141 162.751 138.932 162.611L56.0591 114.768Z" fill="url(#paint0_linear)"/>
<path d="M55.9893 94.5025L67.0622 28.6918L66.1568 28.3436L67.48 27.5775C67.7586 27.4383 68.1068 27.4383 68.5246 27.6472L157.108 78.8333C157.804 79.2511 158.361 80.3654 158.292 81.0618L147.149 147.36C147.08 147.708 146.94 147.917 146.662 148.056L145.339 148.822L145.13 147.569H145.199L57.1035 96.731C56.4071 96.3132 55.85 95.1989 55.9893 94.5025Z" fill="url(#paint1_linear)"/>
<path d="M156.691 80.5745L158.153 79.9478C158.292 80.296 158.362 80.7138 158.362 81.062L147.219 147.36C147.15 147.708 147.011 147.917 146.732 148.057L145.409 148.823L145.2 147.569H145.27L140.812 144.992L156.691 80.5745Z" fill="url(#paint2_linear)"/>
<path d="M55.7805 97.497L144.364 148.683C145.06 149.101 145.617 148.822 145.757 148.126L156.899 81.8277C157.038 81.0617 156.481 80.0171 155.715 79.5992L67.132 28.4131C66.4356 27.9953 65.8784 28.2738 65.7392 28.9702L54.5966 95.2684C54.4573 96.0345 55.0144 97.0791 55.7805 97.497Z" fill="#24126A"/>
<g opacity="0.51">
<path opacity="0.51" d="M68.3156 32.6611L153.765 81.9669L143.11 144.435L57.7998 95.1291L68.3156 32.6611Z" fill="#453C9E"/>
</g>
<path d="M0.0673828 128.905L4.87261 131.412L53.3427 103.417C54.1784 102.929 55.5712 102.999 56.4766 103.556L140.115 151.817C140.881 151.399 144.572 149.589 144.572 149.589L142.831 154.185C142.762 154.394 142.622 154.603 142.344 154.742L91.297 184.2C90.4613 184.688 89.0685 184.618 88.1632 184.061L2.57446 134.616C2.15661 134.407 1.94769 134.128 1.87805 133.85L0.0673828 128.905Z" fill="url(#paint3_linear)"/>
<path d="M0.763848 129.671L88.5115 180.37C89.4864 180.927 90.9489 180.997 91.7846 180.509L144.155 150.285C144.99 149.798 144.851 148.962 143.946 148.405L56.1284 97.7758C55.1534 97.2187 53.691 97.1491 52.8553 97.6365L0.554925 127.861C-0.280766 128.279 -0.141484 129.184 0.763848 129.671Z" fill="url(#paint4_linear)"/>
<path d="M114.975 169.367V168.392C114.975 168.322 114.906 168.253 114.836 168.322L111.423 170.272C111.354 170.342 111.284 170.412 111.284 170.481V171.456C111.284 171.526 111.354 171.595 111.423 171.526L114.836 169.576C114.906 169.576 114.975 169.506 114.975 169.367Z" fill="#2842A2"/>
<path d="M109.891 172.292V171.317C109.891 171.247 109.822 171.177 109.752 171.247L106.339 173.197C106.27 173.267 106.2 173.336 106.2 173.406V174.381C106.2 174.451 106.27 174.52 106.339 174.451L109.752 172.501C109.822 172.501 109.891 172.431 109.891 172.292Z" fill="#2842A2"/>
<path d="M130.436 147.43L57.5216 105.367C57.0341 105.088 56.4073 105.088 55.9199 105.367L29.9438 120.409C29.5956 120.618 29.5956 121.175 29.9438 121.384L102.788 163.447C103.276 163.726 103.902 163.726 104.39 163.447L130.366 148.474C130.784 148.196 130.784 147.639 130.436 147.43Z" fill="#ADB1F2"/>
<path d="M130.436 148.405L130.157 148.544L57.5216 106.62C57.0341 106.342 56.4073 106.342 55.9199 106.62L30.2223 121.454L29.9438 121.315C29.5956 121.106 29.5956 120.549 29.9438 120.34L55.9199 105.297C56.4073 105.019 57.0341 105.019 57.5216 105.297L130.436 147.36C130.784 147.639 130.784 148.196 130.436 148.405Z" fill="#9198DB"/>
<path d="M54.0381 109.128L117.342 145.689L120.127 144.087L56.8237 107.526L54.0381 109.128Z" fill="#24126A"/>
<path d="M47.1445 113.167L106.479 147.43L109.334 145.829L49.9302 111.496L47.1445 113.167Z" fill="#24126A"/>
<path d="M42.6182 115.744L112.538 156.066L115.393 154.464L45.4734 114.072L42.6182 115.744Z" fill="#24126A"/>
<path d="M38.1602 118.32L108.08 158.712L110.865 157.041L40.9458 116.719L38.1602 118.32Z" fill="#24126A"/>
<path d="M33.6338 120.897L103.553 161.288L106.339 159.687L36.4194 119.295L33.6338 120.897Z" fill="#24126A"/>
<path d="M121.173 147.918L123.958 149.519L126.814 147.918L123.958 146.316L121.173 147.918Z" fill="#24126A"/>
<path d="M111.214 150.146L117.064 153.559L119.919 151.887L114.069 148.544L111.214 150.146Z" fill="#24126A"/>
<path d="M54.7357 157.597L35.097 146.246C34.3309 145.828 34.3309 145.062 35.097 144.644L48.5377 136.914C49.3038 136.496 50.5573 136.496 51.3233 136.914L70.9621 148.265C71.7281 148.683 71.7281 149.449 70.9621 149.867L57.5214 157.597C56.7553 158.085 55.5018 158.085 54.7357 157.597Z" fill="url(#paint5_linear)"/>
<path d="M70.9624 148.892L51.3236 137.541C50.5576 137.123 49.304 137.123 48.538 137.541L35.0973 145.271C34.8884 145.41 34.6794 145.549 34.6098 145.758C34.4009 145.341 34.5402 144.923 35.0973 144.644L48.538 136.914C49.304 136.496 50.5576 136.496 51.3236 136.914L70.9624 148.265C71.5195 148.544 71.6588 149.031 71.4499 149.38C71.3802 149.24 71.2409 149.031 70.9624 148.892Z" fill="#9198DB"/>
<g opacity="0.11">
<g opacity="0.11">
<path opacity="0.11" d="M56.0585 97.636L143.736 148.265C144.711 148.822 146.174 148.892 147.01 148.404L199.38 118.18C200.215 117.693 200.076 116.857 199.171 116.3L111.423 65.6708C110.448 65.1137 108.986 65.0441 108.15 65.5316L55.7799 95.7557C55.0139 96.2432 55.0835 97.0789 56.0585 97.636Z" fill="url(#paint6_linear)"/>
<path opacity="0.11" d="M144.015 106.689L124.376 95.4075C123.61 94.9896 123.61 94.2236 124.376 93.8057L137.817 86.0756C138.583 85.6577 139.837 85.6577 140.603 86.0756L160.241 97.4271C161.007 97.8449 161.007 98.611 160.241 99.0288L146.801 106.759C146.035 107.177 144.781 107.177 144.015 106.689Z" fill="url(#paint7_linear)"/>
<path opacity="0.11" d="M160.241 97.984L140.602 86.6325C139.836 86.2147 138.582 86.2147 137.816 86.6325L124.376 94.3627C124.167 94.502 123.958 94.6412 123.888 94.8502C123.679 94.4323 123.818 94.0145 124.376 93.7359L137.816 86.0058C138.582 85.5879 139.836 85.5879 140.602 86.0058L160.241 97.3572C160.798 97.6358 160.937 98.1233 160.728 98.4715C160.659 98.3322 160.519 98.1233 160.241 97.984Z" fill="#9198DB"/>
<g opacity="0.11">
<path opacity="0.11" d="M168.876 124.448L95.962 82.3847C95.4745 82.1061 94.8478 82.1061 94.3603 82.3847L68.3842 97.4271C68.036 97.6361 68.036 98.1932 68.3842 98.4021L141.229 140.465C141.716 140.744 142.343 140.744 142.83 140.465L168.806 125.492C169.294 125.214 169.294 124.657 168.876 124.448Z" fill="#ADB1F2"/>
<path opacity="0.11" d="M168.877 125.423L168.599 125.562L95.963 83.6381C95.4755 83.3595 94.8487 83.3595 94.3613 83.6381L68.6637 98.4716L68.3852 98.3323C68.037 98.1234 68.037 97.5663 68.3852 97.3573L94.3613 82.3149C94.8487 82.0363 95.4755 82.0363 95.963 82.3149L168.877 124.378C169.295 124.657 169.295 125.214 168.877 125.423Z" fill="#9198DB"/>
<g opacity="0.11">
<path opacity="0.11" d="M75.2795 96.3828L138.792 133.014L136.285 134.476L72.7725 97.8453L75.2795 96.3828Z" fill="#24126A"/>
<path opacity="0.11" d="M81.9651 92.4829L142.344 127.373L139.767 128.766L79.458 93.9454L81.9651 92.4829Z" fill="#24126A"/>
<path opacity="0.11" d="M146.801 129.95L152.442 133.223L149.935 134.685L144.294 131.412L146.801 129.95Z" fill="#24126A"/>
<path opacity="0.11" d="M141.856 134.825L145.756 137.053L143.249 138.516L139.349 136.287L141.856 134.825Z" fill="#24126A"/>
<path opacity="0.11" d="M86.1428 90.1152L156.619 130.786L154.112 132.248L83.6357 91.5081L86.1428 90.1152Z" fill="#24126A"/>
<path opacity="0.11" d="M90.3215 87.6777L160.868 128.348L158.361 129.811L87.8145 89.1402L90.3215 87.6777Z" fill="#24126A"/>
<path opacity="0.11" d="M94.5699 85.2402L165.047 125.911L162.539 127.373L91.9932 86.7027L94.5699 85.2402Z" fill="#24126A"/>
</g>
</g>
</g>
</g>
<path opacity="0.5" d="M79.3888 7.45158L69.9873 2.08923V0L79.3888 5.43199V7.45158Z" fill="#42E8E0"/>
<path opacity="0.5" d="M84.1937 10.2371L80.7812 8.28717V6.26758L84.1937 8.21753V10.2371Z" fill="#42E8E0"/>
<path opacity="0.5" d="M87.8851 12.3958L85.5869 11.0726V8.9834L87.8851 10.3066V12.3958Z" fill="#42E8E0"/>
<path opacity="0.5" d="M75.1407 9.68016L69.9873 6.75524V4.66602L75.1407 7.66058V9.68016Z" fill="#42E8E0"/>
<path opacity="0.5" d="M82.8019 14.137L76.5342 10.5157V8.49609L82.8019 12.1174V14.137Z" fill="#42E8E0"/>
<path opacity="0.5" d="M86.4922 16.2962L84.2637 14.973V12.8838L86.4922 14.207V16.2962Z" fill="#42E8E0"/>
<path opacity="0.5" d="M90.0442 18.3154L87.7461 16.9922V14.9727L90.0442 16.2958V18.3154Z" fill="#42E8E0"/>
<path d="M73.6783 13.5798L69.9873 11.4906V9.40137L73.6783 11.5602V13.5798Z" fill="#42E8E0"/>
<path d="M76.3942 15.1123L75.1406 14.4159V12.3267L76.3942 13.0927V15.1123Z" fill="#42E8E0"/>
<path opacity="0.5" d="M80.085 17.271L77.8564 15.9478V13.9282L80.085 15.2514V17.271Z" fill="#42E8E0"/>
<path opacity="0.5" d="M83.6369 24.026L69.9873 16.1566V14.0674L83.6369 21.9368V24.026Z" fill="#42E8E0"/>
<path opacity="0.5" d="M88.4424 26.8121L85.0996 24.8622V22.7729L88.4424 24.7229V26.8121Z" fill="#42E8E0"/>
<path opacity="0.5" d="M73.6783 22.9817L69.9873 20.8925V18.8032L73.6783 20.9621V22.9817Z" fill="#42E8E0"/>
<path opacity="0.5" d="M82.3833 27.9957L75.1406 23.8173V21.728L82.3833 25.9065V27.9957Z" fill="#42E8E0"/>
<path opacity="0.5" d="M86.0745 30.1546L83.7764 28.8314V26.7422L86.0745 28.0654V30.1546Z" fill="#42E8E0"/>
<path opacity="0.5" d="M77.5782 29.9458L69.9873 25.5585V23.4692L77.5782 27.8566V29.9458Z" fill="#42E8E0"/>
<path d="M84.4733 33.9155L78.9717 30.7816V28.6924L84.4733 31.8262V33.9155Z" fill="#42E8E0"/>
<path opacity="0.5" d="M89.5562 36.8401L85.8652 34.7508V32.6616L89.5562 34.8205V36.8401Z" fill="#42E8E0"/>
<path opacity="0.5" d="M72.564 31.7563L69.9873 30.2242V28.2046L72.564 29.667V31.7563Z" fill="#42E8E0"/>
<path opacity="0.5" d="M77.3694 34.472L73.957 32.5917V30.5024L77.3694 32.4524V34.472Z" fill="#42E8E0"/>
<path opacity="0.5" d="M84.2634 38.4415L78.7617 35.3077V33.2881L84.2634 36.4219V38.4415Z" fill="#42E8E0"/>
<path opacity="0.5" d="M77.8567 39.4865L69.9873 34.9598V32.8706L77.8567 37.3973V39.4865Z" fill="#42E8E0"/>
<path opacity="0.5" d="M86.5613 44.5006L79.249 40.3221V38.2329L86.5613 42.481V44.5006Z" fill="#42E8E0"/>
<path d="M90.3226 46.6597L88.0244 45.3365V43.3169L90.3226 44.6401V46.6597Z" fill="#42E8E0"/>
<path opacity="0.5" d="M93.8743 48.7488L91.5762 47.4257V45.3364L93.8743 46.6596V48.7488Z" fill="#42E8E0"/>
<path opacity="0.5" d="M74.7229 42.3415L69.9873 39.6255V37.606L74.7229 40.322V42.3415Z" fill="#42E8E0"/>
<path d="M94.292 16.0873L100.769 19.8479V17.7587L94.292 13.998V16.0873Z" fill="#42E8E0"/>
<path opacity="0.5" d="M95.6855 21.5887L100.769 24.5137V22.4941L95.6855 19.4995V21.5887Z" fill="#42E8E0"/>
<path opacity="0.5" d="M97.0781 27.0902L100.769 29.2491V27.1598L97.0781 25.001V27.0902Z" fill="#42E8E0"/>
<path opacity="0.5" d="M95.4062 30.8509L100.769 33.9152V31.8956L95.4062 28.7617V30.8509Z" fill="#42E8E0"/>
<path opacity="0.5" d="M97.0781 36.4916L100.769 38.6504V36.5612L97.0781 34.4023V36.4916Z" fill="#42E8E0"/>
<path opacity="0.5" d="M96.1025 40.6006L100.768 43.3166V41.2971L96.1025 38.5811V40.6006Z" fill="#42E8E0"/>
<path opacity="0.5" d="M98.1914 46.5201L100.768 48.0522V45.9629L98.1914 44.5005V46.5201Z" fill="#42E8E0"/>
<path opacity="0.5" d="M95.8242 49.8629L100.769 52.7181V50.6985L95.8242 47.8433V49.8629Z" fill="#42E8E0"/>
<path opacity="0.5" d="M96.1025 54.7377L100.768 57.4537V55.3644L96.1025 52.6484V54.7377Z" fill="#42E8E0"/>
<path opacity="0.5" d="M78.1348 44.3612L76.1152 43.1773V41.1577L78.1348 42.272V44.3612Z" fill="#42E8E0"/>
<path opacity="0.5" d="M84.055 47.7739L79.5283 45.1971V43.1079L84.055 45.6846V47.7739Z" fill="#42E8E0"/>
<path opacity="0.5" d="M115.741 28.3437L106.34 22.9813V20.8921L115.741 26.3241V28.3437Z" fill="#42E8E0"/>
<path opacity="0.5" d="M120.478 31.1297L117.135 29.1797V27.1602L120.478 29.1101V31.1297Z" fill="#42E8E0"/>
<path d="M124.238 33.2884L121.939 31.9652V29.876L124.238 31.1992V33.2884Z" fill="#42E8E0"/>
<path opacity="0.5" d="M111.424 30.5724L106.34 27.6475V25.6279L111.424 28.5529V30.5724Z" fill="#42E8E0"/>
<path opacity="0.5" d="M119.153 35.0296L112.886 31.4083V29.3887L119.153 33.01V35.0296Z" fill="#42E8E0"/>
<path d="M122.844 37.1883L120.546 35.8651V33.7759L122.844 35.0991V37.1883Z" fill="#42E8E0"/>
<path opacity="0.5" d="M126.397 39.208L124.099 37.8848V35.8652L126.397 37.1884V39.208Z" fill="#42E8E0"/>
<path opacity="0.5" d="M110.031 34.4724L106.34 32.3832V30.2939L110.031 32.4528V34.4724Z" fill="#42E8E0"/>
<path opacity="0.5" d="M112.747 36.0737L111.493 35.3077V33.2881L112.747 33.9845V36.0737Z" fill="#42E8E0"/>
<path opacity="0.5" d="M116.438 38.1631L114.14 36.8399V34.8203L116.438 36.1435V38.1631Z" fill="#42E8E0"/>
<path opacity="0.5" d="M119.989 44.9183L106.34 37.0489V35.0293L119.989 42.8987V44.9183Z" fill="#42E8E0"/>
<path opacity="0.5" d="M124.794 47.7042L121.382 45.7543V43.665L124.794 45.615V47.7042Z" fill="#42E8E0"/>
<path opacity="0.5" d="M110.031 43.8738L106.34 41.7845V39.6953L110.031 41.8542V43.8738Z" fill="#42E8E0"/>
<path opacity="0.5" d="M118.666 48.8883L111.493 44.7098V42.6206L118.666 46.7991V48.8883Z" fill="#42E8E0"/>
<path opacity="0.5" d="M122.427 51.0467L120.129 49.7235V47.6343L122.427 48.9575V51.0467Z" fill="#42E8E0"/>
<path d="M113.861 50.8379L106.34 46.4506V44.3613L113.861 48.7487V50.8379Z" fill="#42E8E0"/>
<path opacity="0.5" d="M120.825 54.8075L115.323 51.6737V49.5845L120.825 52.7183V54.8075Z" fill="#42E8E0"/>
<path opacity="0.5" d="M125.909 57.7322L122.218 55.6429V53.5537L125.909 55.7126V57.7322Z" fill="#42E8E0"/>
<path opacity="0.5" d="M108.917 52.6484L106.34 51.1859V49.0967L108.917 50.5591V52.6484Z" fill="#42E8E0"/>
<path opacity="0.5" d="M113.722 55.4342L110.31 53.4842V51.395L113.722 53.345V55.4342Z" fill="#42E8E0"/>
<path d="M120.546 59.3341L115.114 56.2002V54.1807L120.546 57.3145V59.3341Z" fill="#42E8E0"/>
<path opacity="0.5" d="M114.14 60.3791L106.34 55.8524V53.7632L114.14 58.2898V60.3791Z" fill="#42E8E0"/>
<path opacity="0.5" d="M122.915 65.3927L115.603 61.2142V59.125L122.915 63.3731V65.3927Z" fill="#42E8E0"/>
<path opacity="0.5" d="M126.605 67.5518L124.377 66.2286V64.209L126.605 65.5322V67.5518Z" fill="#42E8E0"/>
<path opacity="0.5" d="M130.227 69.6409L127.929 68.3177V66.2285L130.227 67.5517V69.6409Z" fill="#42E8E0"/>
<path opacity="0.5" d="M111.006 63.2341L106.34 60.5878V58.4985L111.006 61.2145V63.2341Z" fill="#42E8E0"/>
<path d="M130.645 36.9794L137.121 40.74V38.6507L130.645 34.8901V36.9794Z" fill="#42E8E0"/>
<path opacity="0.5" d="M132.037 42.4808L137.121 45.4057V43.3862L132.037 40.3916V42.4808Z" fill="#42E8E0"/>
<path opacity="0.5" d="M133.43 47.9825L137.121 50.1413V48.0521L133.43 45.9629V47.9825Z" fill="#42E8E0"/>
<path opacity="0.5" d="M131.759 51.743L137.121 54.8072V52.7877L131.759 49.6538V51.743Z" fill="#42E8E0"/>
<path opacity="0.5" d="M133.43 57.3842L137.121 59.543V57.4538L133.43 55.2949V57.3842Z" fill="#42E8E0"/>
<path opacity="0.5" d="M132.455 61.4927L137.121 64.2087V62.1891L132.455 59.4731V61.4927Z" fill="#42E8E0"/>
<path opacity="0.5" d="M134.545 67.4122L137.122 68.9443V66.855L134.545 65.3926V67.4122Z" fill="#42E8E0"/>
<path opacity="0.5" d="M132.177 70.7554L137.121 73.6107V71.5911L132.177 68.7358V70.7554Z" fill="#42E8E0"/>
<path opacity="0.5" d="M132.455 75.6302L137.121 78.3462V76.257L132.455 73.541V75.6302Z" fill="#42E8E0"/>
<path d="M114.419 65.2538L112.469 64.0699V62.0503L114.419 63.1645V65.2538Z" fill="#42E8E0"/>
<path opacity="0.5" d="M120.338 68.6659L115.881 66.0892V64L120.338 66.5767V68.6659Z" fill="#42E8E0"/>
<path opacity="0.5" d="M79.3888 49.7934L69.9873 44.3614V42.3418L79.3888 47.7042V49.7934Z" fill="#42E8E0"/>
<path opacity="0.5" d="M84.1937 52.5792L80.7812 50.6293V48.54L84.1937 50.49V52.5792Z" fill="#42E8E0"/>
<path opacity="0.5" d="M87.8851 54.7381L85.5869 53.4149V51.3257L87.8851 52.6489V54.7381Z" fill="#42E8E0"/>
<path opacity="0.5" d="M75.1407 52.022L69.9873 49.097V47.0078L75.1407 50.0024V52.022Z" fill="#42E8E0"/>
<path opacity="0.5" d="M82.8019 56.4786L76.5342 52.8573V50.7681L82.8019 54.3894V56.4786Z" fill="#42E8E0"/>
<path opacity="0.5" d="M86.4922 58.6375L84.2637 57.3143V55.2251L86.4922 56.5483V58.6375Z" fill="#42E8E0"/>
<path opacity="0.5" d="M90.0442 60.6572L87.7461 59.334V57.3145L90.0442 58.6376V60.6572Z" fill="#42E8E0"/>
<path opacity="0.5" d="M73.6783 55.9216L69.9873 53.7627V51.7432L73.6783 53.8324V55.9216Z" fill="#42E8E0"/>
<path opacity="0.5" d="M76.3942 57.4536L75.1406 56.7572V54.668L76.3942 55.434V57.4536Z" fill="#42E8E0"/>
<path opacity="0.5" d="M80.085 59.6123L77.8564 58.2891V56.2695L80.085 57.5927V59.6123Z" fill="#42E8E0"/>
<path opacity="0.5" d="M83.6369 66.3678L69.9873 58.4984V56.4092L83.6369 64.2786V66.3678Z" fill="#42E8E0"/>
<path opacity="0.5" d="M88.4424 69.1534L85.0996 67.2035V65.1143L88.4424 67.0642V69.1534Z" fill="#42E8E0"/>
<path opacity="0.5" d="M73.6783 65.323L69.9873 63.1641V61.1445L73.6783 63.2338V65.323Z" fill="#42E8E0"/>
<path opacity="0.5" d="M82.3833 70.3375L75.1406 66.1591V64.0698L82.3833 68.2483V70.3375Z" fill="#42E8E0"/>
<path opacity="0.5" d="M86.0745 72.4964L83.7764 71.1732V69.084L86.0745 70.4072V72.4964Z" fill="#42E8E0"/>
<path opacity="0.5" d="M77.5782 72.2175L69.9873 67.8998V65.8105L77.5782 70.1979V72.2175Z" fill="#42E8E0"/>
<path opacity="0.5" d="M84.4733 76.2568L78.9717 73.0533V71.0337L84.4733 74.1675V76.2568Z" fill="#42E8E0"/>
<path opacity="0.5" d="M89.5562 79.1819L85.8652 77.023V75.0034L89.5562 77.1623V79.1819Z" fill="#42E8E0"/>
<path opacity="0.5" d="M72.564 74.0284L69.9873 72.566V70.5464L72.564 72.0088V74.0284Z" fill="#42E8E0"/>
<path opacity="0.5" d="M77.3694 76.8143L73.957 74.8643V72.8447L77.3694 74.7947V76.8143Z" fill="#42E8E0"/>
<path opacity="0.5" d="M84.2634 80.7838L78.7617 77.65V75.6304L84.2634 78.7642V80.7838Z" fill="#42E8E0"/>
<path opacity="0.5" d="M77.8567 81.8283L69.9873 77.3016V75.2124L77.8567 79.7391V81.8283Z" fill="#42E8E0"/>
<path opacity="0.5" d="M86.5613 86.8424L79.249 82.5943V80.5747L86.5613 84.8228V86.8424Z" fill="#42E8E0"/>
<path opacity="0.5" d="M90.3226 89.001L88.0244 87.6778V85.6582L90.3226 86.9814V89.001Z" fill="#42E8E0"/>
<path opacity="0.5" d="M93.8743 91.0901L91.5762 89.767V87.6777L93.8743 89.0009V91.0901Z" fill="#42E8E0"/>
<path opacity="0.5" d="M74.7229 84.6833L69.9873 81.9673V79.9478L74.7229 82.6637V84.6833Z" fill="#42E8E0"/>
<path opacity="0.5" d="M94.292 58.4286L100.769 62.1196V60.1L94.292 56.3394V58.4286Z" fill="#42E8E0"/>
<path opacity="0.5" d="M95.6855 63.93L100.769 66.855V64.7657L95.6855 61.8408V63.93Z" fill="#42E8E0"/>
<path opacity="0.5" d="M97.0781 69.432L100.769 71.5212V69.5016L97.0781 67.3428V69.432Z" fill="#42E8E0"/>
<path opacity="0.5" d="M95.4062 73.1231L100.769 76.2569V74.1677L95.4062 71.1035V73.1231Z" fill="#42E8E0"/>
<path opacity="0.5" d="M97.0781 78.8339L100.769 80.9231V78.9035L97.0781 76.7446V78.8339Z" fill="#42E8E0"/>
<path opacity="0.5" d="M96.1025 82.9424L100.768 85.6584V83.5692L96.1025 80.9229V82.9424Z" fill="#42E8E0"/>
<path opacity="0.5" d="M98.1914 88.8619L100.768 90.3243V88.3047L98.1914 86.8423V88.8619Z" fill="#42E8E0"/>
<path opacity="0.5" d="M95.8242 92.2045L100.769 95.0597V92.9705L95.8242 90.1152V92.2045Z" fill="#42E8E0"/>
<path opacity="0.5" d="M96.1025 97.0795L100.768 99.7258V97.7062L96.1025 94.9902V97.0795Z" fill="#42E8E0"/>
<path opacity="0.5" d="M78.1348 86.6332L76.1152 85.5189V83.4297L78.1348 84.6136V86.6332Z" fill="#42E8E0"/>
<path opacity="0.5" d="M84.055 90.1156L79.5283 87.4693V85.4497L84.055 88.0264V90.1156Z" fill="#42E8E0"/>
<path opacity="0.5" d="M87.7452 105.924L80.1543 101.536V99.4473L87.7452 103.835V105.924Z" fill="#42E8E0"/>
<path opacity="0.5" d="M92.8995 108.918L89.9746 107.177V105.088L92.8995 106.829V108.918Z" fill="#42E8E0"/>
<path opacity="0.5" d="M115.741 70.6855L106.34 65.2535V63.2339L115.741 68.6659V70.6855Z" fill="#42E8E0"/>
<path opacity="0.5" d="M120.478 73.4713L117.135 71.5214V69.4321L120.478 71.3821V73.4713Z" fill="#42E8E0"/>
<path opacity="0.5" d="M124.238 75.6302L121.939 74.307V72.2178L124.238 73.541V75.6302Z" fill="#42E8E0"/>
<path opacity="0.5" d="M111.424 72.914L106.34 69.9891V67.8999L111.424 70.8945V72.914Z" fill="#42E8E0"/>
<path opacity="0.5" d="M119.153 77.3709L112.886 73.7496V71.73L119.153 75.2817V77.3709Z" fill="#42E8E0"/>
<path opacity="0.5" d="M122.844 79.5296L120.546 78.2064V76.1172L122.844 77.4404V79.5296Z" fill="#42E8E0"/>
<path opacity="0.5" d="M126.397 81.5493L124.099 80.2261V78.2065L126.397 79.5297V81.5493Z" fill="#42E8E0"/>
<path opacity="0.5" d="M110.031 76.8137L106.34 74.6548V72.6353L110.031 74.7245V76.8137Z" fill="#42E8E0"/>
<path opacity="0.5" d="M112.747 78.3462L111.493 77.6498V75.5605L112.747 76.3266V78.3462Z" fill="#42E8E0"/>
<path opacity="0.5" d="M116.438 80.5049L114.14 79.1817V77.1621L116.438 78.4853V80.5049Z" fill="#42E8E0"/>
<path opacity="0.5" d="M119.989 87.2599L106.34 79.3905V77.3013L119.989 85.1707V87.2599Z" fill="#42E8E0"/>
<path opacity="0.5" d="M124.794 90.0455L121.382 88.0956V86.0063L124.794 87.9563V90.0455Z" fill="#42E8E0"/>
<path opacity="0.5" d="M110.031 86.2156L106.34 84.0567V82.0371L110.031 84.1263V86.2156Z" fill="#42E8E0"/>
<path opacity="0.5" d="M118.666 91.2296L111.493 87.0511V84.9619L118.666 89.1404V91.2296Z" fill="#42E8E0"/>
<path opacity="0.5" d="M122.427 93.3885L120.129 92.0653V89.9761L122.427 91.2993V93.3885Z" fill="#42E8E0"/>
<path opacity="0.5" d="M113.861 93.1101L106.34 88.7924V86.7031L113.861 91.0905V93.1101Z" fill="#42E8E0"/>
<path opacity="0.5" d="M120.825 97.1493L115.323 93.9459V91.9263L120.825 95.0601V97.1493Z" fill="#42E8E0"/>
<path opacity="0.5" d="M125.909 100.074L122.218 97.9847V95.8955L125.909 98.0544V100.074Z" fill="#42E8E0"/>
<path opacity="0.5" d="M108.917 94.9205L106.34 93.4581V91.4385L108.917 92.9009V94.9205Z" fill="#42E8E0"/>
<path opacity="0.5" d="M113.722 97.7063L110.31 95.7564V93.7368L113.722 95.6868V97.7063Z" fill="#42E8E0"/>
<path opacity="0.5" d="M120.546 101.676L115.114 98.542V96.5225L120.546 99.6563V101.676Z" fill="#42E8E0"/>
<path opacity="0.5" d="M114.14 102.72L106.34 98.1937V96.1045L114.14 100.631V102.72Z" fill="#42E8E0"/>
<path opacity="0.5" d="M122.915 107.734L115.603 103.556V101.467L122.915 105.715V107.734Z" fill="#42E8E0"/>
<path opacity="0.5" d="M126.605 109.894L124.377 108.57V106.551L126.605 107.874V109.894Z" fill="#42E8E0"/>
<path opacity="0.5" d="M130.227 111.983L127.929 110.66V108.57L130.227 109.893V111.983Z" fill="#42E8E0"/>
<path opacity="0.5" d="M111.006 105.575L106.34 102.859V100.84L111.006 103.556V105.575Z" fill="#42E8E0"/>
<path opacity="0.5" d="M130.645 79.3212L137.121 83.0818V80.9925L130.645 77.2319V79.3212Z" fill="#42E8E0"/>
<path opacity="0.5" d="M132.037 84.8226L137.121 87.7475V85.6583L132.037 82.7334V84.8226Z" fill="#42E8E0"/>
<path opacity="0.5" d="M133.43 90.3246L137.121 92.4138V90.3942L133.43 88.2354V90.3246Z" fill="#42E8E0"/>
<path opacity="0.5" d="M131.759 94.0152L137.121 97.149V95.0598L131.759 91.9956V94.0152Z" fill="#42E8E0"/>
<path opacity="0.5" d="M133.43 99.7259L137.121 101.815V99.7956L133.43 97.6367V99.7259Z" fill="#42E8E0"/>
<path opacity="0.5" d="M132.455 103.835L137.121 106.551V104.462L132.455 101.815V103.835Z" fill="#42E8E0"/>
<path opacity="0.5" d="M134.545 109.754L137.122 111.217V109.197L134.545 107.735V109.754Z" fill="#42E8E0"/>
<path opacity="0.5" d="M132.177 113.097L137.121 115.952V113.863L132.177 111.008V113.097Z" fill="#42E8E0"/>
<path opacity="0.5" d="M132.455 117.972L137.121 120.618V118.598L132.455 115.882V117.972Z" fill="#42E8E0"/>
<path opacity="0.5" d="M114.419 107.595L112.469 106.411V104.322L114.419 105.506V107.595Z" fill="#42E8E0"/>
<path opacity="0.5" d="M120.338 111.008L115.881 108.361V106.342L120.338 108.919V111.008Z" fill="#42E8E0"/>
<path opacity="0.5" d="M124.099 126.816L116.508 122.429V120.339L124.099 124.727V126.816Z" fill="#42E8E0"/>
<path opacity="0.5" d="M129.251 129.811L126.257 128.07V125.98L129.251 127.721V129.811Z" fill="#42E8E0"/>
<defs>
<linearGradient id="paint0_linear" x1="139.974" y1="152.957" x2="5.72171" y2="152.957" gradientUnits="userSpaceOnUse">
<stop stop-color="#42E8E0"/>
<stop offset="0.1507" stop-color="#43E3E0"/>
<stop offset="0.3285" stop-color="#45D5DF"/>
<stop offset="0.5199" stop-color="#49BDDD"/>
<stop offset="0.7209" stop-color="#4E9CDB"/>
<stop offset="0.9274" stop-color="#5472D8"/>
<stop offset="1" stop-color="#5761D7"/>
</linearGradient>
<linearGradient id="paint1_linear" x1="158.335" y1="88.1024" x2="55.9681" y2="88.1024" gradientUnits="userSpaceOnUse">
<stop stop-color="#C0BFF6"/>
<stop offset="0.2938" stop-color="#C5C4F7"/>
<stop offset="0.6399" stop-color="#D3D2F9"/>
<stop offset="1" stop-color="#E9E9FD"/>
</linearGradient>
<linearGradient id="paint2_linear" x1="158.335" y1="114.355" x2="140.758" y2="114.355" gradientUnits="userSpaceOnUse">
<stop stop-color="#5761D7"/>
<stop offset="0.1779" stop-color="#5C66D9"/>
<stop offset="0.3876" stop-color="#6A73DF"/>
<stop offset="0.6134" stop-color="#8289E8"/>
<stop offset="0.849" stop-color="#A3A7F5"/>
<stop offset="1" stop-color="#BCBEFF"/>
</linearGradient>
<linearGradient id="paint3_linear" x1="144.62" y1="143.866" x2="0.0443313" y2="143.866" gradientUnits="userSpaceOnUse">
<stop stop-color="#5761D7"/>
<stop offset="0.1779" stop-color="#5C66D9"/>
<stop offset="0.3876" stop-color="#6A73DF"/>
<stop offset="0.6134" stop-color="#8289E8"/>
<stop offset="0.849" stop-color="#A3A7F5"/>
<stop offset="1" stop-color="#BCBEFF"/>
</linearGradient>
<linearGradient id="paint4_linear" x1="96.0423" y1="139.045" x2="-48.6106" y2="139.045" gradientUnits="userSpaceOnUse">
<stop stop-color="#C0BFF6"/>
<stop offset="0.2938" stop-color="#C5C4F7"/>
<stop offset="0.6399" stop-color="#D3D2F9"/>
<stop offset="1" stop-color="#E9E9FD"/>
</linearGradient>
<linearGradient id="paint5_linear" x1="71.5457" y1="147.257" x2="34.5185" y2="147.257" gradientUnits="userSpaceOnUse">
<stop stop-color="#C0BFF6"/>
<stop offset="0.2938" stop-color="#C5C4F7"/>
<stop offset="0.6399" stop-color="#D3D2F9"/>
<stop offset="1" stop-color="#E9E9FD"/>
</linearGradient>
<linearGradient id="paint6_linear" x1="151.308" y1="106.983" x2="6.65469" y2="106.983" gradientUnits="userSpaceOnUse">
<stop stop-color="#C0BFF6"/>
<stop offset="0.2938" stop-color="#C5C4F7"/>
<stop offset="0.6399" stop-color="#D3D2F9"/>
<stop offset="1" stop-color="#E9E9FD"/>
</linearGradient>
<linearGradient id="paint7_linear" x1="160.828" y1="96.3643" x2="123.801" y2="96.3643" gradientUnits="userSpaceOnUse">
<stop stop-color="#C0BFF6"/>
<stop offset="0.2938" stop-color="#C5C4F7"/>
<stop offset="0.6399" stop-color="#D3D2F9"/>
<stop offset="1" stop-color="#E9E9FD"/>
</linearGradient>
</defs>
</svg>
