<svg width="92" height="94" viewBox="0 0 92 94" fill="none" xmlns="http://www.w3.org/2000/svg">
<path d="M48.5474 94.0005C47.8684 94.0005 47.2271 93.8119 46.6235 93.4724L3.5071 68.5758C3.24305 68.4249 3.12988 68.1609 3.12988 67.8968C3.12988 67.595 3.28077 67.3687 3.5071 67.2178L30.403 51.6763L30.5162 51.7517L75.4433 77.7046C75.7073 77.8555 75.8205 78.1195 75.8205 78.3836C75.8205 78.6853 75.6696 78.9117 75.4433 79.0626L50.4712 93.4724C49.8676 93.8119 49.1886 94.0005 48.5474 94.0005ZM30.3653 52.1667L3.69572 67.595C3.58255 67.6705 3.5071 67.7836 3.5071 67.9345C3.5071 68.0854 3.58255 68.1986 3.69572 68.274L46.8122 93.1707C47.8684 93.7742 49.1886 93.7742 50.2826 93.1707L75.2547 78.7608C75.3678 78.6853 75.4433 78.5722 75.4433 78.4213C75.4433 78.2704 75.3678 78.1572 75.2547 78.0818L30.3653 52.1667Z" fill="url(#paint0_linear)"/>
<path d="M30.3271 41.1893L36.3249 5.54188L35.8345 5.35327L36.5512 4.93832C36.7021 4.86288 36.8907 4.86288 37.1171 4.97604L85.0997 32.7018C85.4769 32.9282 85.7787 33.5317 85.7409 33.9089L79.7054 69.8204C79.6677 70.0091 79.5922 70.1222 79.4413 70.1977L78.7246 70.6126L78.6114 69.9336H78.6492L30.9306 42.3964C30.5534 42.1701 30.2516 41.5665 30.3271 41.1893Z" fill="url(#paint1_linear)"/>
<path d="M84.8731 33.6452L85.6653 33.3057C85.7407 33.4943 85.7784 33.7206 85.7784 33.9092L79.7429 69.8207C79.7052 70.0093 79.6297 70.1225 79.4788 70.1979L78.7621 70.6129L78.649 69.9339H78.6867L76.2725 68.5382L84.8731 33.6452Z" fill="url(#paint2_linear)"/>
<path d="M30.2134 42.8114L78.196 70.5372C78.5732 70.7635 78.875 70.6126 78.9505 70.2354L84.986 34.3239C85.0615 33.909 84.7597 33.3431 84.3447 33.1168L36.3621 5.39101C35.9849 5.16468 35.6831 5.31557 35.6077 5.69279L29.5721 41.6043C29.4967 42.0192 29.7985 42.5851 30.2134 42.8114Z" fill="#24126A"/>
<g opacity="0.51">
<path opacity="0.51" d="M37.0037 7.69238L83.2888 34.3997L77.5173 68.2365L31.3076 41.5292L37.0037 7.69238Z" fill="#453C9E"/>
</g>
<path d="M0.0371094 59.8242L2.63994 61.1822L28.8946 46.0179C29.3472 45.7538 30.1017 45.7916 30.5921 46.0933L75.8964 72.2348C76.3113 72.0085 78.3106 71.0277 78.3106 71.0277L77.3676 73.5174C77.3298 73.6305 77.2544 73.7437 77.1035 73.8191L49.4531 89.7756C49.0005 90.0397 48.246 90.0019 47.7557 89.7002L1.39511 62.9174C1.16877 62.8043 1.05561 62.6534 1.01789 62.5025L0.0371094 59.8242Z" fill="url(#paint3_linear)"/>
<path d="M0.413751 60.2387L47.9437 87.7005C48.4718 88.0023 49.264 88.04 49.7166 87.7759L78.0837 71.4045C78.5364 71.1405 78.4609 70.6878 77.9705 70.386L30.4029 42.962C29.8748 42.6602 29.0826 42.6225 28.6299 42.8865L0.300584 59.258C-0.152082 59.4843 -0.0766371 59.9747 0.413751 60.2387Z" fill="url(#paint4_linear)"/>
<path d="M62.2786 81.7411V81.213C62.2786 81.1753 62.2408 81.1376 62.2031 81.1753L60.3547 82.2315C60.317 82.2692 60.2793 82.307 60.2793 82.3447V82.8728C60.2793 82.9105 60.317 82.9482 60.3547 82.9105L62.2031 81.8543C62.2408 81.8543 62.2786 81.8166 62.2786 81.7411Z" fill="#2842A2"/>
<path d="M59.5247 83.3251V82.797C59.5247 82.7593 59.4869 82.7216 59.4492 82.7593L57.6008 83.8155C57.5631 83.8532 57.5254 83.8909 57.5254 83.9287V84.4568C57.5254 84.4945 57.5631 84.5322 57.6008 84.4945L59.4492 83.4383C59.4869 83.4383 59.5247 83.4006 59.5247 83.3251Z" fill="#2842A2"/>
<path d="M70.6527 69.8583L31.1576 47.0741C30.8935 46.9232 30.554 46.9232 30.29 47.0741L16.2196 55.2221C16.031 55.3353 16.031 55.637 16.2196 55.7502L55.677 78.5344C55.941 78.6853 56.2805 78.6853 56.5446 78.5344L70.6149 70.4241C70.8413 70.2732 70.8413 69.9715 70.6527 69.8583Z" fill="#ADB1F2"/>
<path d="M70.6527 70.3865L70.5018 70.462L31.1576 47.7532C30.8935 47.6023 30.554 47.6023 30.29 47.7532L16.3705 55.788L16.2196 55.7126C16.031 55.5994 16.031 55.2977 16.2196 55.1845L30.29 47.0365C30.554 46.8856 30.8935 46.8856 31.1576 47.0365L70.6527 69.8207C70.8413 69.9716 70.8413 70.2734 70.6527 70.3865Z" fill="#9198DB"/>
<path d="M29.2715 49.1113L63.5609 68.9154L65.0698 68.0478L30.7804 48.2437L29.2715 49.1113Z" fill="#24126A"/>
<path d="M25.5371 51.2994L57.6764 69.8587L59.223 68.9911L27.046 50.394L25.5371 51.2994Z" fill="#24126A"/>
<path d="M23.0859 52.6949L60.959 74.536L62.5056 73.6684L24.6325 51.7896L23.0859 52.6949Z" fill="#24126A"/>
<path d="M20.6709 54.0907L58.544 75.9696L60.0528 75.0643L22.1798 53.2231L20.6709 54.0907Z" fill="#24126A"/>
<path d="M18.2188 55.4863L56.0918 77.3651L57.6007 76.4975L19.7276 54.6187L18.2188 55.4863Z" fill="#24126A"/>
<path d="M65.6357 70.1225L67.1446 70.9901L68.6912 70.1225L67.1446 69.2549L65.6357 70.1225Z" fill="#24126A"/>
<path d="M60.2412 71.3295L63.4099 73.1779L64.9565 72.2726L61.7878 70.4619L60.2412 71.3295Z" fill="#24126A"/>
<path d="M29.6481 75.3654L19.0104 69.2167C18.5955 68.9904 18.5955 68.5754 19.0104 68.3491L26.2908 64.1619C26.7057 63.9356 27.3847 63.9356 27.7997 64.1619L38.4373 70.3106C38.8523 70.537 38.8523 70.9519 38.4373 71.1783L31.157 75.3654C30.742 75.6295 30.063 75.6295 29.6481 75.3654Z" fill="url(#paint5_linear)"/>
<path d="M38.4382 70.6501L27.8005 64.5014C27.3856 64.2751 26.7066 64.2751 26.2916 64.5014L19.0113 68.6886C18.8981 68.764 18.7849 68.8395 18.7472 68.9527C18.634 68.7263 18.7095 68.5 19.0113 68.3491L26.2916 64.1619C26.7066 63.9356 27.3856 63.9356 27.8005 64.1619L38.4382 70.3106C38.74 70.4615 38.8154 70.7256 38.7022 70.9142C38.6645 70.8388 38.5891 70.7256 38.4382 70.6501Z" fill="#9198DB"/>
<g opacity="0.11">
<g opacity="0.11">
<path opacity="0.11" d="M78.0084 47.7896L67.3708 41.6786C66.9558 41.4523 66.9558 41.0373 67.3708 40.811L74.6512 36.6239C75.0661 36.3975 75.7451 36.3975 76.16 36.6239L86.7977 42.7726C87.2126 42.9989 87.2126 43.4138 86.7977 43.6402L79.5173 47.8273C79.1024 48.0537 78.4234 48.0537 78.0084 47.7896Z" fill="url(#paint6_linear)"/>
<path opacity="0.11" d="M86.7985 43.0745L76.1609 36.9258C75.7459 36.6994 75.0669 36.6994 74.652 36.9258L67.3716 41.1129C67.2585 41.1884 67.1453 41.2638 67.1076 41.377C66.9944 41.1506 67.0698 40.9243 67.3716 40.7734L74.652 36.5863C75.0669 36.3599 75.7459 36.3599 76.1609 36.5863L86.7985 42.735C87.1003 42.8859 87.1758 43.1499 87.0626 43.3385C87.0249 43.2631 86.9494 43.1499 86.7985 43.0745Z" fill="#9198DB"/>
<g opacity="0.11">
<path opacity="0.11" d="M91.4749 57.4091L51.9798 34.6249C51.7158 34.474 51.3763 34.474 51.1122 34.6249L37.0418 42.7729C36.8532 42.886 36.8532 43.1878 37.0418 43.301L76.4992 66.0852C76.7633 66.2361 77.1028 66.2361 77.3668 66.0852L91.4372 57.9749C91.7013 57.824 91.7013 57.5222 91.4749 57.4091Z" fill="#ADB1F2"/>
<path opacity="0.11" d="M91.4749 57.9373L91.3241 58.0128L51.9798 35.304C51.7158 35.1531 51.3763 35.1531 51.1122 35.304L37.1927 43.3388L37.0418 43.2634C36.8532 43.1502 36.8532 42.8484 37.0418 42.7353L51.1122 34.5873C51.3763 34.4364 51.7158 34.4364 51.9798 34.5873L91.4749 57.3715C91.7013 57.5224 91.7013 57.8241 91.4749 57.9373Z" fill="#9198DB"/>
<g opacity="0.11">
<path opacity="0.11" d="M40.7769 42.2075L75.1796 62.0494L73.8216 62.8416L39.4189 42.9997L40.7769 42.2075Z" fill="#24126A"/>
<path opacity="0.11" d="M44.399 40.0952L77.1041 58.994L75.7084 59.7485L43.041 40.8874L44.399 40.0952Z" fill="#24126A"/>
<path opacity="0.11" d="M79.5172 60.3896L82.5727 62.1626L81.2147 62.9548L78.1592 61.1818L79.5172 60.3896Z" fill="#24126A"/>
<path opacity="0.11" d="M76.8394 63.0303L78.9519 64.2374L77.5939 65.0295L75.4814 63.8224L76.8394 63.0303Z" fill="#24126A"/>
<path opacity="0.11" d="M46.6607 38.8125L84.8356 60.8423L83.4776 61.6344L45.3027 39.5669L46.6607 38.8125Z" fill="#24126A"/>
<path opacity="0.11" d="M48.9244 37.4922L87.137 59.5219L85.779 60.3141L47.5664 38.2844L48.9244 37.4922Z" fill="#24126A"/>
<path opacity="0.11" d="M51.2258 36.1719L89.4006 58.2016L88.0426 58.9938L49.8301 36.964L51.2258 36.1719Z" fill="#24126A"/>
</g>
</g>
</g>
</g>
<path opacity="0.5" d="M44.8643 3.46224L40.4961 0.970721V0L44.8643 2.52387V3.46224Z" fill="#42E8E0"/>
<path opacity="0.5" d="M47.0963 4.75599L45.5107 3.84998V2.91162L47.0963 3.81763V4.75599Z" fill="#42E8E0"/>
<path opacity="0.5" d="M48.811 5.75983L47.7432 5.14504V4.17432L48.811 4.78911V5.75983Z" fill="#42E8E0"/>
<path opacity="0.5" d="M42.8896 4.49721L40.4951 3.1382V2.16748L42.8896 3.55885V4.49721Z" fill="#42E8E0"/>
<path opacity="0.5" d="M46.4493 6.5687L43.5371 4.88612V3.94775L46.4493 5.63034V6.5687Z" fill="#42E8E0"/>
<path opacity="0.5" d="M48.1643 7.57135L47.1289 6.95656V5.98584L48.1643 6.60063V7.57135Z" fill="#42E8E0"/>
<path opacity="0.5" d="M49.8139 8.5097L48.7461 7.89491V6.95654L49.8139 7.57133V8.5097Z" fill="#42E8E0"/>
<path d="M42.2101 6.31009L40.4951 5.33937V4.36865L42.2101 5.37173V6.31009Z" fill="#42E8E0"/>
<path d="M43.4721 7.02135L42.8896 6.69777V5.72705L43.4721 6.08298V7.02135Z" fill="#42E8E0"/>
<path opacity="0.5" d="M45.1868 8.02483L44.1514 7.41004V6.47168L45.1868 7.08647V8.02483Z" fill="#42E8E0"/>
<path opacity="0.5" d="M46.8372 11.1637L40.4951 7.50734V6.53662L46.8372 10.193V11.1637Z" fill="#42E8E0"/>
<path opacity="0.5" d="M49.0707 12.4578L47.5176 11.5518V10.5811L49.0707 11.4871V12.4578Z" fill="#42E8E0"/>
<path opacity="0.5" d="M42.2101 10.6778L40.4951 9.70705V8.73633L42.2101 9.73941V10.6778Z" fill="#42E8E0"/>
<path opacity="0.5" d="M46.2548 13.0079L42.8896 11.0664V10.0957L46.2548 12.0371V13.0079Z" fill="#42E8E0"/>
<path opacity="0.5" d="M47.9701 14.0113L46.9023 13.3965V12.4258L47.9701 13.0406V14.0113Z" fill="#42E8E0"/>
<path opacity="0.5" d="M44.0221 13.913L40.4951 11.8745V10.9038L44.0221 12.9423V13.913Z" fill="#42E8E0"/>
<path d="M47.2262 15.7579L44.6699 14.3018V13.3311L47.2262 14.7871V15.7579Z" fill="#42E8E0"/>
<path opacity="0.5" d="M49.587 17.1167L47.8721 16.146V15.1753L49.587 16.1784V17.1167Z" fill="#42E8E0"/>
<path opacity="0.5" d="M41.6923 14.7552L40.4951 14.0433V13.105L41.6923 13.7845V14.7552Z" fill="#42E8E0"/>
<path opacity="0.5" d="M43.9254 16.0172L42.3398 15.1436V14.1729L43.9254 15.0789V16.0172Z" fill="#42E8E0"/>
<path opacity="0.5" d="M47.1285 17.8612L44.5723 16.4052V15.4668L47.1285 16.9229V17.8612Z" fill="#42E8E0"/>
<path opacity="0.5" d="M44.1515 18.3469L40.4951 16.2437V15.2729L44.1515 17.3762V18.3469Z" fill="#42E8E0"/>
<path opacity="0.5" d="M48.1954 20.6763L44.7979 18.7349V17.7642L48.1954 19.738V20.6763Z" fill="#42E8E0"/>
<path d="M49.9438 21.6796L48.876 21.0648V20.1265L49.9438 20.7413V21.6796Z" fill="#42E8E0"/>
<path opacity="0.5" d="M51.5942 22.65L50.5264 22.0352V21.0645L51.5942 21.6792V22.65Z" fill="#42E8E0"/>
<path opacity="0.5" d="M42.6954 19.673L40.4951 18.411V17.4727L42.6954 18.7346V19.673Z" fill="#42E8E0"/>
<path d="M51.7891 7.47463L54.7983 9.22193V8.2512L51.7891 6.50391V7.47463Z" fill="#42E8E0"/>
<path opacity="0.5" d="M52.4355 10.0313L54.7976 11.3903V10.4519L52.4355 9.06055V10.0313Z" fill="#42E8E0"/>
<path opacity="0.5" d="M53.082 12.5869L54.797 13.59V12.6193L53.082 11.6162V12.5869Z" fill="#42E8E0"/>
<path opacity="0.5" d="M52.3057 14.334L54.7972 15.7577V14.8194L52.3057 13.3633V14.334Z" fill="#42E8E0"/>
<path opacity="0.5" d="M53.082 16.9551L54.797 17.9582V16.9875L53.082 15.9844V16.9551Z" fill="#42E8E0"/>
<path opacity="0.5" d="M52.6289 18.8646L54.7968 20.1266V19.1882L52.6289 17.9263V18.8646Z" fill="#42E8E0"/>
<path opacity="0.5" d="M53.5996 21.6146L54.7968 22.3265V21.3558L53.5996 20.6763V21.6146Z" fill="#42E8E0"/>
<path opacity="0.5" d="M52.5 23.1679L54.7974 24.4945V23.5561L52.5 22.2295V23.1679Z" fill="#42E8E0"/>
<path opacity="0.5" d="M52.6289 25.4331L54.7968 26.6951V25.7243L52.6289 24.4624V25.4331Z" fill="#42E8E0"/>
<path opacity="0.5" d="M44.2811 20.6115L43.3428 20.0614V19.123L44.2811 19.6408V20.6115Z" fill="#42E8E0"/>
<path opacity="0.5" d="M47.031 22.1972L44.9277 21V20.0293L47.031 21.2265V22.1972Z" fill="#42E8E0"/>
<path opacity="0.5" d="M61.754 13.1693L57.3857 10.6778V9.70703L61.754 12.2309V13.1693Z" fill="#42E8E0"/>
<path opacity="0.5" d="M63.9545 14.464L62.4014 13.558V12.6196L63.9545 13.5256V14.464Z" fill="#42E8E0"/>
<path d="M65.7016 15.4669L64.6338 14.8521V13.8813L65.7016 14.4961V15.4669Z" fill="#42E8E0"/>
<path opacity="0.5" d="M59.7478 14.2051L57.3857 12.8461V11.9077L59.7478 13.2667V14.2051Z" fill="#42E8E0"/>
<path opacity="0.5" d="M63.3389 16.2757L60.4268 14.5931V13.6548L63.3389 15.3374V16.2757Z" fill="#42E8E0"/>
<path d="M65.0541 17.2784L63.9863 16.6636V15.6929L65.0541 16.3077V17.2784Z" fill="#42E8E0"/>
<path opacity="0.5" d="M66.7045 18.2172L65.6367 17.6024V16.6641L66.7045 17.2789V18.2172Z" fill="#42E8E0"/>
<path opacity="0.5" d="M59.1007 16.0171L57.3857 15.0464V14.0757L59.1007 15.0788V16.0171Z" fill="#42E8E0"/>
<path opacity="0.5" d="M60.3627 16.7611L59.7803 16.4052V15.4668L60.3627 15.7904V16.7611Z" fill="#42E8E0"/>
<path opacity="0.5" d="M62.0776 17.7319L61.0098 17.1171V16.1787L62.0776 16.7935V17.7319Z" fill="#42E8E0"/>
<path opacity="0.5" d="M63.7278 20.8706L57.3857 17.2142V16.2759L63.7278 19.9323V20.8706Z" fill="#42E8E0"/>
<path opacity="0.5" d="M65.9605 22.1648L64.375 21.2588V20.2881L65.9605 21.1941V22.1648Z" fill="#42E8E0"/>
<path opacity="0.5" d="M59.1007 20.3848L57.3857 19.4141V18.4434L59.1007 19.4464V20.3848Z" fill="#42E8E0"/>
<path opacity="0.5" d="M63.1131 22.7154L59.7803 20.7739V19.8032L63.1131 21.7447V22.7154Z" fill="#42E8E0"/>
<path opacity="0.5" d="M64.8598 23.7178L63.792 23.103V22.1323L64.8598 22.7471V23.7178Z" fill="#42E8E0"/>
<path d="M60.8803 23.6206L57.3857 21.582V20.6113L60.8803 22.6498V23.6206Z" fill="#42E8E0"/>
<path opacity="0.5" d="M64.1168 25.4654L61.5605 24.0093V23.0386L64.1168 24.4947V25.4654Z" fill="#42E8E0"/>
<path opacity="0.5" d="M66.4776 26.8243L64.7627 25.8535V24.8828L66.4776 25.8859V26.8243Z" fill="#42E8E0"/>
<path opacity="0.5" d="M58.583 24.4617L57.3857 23.7822V22.8115L58.583 23.491V24.4617Z" fill="#42E8E0"/>
<path opacity="0.5" d="M60.816 25.7566L59.2305 24.8506V23.8799L60.816 24.7859V25.7566Z" fill="#42E8E0"/>
<path d="M63.9868 27.5683L61.4629 26.1122V25.1738L63.9868 26.6299V27.5683Z" fill="#42E8E0"/>
<path opacity="0.5" d="M61.0098 28.0544L57.3857 25.9512V24.9805L61.0098 27.0837V28.0544Z" fill="#42E8E0"/>
<path opacity="0.5" d="M65.087 30.3834L61.6895 28.4419V27.4712L65.087 29.445V30.3834Z" fill="#42E8E0"/>
<path opacity="0.5" d="M66.802 31.3867L65.7666 30.7719V29.8335L66.802 30.4483V31.3867Z" fill="#42E8E0"/>
<path opacity="0.5" d="M68.4848 32.357L67.417 31.7422V30.7715L68.4848 31.3863V32.357Z" fill="#42E8E0"/>
<path opacity="0.5" d="M59.5537 29.3805L57.3857 28.1509V27.1802L59.5537 28.4421V29.3805Z" fill="#42E8E0"/>
<path d="M68.6777 17.1817L71.687 18.929V17.9582L68.6777 16.2109V17.1817Z" fill="#42E8E0"/>
<path opacity="0.5" d="M69.3252 19.7378L71.6873 21.0968V20.1585L69.3252 18.7671V19.7378Z" fill="#42E8E0"/>
<path opacity="0.5" d="M69.9727 22.2943L71.6876 23.2974V22.3267L69.9727 21.356V22.2943Z" fill="#42E8E0"/>
<path opacity="0.5" d="M69.1963 24.0415L71.6878 25.4652V24.5269L69.1963 23.0708V24.0415Z" fill="#42E8E0"/>
<path opacity="0.5" d="M69.9727 26.6626L71.6876 27.6657V26.695L69.9727 25.6919V26.6626Z" fill="#42E8E0"/>
<path opacity="0.5" d="M69.5195 28.5717L71.6875 29.8336V28.8952L69.5195 27.6333V28.5717Z" fill="#42E8E0"/>
<path opacity="0.5" d="M70.4902 31.3217L71.6875 32.0335V31.0628L70.4902 30.3833V31.3217Z" fill="#42E8E0"/>
<path opacity="0.5" d="M69.3896 32.8754L71.687 34.202V33.2637L69.3896 31.937V32.8754Z" fill="#42E8E0"/>
<path opacity="0.5" d="M69.5195 35.1406L71.6875 36.4026V35.4319L69.5195 34.1699V35.1406Z" fill="#42E8E0"/>
<path d="M61.1394 30.319L60.2334 29.7689V28.8306L61.1394 29.3483V30.319Z" fill="#42E8E0"/>
<path opacity="0.5" d="M63.8902 31.9048L61.8193 30.7075V29.7368L63.8902 30.934V31.9048Z" fill="#42E8E0"/>
<path opacity="0.5" d="M44.8634 23.1356L40.4951 20.6117V19.6733L44.8634 22.1649V23.1356Z" fill="#42E8E0"/>
<path opacity="0.5" d="M47.0963 24.43L45.5107 23.5239V22.5532L47.0963 23.4592V24.43Z" fill="#42E8E0"/>
<path opacity="0.5" d="M48.811 25.4327L47.7432 24.8179V23.8472L48.811 24.462V25.4327Z" fill="#42E8E0"/>
<path opacity="0.5" d="M42.8896 24.1715L40.4951 22.8125V21.8418L42.8896 23.2332V24.1715Z" fill="#42E8E0"/>
<path opacity="0.5" d="M46.4493 26.2417L43.5371 24.5591V23.5884L46.4493 25.271V26.2417Z" fill="#42E8E0"/>
<path opacity="0.5" d="M48.1643 27.2447L47.1289 26.6299V25.6592L48.1643 26.274V27.2447Z" fill="#42E8E0"/>
<path opacity="0.5" d="M49.8139 28.1835L48.7461 27.5687V26.6304L49.8139 27.2452V28.1835Z" fill="#42E8E0"/>
<path opacity="0.5" d="M42.2101 25.9829L40.4951 24.9799V24.0415L42.2101 25.0122V25.9829Z" fill="#42E8E0"/>
<path opacity="0.5" d="M43.4721 26.6947L42.8896 26.3711V25.4004L43.4721 25.7563V26.6947Z" fill="#42E8E0"/>
<path opacity="0.5" d="M45.1868 27.6977L44.1514 27.0829V26.1445L45.1868 26.7593V27.6977Z" fill="#42E8E0"/>
<path opacity="0.5" d="M46.8372 30.8366L40.4951 27.1802V26.2095L46.8372 29.8659V30.8366Z" fill="#42E8E0"/>
<path opacity="0.5" d="M49.0707 32.1306L47.5176 31.2246V30.2539L49.0707 31.1599V32.1306Z" fill="#42E8E0"/>
<path opacity="0.5" d="M42.2101 30.3511L40.4951 29.348V28.4097L42.2101 29.3804V30.3511Z" fill="#42E8E0"/>
<path opacity="0.5" d="M46.2548 32.6812L42.8896 30.7398V29.769L46.2548 31.7105V32.6812Z" fill="#42E8E0"/>
<path opacity="0.5" d="M47.9701 33.6841L46.9023 33.0694V32.0986L47.9701 32.7134V33.6841Z" fill="#42E8E0"/>
<path opacity="0.5" d="M44.0221 33.5545L40.4951 31.5484V30.5776L44.0221 32.6162V33.5545Z" fill="#42E8E0"/>
<path opacity="0.5" d="M47.2262 35.4312L44.6699 33.9428V33.0044L47.2262 34.4605V35.4312Z" fill="#42E8E0"/>
<path opacity="0.5" d="M49.587 36.7906L47.8721 35.7875V34.8491L49.587 35.8522V36.7906Z" fill="#42E8E0"/>
<path opacity="0.5" d="M41.6923 34.3957L40.4951 33.7162V32.7778L41.6923 33.4573V34.3957Z" fill="#42E8E0"/>
<path opacity="0.5" d="M43.9254 35.6906L42.3398 34.7846V33.8462L43.9254 34.7522V35.6906Z" fill="#42E8E0"/>
<path opacity="0.5" d="M47.1285 37.5351L44.5723 36.079V35.1406L47.1285 36.5967V37.5351Z" fill="#42E8E0"/>
<path opacity="0.5" d="M44.1515 38.0202L40.4951 35.917V34.9463L44.1515 37.0495V38.0202Z" fill="#42E8E0"/>
<path opacity="0.5" d="M48.1954 40.3497L44.7979 38.3759V37.4375L48.1954 39.4113V40.3497Z" fill="#42E8E0"/>
<path opacity="0.5" d="M49.9438 41.353L48.876 40.7382V39.7998L49.9438 40.4146V41.353Z" fill="#42E8E0"/>
<path opacity="0.5" d="M51.5942 42.3233L50.5264 41.7085V40.7378L51.5942 41.3526V42.3233Z" fill="#42E8E0"/>
<path opacity="0.5" d="M42.6954 39.3468L40.4951 38.0848V37.1465L42.6954 38.4084V39.3468Z" fill="#42E8E0"/>
<path opacity="0.5" d="M51.7891 27.1475L54.7983 28.8624V27.9241L51.7891 26.1768V27.1475Z" fill="#42E8E0"/>
<path opacity="0.5" d="M52.4355 29.7041L54.7976 31.0631V30.0924L52.4355 28.7334V29.7041Z" fill="#42E8E0"/>
<path opacity="0.5" d="M53.082 32.2603L54.797 33.231V32.2926L53.082 31.2896V32.2603Z" fill="#42E8E0"/>
<path opacity="0.5" d="M52.3057 33.975L54.7972 35.4311V34.4603L52.3057 33.0366V33.975Z" fill="#42E8E0"/>
<path opacity="0.5" d="M53.082 36.6289L54.797 37.5996V36.6613L53.082 35.6582V36.6289Z" fill="#42E8E0"/>
<path opacity="0.5" d="M52.6289 38.537L54.7968 39.7989V38.8282L52.6289 37.5986V38.537Z" fill="#42E8E0"/>
<path opacity="0.5" d="M53.5996 41.288L54.7968 41.9675V41.0291L53.5996 40.3496V41.288Z" fill="#42E8E0"/>
<path opacity="0.5" d="M52.5 42.8408L54.7974 44.1675V43.1968L52.5 41.8701V42.8408Z" fill="#42E8E0"/>
<path opacity="0.5" d="M52.6289 45.1065L54.7968 46.336V45.3977L52.6289 44.1357V45.1065Z" fill="#42E8E0"/>
<path opacity="0.5" d="M44.2811 40.2526L43.3428 39.7349V38.7642L44.2811 39.3142V40.2526Z" fill="#42E8E0"/>
<path opacity="0.5" d="M47.031 41.8706L44.9277 40.641V39.7026L47.031 40.8999V41.8706Z" fill="#42E8E0"/>
<path opacity="0.5" d="M48.7467 49.2153L45.2197 47.1768V46.2061L48.7467 48.2446V49.2153Z" fill="#42E8E0"/>
<path opacity="0.5" d="M51.1403 50.6068L49.7812 49.7979V48.8271L51.1403 49.6361V50.6068Z" fill="#42E8E0"/>
<path opacity="0.5" d="M61.754 32.8431L57.3857 30.3192V29.3809L61.754 31.9047V32.8431Z" fill="#42E8E0"/>
<path opacity="0.5" d="M63.9545 34.137L62.4014 33.231V32.2603L63.9545 33.1663V34.137Z" fill="#42E8E0"/>
<path opacity="0.5" d="M65.7016 35.1402L64.6338 34.5254V33.5547L65.7016 34.1695V35.1402Z" fill="#42E8E0"/>
<path opacity="0.5" d="M59.7478 33.8786L57.3857 32.5195V31.5488L59.7478 32.9402V33.8786Z" fill="#42E8E0"/>
<path opacity="0.5" d="M63.3389 35.9486L60.4268 34.266V33.3276L63.3389 34.9779V35.9486Z" fill="#42E8E0"/>
<path opacity="0.5" d="M65.0541 36.9522L63.9863 36.3374V35.3667L65.0541 35.9815V36.9522Z" fill="#42E8E0"/>
<path opacity="0.5" d="M66.7045 37.8906L65.6367 37.2758V36.3374L66.7045 36.9522V37.8906Z" fill="#42E8E0"/>
<path opacity="0.5" d="M59.1007 35.69L57.3857 34.6869V33.7485L59.1007 34.7193V35.69Z" fill="#42E8E0"/>
<path opacity="0.5" d="M60.3627 36.4022L59.7803 36.0786V35.1079L60.3627 35.4638V36.4022Z" fill="#42E8E0"/>
<path opacity="0.5" d="M62.0776 37.4052L61.0098 36.7904V35.8521L62.0776 36.4668V37.4052Z" fill="#42E8E0"/>
<path opacity="0.5" d="M63.7278 40.5431L57.3857 36.8867V35.916L63.7278 39.5724V40.5431Z" fill="#42E8E0"/>
<path opacity="0.5" d="M65.9605 41.8377L64.375 40.9317V39.9609L65.9605 40.8669V41.8377Z" fill="#42E8E0"/>
<path opacity="0.5" d="M59.1007 40.0581L57.3857 39.0551V38.1167L59.1007 39.0874V40.0581Z" fill="#42E8E0"/>
<path opacity="0.5" d="M63.1131 42.3882L59.7803 40.4468V39.4761L63.1131 41.4175V42.3882Z" fill="#42E8E0"/>
<path opacity="0.5" d="M64.8598 43.3917L63.792 42.7769V41.8062L64.8598 42.4209V43.3917Z" fill="#42E8E0"/>
<path opacity="0.5" d="M60.8803 43.262L57.3857 41.2559V40.2852L60.8803 42.3237V43.262Z" fill="#42E8E0"/>
<path opacity="0.5" d="M64.1168 45.1382L61.5605 43.6498V42.7114L64.1168 44.1675V45.1382Z" fill="#42E8E0"/>
<path opacity="0.5" d="M66.4776 46.4976L64.7627 45.5269V44.5562L66.4776 45.5592V46.4976Z" fill="#42E8E0"/>
<path opacity="0.5" d="M58.583 44.1032L57.3857 43.4237V42.4854L58.583 43.1649V44.1032Z" fill="#42E8E0"/>
<path opacity="0.5" d="M60.816 45.3971L59.2305 44.4911V43.5527L60.816 44.4587V45.3971Z" fill="#42E8E0"/>
<path opacity="0.5" d="M63.9868 47.2416L61.4629 45.7855V44.8472L63.9868 46.3032V47.2416Z" fill="#42E8E0"/>
<path opacity="0.5" d="M61.0098 47.7268L57.3857 45.6236V44.6528L61.0098 46.7561V47.7268Z" fill="#42E8E0"/>
<path opacity="0.5" d="M65.087 50.0572L61.6895 48.1157V47.145L65.087 49.1188V50.0572Z" fill="#42E8E0"/>
<path opacity="0.5" d="M66.802 51.06L65.7666 50.4452V49.5068L66.802 50.1216V51.06Z" fill="#42E8E0"/>
<path opacity="0.5" d="M68.4848 52.0308L67.417 51.416V50.4453L68.4848 51.0601V52.0308Z" fill="#42E8E0"/>
<path opacity="0.5" d="M59.5537 49.0538L57.3857 47.7919V46.8535L59.5537 48.1155V49.0538Z" fill="#42E8E0"/>
<path opacity="0.5" d="M68.6777 36.855L71.687 38.6023V37.6316L68.6777 35.8843V36.855Z" fill="#42E8E0"/>
<path opacity="0.5" d="M69.3252 39.4107L71.6873 40.7697V39.7989L69.3252 38.4399V39.4107Z" fill="#42E8E0"/>
<path opacity="0.5" d="M69.9727 41.9673L71.6876 42.938V41.9997L69.9727 40.9966V41.9673Z" fill="#42E8E0"/>
<path opacity="0.5" d="M69.1963 43.682L71.6878 45.1381V44.1674L69.1963 42.7437V43.682Z" fill="#42E8E0"/>
<path opacity="0.5" d="M69.9727 46.3355L71.6876 47.3062V46.3678L69.9727 45.3647V46.3355Z" fill="#42E8E0"/>
<path opacity="0.5" d="M69.5195 48.245L71.6875 49.5069V48.5362L69.5195 47.3066V48.245Z" fill="#42E8E0"/>
<path opacity="0.5" d="M70.4902 50.9955L71.6875 51.675V50.7366L70.4902 50.0571V50.9955Z" fill="#42E8E0"/>
<path opacity="0.5" d="M69.3896 52.5484L71.687 53.875V52.9043L69.3896 51.5776V52.5484Z" fill="#42E8E0"/>
<path opacity="0.5" d="M69.5195 54.813L71.6875 56.0426V55.1042L69.5195 53.8423V54.813Z" fill="#42E8E0"/>
<path opacity="0.5" d="M61.1394 49.9915L60.2334 49.4414V48.4707L61.1394 49.0208V49.9915Z" fill="#42E8E0"/>
<path opacity="0.5" d="M63.8902 51.5776L61.8193 50.348V49.4097L63.8902 50.6069V51.5776Z" fill="#42E8E0"/>
<path opacity="0.5" d="M65.6363 58.9228L62.1094 56.8843V55.9136L65.6363 57.9521V58.9228Z" fill="#42E8E0"/>
<path opacity="0.5" d="M68.03 60.3138L66.6387 59.5049V58.5342L68.03 59.3431V60.3138Z" fill="#42E8E0"/>
<defs>
<linearGradient id="paint0_linear" x1="75.8192" y1="72.8521" x2="3.09922" y2="72.8521" gradientUnits="userSpaceOnUse">
<stop stop-color="#42E8E0"/>
<stop offset="0.1507" stop-color="#43E3E0"/>
<stop offset="0.3285" stop-color="#45D5DF"/>
<stop offset="0.5199" stop-color="#49BDDD"/>
<stop offset="0.7209" stop-color="#4E9CDB"/>
<stop offset="0.9274" stop-color="#5472D8"/>
<stop offset="1" stop-color="#5761D7"/>
</linearGradient>
<linearGradient id="paint1_linear" x1="85.7644" y1="37.7226" x2="30.3156" y2="37.7226" gradientUnits="userSpaceOnUse">
<stop stop-color="#C0BFF6"/>
<stop offset="0.2938" stop-color="#C5C4F7"/>
<stop offset="0.6399" stop-color="#D3D2F9"/>
<stop offset="1" stop-color="#E9E9FD"/>
</linearGradient>
<linearGradient id="paint2_linear" x1="85.7638" y1="51.943" x2="76.2428" y2="51.943" gradientUnits="userSpaceOnUse">
<stop stop-color="#5761D7"/>
<stop offset="0.1779" stop-color="#5C66D9"/>
<stop offset="0.3876" stop-color="#6A73DF"/>
<stop offset="0.6134" stop-color="#8289E8"/>
<stop offset="0.849" stop-color="#A3A7F5"/>
<stop offset="1" stop-color="#BCBEFF"/>
</linearGradient>
<linearGradient id="paint3_linear" x1="78.3365" y1="67.9279" x2="0.0246231" y2="67.9279" gradientUnits="userSpaceOnUse">
<stop stop-color="#5761D7"/>
<stop offset="0.1779" stop-color="#5C66D9"/>
<stop offset="0.3876" stop-color="#6A73DF"/>
<stop offset="0.6134" stop-color="#8289E8"/>
<stop offset="0.849" stop-color="#A3A7F5"/>
<stop offset="1" stop-color="#BCBEFF"/>
</linearGradient>
<linearGradient id="paint4_linear" x1="52.0229" y1="65.3163" x2="-26.3307" y2="65.3163" gradientUnits="userSpaceOnUse">
<stop stop-color="#C0BFF6"/>
<stop offset="0.2938" stop-color="#C5C4F7"/>
<stop offset="0.6399" stop-color="#D3D2F9"/>
<stop offset="1" stop-color="#E9E9FD"/>
</linearGradient>
<linearGradient id="paint5_linear" x1="38.7535" y1="69.7644" x2="18.6971" y2="69.7644" gradientUnits="userSpaceOnUse">
<stop stop-color="#C0BFF6"/>
<stop offset="0.2938" stop-color="#C5C4F7"/>
<stop offset="0.6399" stop-color="#D3D2F9"/>
<stop offset="1" stop-color="#E9E9FD"/>
</linearGradient>
<linearGradient id="paint6_linear" x1="87.1156" y1="42.1969" x2="67.0593" y2="42.1969" gradientUnits="userSpaceOnUse">
<stop stop-color="#C0BFF6"/>
<stop offset="0.2938" stop-color="#C5C4F7"/>
<stop offset="0.6399" stop-color="#D3D2F9"/>
<stop offset="1" stop-color="#E9E9FD"/>
</linearGradient>
</defs>
</svg>
